<ttFont>
    <TTGlyph name="A" xMin="-4" yMin="-10" xMax="1741" yMax="1452">
      <contour>
        <pt x="1741" y="53" on="1"/>
        <pt x="1650" y="16" on="0"/>
        <pt x="1500" y="-10" on="0"/>
        <pt x="1440" y="-10" on="1"/>
        <pt x="1392" y="-10" on="0"/>
        <pt x="1322" y="1" on="0"/>
        <pt x="1297" y="9" on="1"/>
        <pt x="1268" y="18" on="0"/>
        <pt x="1247" y="29" on="1"/>
        <pt x="1203" y="54" on="0"/>
        <pt x="1137" y="134" on="0"/>
        <pt x="1084" y="226" on="0"/>
        <pt x="1042" y="324" on="0"/>
        <pt x="1022" y="367" on="1"/>
        <pt x="997" y="420" on="1"/>
        <pt x="896" y="391" on="0"/>
        <pt x="721" y="316" on="0"/>
        <pt x="585" y="243" on="0"/>
        <pt x="492" y="182" on="0"/>
        <pt x="473" y="168" on="1"/>
        <pt x="436" y="127" on="0"/>
        <pt x="344" y="63" on="0"/>
        <pt x="230" y="18" on="0"/>
        <pt x="90" y="-6" on="0"/>
        <pt x="6" y="-6" on="1"/>
        <pt x="-4" y="37" on="1"/>
        <pt x="93" y="53" on="0"/>
        <pt x="234" y="145" on="0"/>
        <pt x="336" y="280" on="0"/>
        <pt x="408" y="449" on="0"/>
        <pt x="436" y="543" on="1"/>
        <pt x="452" y="597" on="0"/>
        <pt x="505" y="717" on="0"/>
        <pt x="580" y="830" on="0"/>
        <pt x="677" y="929" on="0"/>
        <pt x="739" y="963" on="1"/>
        <pt x="722" y="995" on="0"/>
        <pt x="689" y="1062" on="0"/>
        <pt x="674" y="1096" on="1"/>
        <pt x="653" y="1136" on="0"/>
        <pt x="611" y="1233" on="0"/>
        <pt x="554" y="1316" on="0"/>
        <pt x="477" y="1372" on="0"/>
        <pt x="420" y="1372" on="1"/>
        <pt x="380" y="1372" on="0"/>
        <pt x="303" y="1354" on="0"/>
        <pt x="268" y="1341" on="1"/>
        <pt x="254" y="1382" on="1"/>
        <pt x="341" y="1411" on="0"/>
        <pt x="520" y="1452" on="0"/>
        <pt x="608" y="1452" on="1"/>
        <pt x="650" y="1452" on="0"/>
        <pt x="732" y="1441" on="0"/>
        <pt x="770" y="1427" on="1"/>
        <pt x="803" y="1415" on="0"/>
        <pt x="865" y="1360" on="0"/>
        <pt x="921" y="1285" on="0"/>
        <pt x="970" y="1199" on="0"/>
        <pt x="1013" y="1113" on="0"/>
        <pt x="1048" y="1036" on="0"/>
        <pt x="1061" y="1008" on="1"/>
        <pt x="1149" y="819" on="0"/>
        <pt x="1323" y="440" on="0"/>
        <pt x="1423" y="256" on="1"/>
        <pt x="1441" y="223" on="0"/>
        <pt x="1482" y="159" on="0"/>
        <pt x="1533" y="109" on="0"/>
        <pt x="1595" y="79" on="0"/>
        <pt x="1634" y="80" on="1"/>
        <pt x="1648" y="80" on="0"/>
        <pt x="1697" y="86" on="0"/>
        <pt x="1726" y="98" on="1"/>
      </contour>
      <contour>
        <pt x="795" y="848" on="1"/>
        <pt x="769" y="806" on="0"/>
        <pt x="726" y="716" on="0"/>
        <pt x="690" y="623" on="0"/>
        <pt x="660" y="531" on="0"/>
        <pt x="645" y="489" on="1"/>
        <pt x="630" y="443" on="0"/>
        <pt x="595" y="356" on="0"/>
        <pt x="573" y="315" on="1"/>
        <pt x="648" y="359" on="0"/>
        <pt x="850" y="455" on="0"/>
        <pt x="965" y="489" on="1"/>
      </contour>
    </TTGlyph>
    <TTGlyph name="AE" xMin="-4" yMin="-51" xMax="2277" yMax="1452">
      <contour>
        <pt x="2232" y="1114" on="1"/>
        <pt x="2204" y="1177" on="0"/>
        <pt x="2110" y="1275" on="0"/>
        <pt x="1995" y="1343" on="0"/>
        <pt x="1867" y="1378" on="0"/>
        <pt x="1804" y="1378" on="1"/>
        <pt x="1735" y="1378" on="0"/>
        <pt x="1613" y="1329" on="0"/>
        <pt x="1509" y="1244" on="0"/>
        <pt x="1422" y="1127" on="0"/>
        <pt x="1358" y="992" on="0"/>
        <pt x="1315" y="844" on="0"/>
        <pt x="1307" y="770" on="1"/>
        <pt x="2159" y="770" on="1"/>
        <pt x="2138" y="728" on="0"/>
        <pt x="2115" y="635" on="0"/>
        <pt x="2110" y="595" on="1"/>
        <pt x="2104" y="548" on="0"/>
        <pt x="2103" y="504" on="1"/>
        <pt x="2071" y="498" on="1"/>
        <pt x="2058" y="562" on="0"/>
        <pt x="2020" y="646" on="0"/>
        <pt x="1944" y="694" on="0"/>
        <pt x="1816" y="713" on="0"/>
        <pt x="1714" y="713" on="1"/>
        <pt x="1300" y="713" on="1"/>
        <pt x="1300" y="670" on="1"/>
        <pt x="1300" y="589" on="0"/>
        <pt x="1338" y="433" on="0"/>
        <pt x="1408" y="292" on="0"/>
        <pt x="1510" y="174" on="0"/>
        <pt x="1636" y="87" on="0"/>
        <pt x="1786" y="39" on="0"/>
        <pt x="1870" y="39" on="1"/>
        <pt x="1946" y="39" on="0"/>
        <pt x="2062" y="68" on="0"/>
        <pt x="2147" y="112" on="0"/>
        <pt x="2205" y="165" on="0"/>
        <pt x="2243" y="213" on="0"/>
        <pt x="2262" y="250" on="0"/>
        <pt x="2267" y="256" on="1"/>
        <pt x="2251" y="115" on="1"/>
        <pt x="2228" y="83" on="0"/>
        <pt x="2140" y="24" on="0"/>
        <pt x="2019" y="-23" on="0"/>
        <pt x="1869" y="-51" on="0"/>
        <pt x="1782" y="-51" on="1"/>
        <pt x="1650" y="-51" on="0"/>
        <pt x="1407" y="11" on="0"/>
        <pt x="1204" y="127" on="0"/>
        <pt x="1051" y="293" on="0"/>
        <pt x="1008" y="397" on="1"/>
        <pt x="1005" y="404" on="0"/>
        <pt x="999" y="414" on="0"/>
        <pt x="997" y="420" on="1"/>
        <pt x="896" y="391" on="0"/>
        <pt x="721" y="316" on="0"/>
        <pt x="585" y="243" on="0"/>
        <pt x="492" y="182" on="0"/>
        <pt x="473" y="168" on="1"/>
        <pt x="436" y="127" on="0"/>
        <pt x="344" y="63" on="0"/>
        <pt x="230" y="18" on="0"/>
        <pt x="90" y="-6" on="0"/>
        <pt x="6" y="-6" on="1"/>
        <pt x="-4" y="37" on="1"/>
        <pt x="93" y="53" on="0"/>
        <pt x="234" y="145" on="0"/>
        <pt x="336" y="280" on="0"/>
        <pt x="408" y="449" on="0"/>
        <pt x="436" y="543" on="1"/>
        <pt x="452" y="597" on="0"/>
        <pt x="505" y="717" on="0"/>
        <pt x="580" y="830" on="0"/>
        <pt x="677" y="929" on="0"/>
        <pt x="739" y="963" on="1"/>
        <pt x="722" y="995" on="0"/>
        <pt x="689" y="1062" on="0"/>
        <pt x="674" y="1096" on="1"/>
        <pt x="659" y="1125" on="0"/>
        <pt x="620" y="1210" on="0"/>
        <pt x="572" y="1292" on="0"/>
        <pt x="516" y="1356" on="0"/>
        <pt x="485" y="1364" on="1"/>
        <pt x="468" y="1367" on="0"/>
        <pt x="435" y="1372" on="0"/>
        <pt x="420" y="1372" on="1"/>
        <pt x="380" y="1372" on="0"/>
        <pt x="303" y="1354" on="0"/>
        <pt x="268" y="1341" on="1"/>
        <pt x="254" y="1382" on="1"/>
        <pt x="341" y="1411" on="0"/>
        <pt x="520" y="1452" on="0"/>
        <pt x="608" y="1452" on="1"/>
        <pt x="650" y="1452" on="0"/>
        <pt x="732" y="1441" on="0"/>
        <pt x="770" y="1427" on="1"/>
        <pt x="802" y="1415" on="0"/>
        <pt x="862" y="1361" on="0"/>
        <pt x="916" y="1290" on="0"/>
        <pt x="965" y="1206" on="0"/>
        <pt x="1007" y="1122" on="0"/>
        <pt x="1041" y="1045" on="0"/>
        <pt x="1055" y="1016" on="1"/>
        <pt x="1098" y="1094" on="0"/>
        <pt x="1219" y="1222" on="0"/>
        <pt x="1364" y="1321" on="0"/>
        <pt x="1531" y="1390" on="0"/>
        <pt x="1620" y="1411" on="1"/>
        <pt x="1691" y="1428" on="0"/>
        <pt x="1875" y="1438" on="0"/>
        <pt x="1968" y="1438" on="1"/>
        <pt x="2058" y="1438" on="0"/>
        <pt x="2217" y="1434" on="0"/>
        <pt x="2271" y="1434" on="1"/>
        <pt x="2260" y="1387" on="0"/>
        <pt x="2251" y="1314" on="0"/>
        <pt x="2251" y="1282" on="1"/>
        <pt x="2251" y="1237" on="0"/>
        <pt x="2265" y="1160" on="0"/>
        <pt x="2277" y="1116" on="1"/>
      </contour>
      <contour>
        <pt x="795" y="848" on="1"/>
        <pt x="769" y="806" on="0"/>
        <pt x="726" y="716" on="0"/>
        <pt x="690" y="623" on="0"/>
        <pt x="660" y="531" on="0"/>
        <pt x="645" y="489" on="1"/>
        <pt x="630" y="443" on="0"/>
        <pt x="595" y="356" on="0"/>
        <pt x="573" y="315" on="1"/>
        <pt x="648" y="359" on="0"/>
        <pt x="850" y="455" on="0"/>
        <pt x="965" y="489" on="1"/>
      </contour>
    </TTGlyph>
    <TTGlyph name="AEacute" xMin="-4" yMin="-51" xMax="2277" yMax="1690">
      <component glyphName="AE" x="0" y="0" flags="0x204"/>
      <component glyphName="acute" x="1079" y="215" flags="0x4"/>
    </TTGlyph>
    <TTGlyph name="Aacute" xMin="-4" yMin="-10" xMax="1741" yMax="1829">
      <component glyphName="A" x="0" y="0" flags="0x204"/>
      <component glyphName="acute" x="655" y="354" flags="0x4"/>
    </TTGlyph>
    <TTGlyph name="Abreve" xMin="-4" yMin="-10" xMax="1741" yMax="1801">
      <component glyphName="A" x="0" y="0" flags="0x204"/>
      <component glyphName="breve" x="543" y="326" flags="0x4"/>
    </TTGlyph>
    <TTGlyph name="Acircumflex" xMin="-4" yMin="-10" xMax="1741" yMax="1829">
      <component glyphName="A" x="0" y="0" flags="0x204"/>
      <component glyphName="circumflex" x="530" y="354" flags="0x4"/>
    </TTGlyph>
    <TTGlyph name="Adieresis" xMin="-4" yMin="-10" xMax="1741" yMax="1788">
      <component glyphName="A" x="0" y="0" flags="0x204"/>
      <component glyphName="dieresis" x="512" y="354" flags="0x4"/>
    </TTGlyph>
    <TTGlyph name="Agrave" xMin="-4" yMin="-10" xMax="1741" yMax="1829">
      <component glyphName="A" x="0" y="0" flags="0x204"/>
      <component glyphName="grave" x="348" y="354" flags="0x4"/>
    </TTGlyph>
    <TTGlyph name="Amacron" xMin="-4" yMin="-10" xMax="1741" yMax="1650">
      <component glyphName="A" x="0" y="0" flags="0x204"/>
      <component glyphName="macron" x="479" y="311" flags="0x4"/>
    </TTGlyph>
    <TTGlyph name="Aogonek" xMin="-4" yMin="-418" xMax="1741" yMax="1452">
      <contour>
        <pt x="1741" y="-223" on="1"/>
        <pt x="1741" y="-263" on="0"/>
        <pt x="1711" y="-334" on="0"/>
        <pt x="1658" y="-387" on="0"/>
        <pt x="1588" y="-418" on="0"/>
        <pt x="1548" y="-418" on="1"/>
        <pt x="1497" y="-418" on="0"/>
        <pt x="1412" y="-386" on="0"/>
        <pt x="1350" y="-328" on="0"/>
        <pt x="1315" y="-244" on="0"/>
        <pt x="1315" y="-193" on="1"/>
        <pt x="1315" y="-142" on="0"/>
        <pt x="1378" y="-45" on="0"/>
        <pt x="1427" y="-10" on="1"/>
        <pt x="1383" y="-9" on="0"/>
        <pt x="1316" y="2" on="0"/>
        <pt x="1293" y="10" on="1"/>
        <pt x="1266" y="18" on="0"/>
        <pt x="1247" y="29" on="1"/>
        <pt x="1203" y="54" on="0"/>
        <pt x="1137" y="134" on="0"/>
        <pt x="1084" y="226" on="0"/>
        <pt x="1042" y="324" on="0"/>
        <pt x="1022" y="367" on="1"/>
        <pt x="997" y="420" on="1"/>
        <pt x="896" y="391" on="0"/>
        <pt x="721" y="316" on="0"/>
        <pt x="585" y="243" on="0"/>
        <pt x="492" y="182" on="0"/>
        <pt x="473" y="168" on="1"/>
        <pt x="436" y="127" on="0"/>
        <pt x="344" y="63" on="0"/>
        <pt x="230" y="18" on="0"/>
        <pt x="90" y="-6" on="0"/>
        <pt x="6" y="-6" on="1"/>
        <pt x="-4" y="37" on="1"/>
        <pt x="93" y="53" on="0"/>
        <pt x="234" y="145" on="0"/>
        <pt x="336" y="280" on="0"/>
        <pt x="408" y="449" on="0"/>
        <pt x="436" y="543" on="1"/>
        <pt x="452" y="597" on="0"/>
        <pt x="505" y="717" on="0"/>
        <pt x="580" y="830" on="0"/>
        <pt x="677" y="929" on="0"/>
        <pt x="739" y="963" on="1"/>
        <pt x="722" y="995" on="0"/>
        <pt x="689" y="1062" on="0"/>
        <pt x="674" y="1096" on="1"/>
        <pt x="653" y="1136" on="0"/>
        <pt x="611" y="1233" on="0"/>
        <pt x="554" y="1316" on="0"/>
        <pt x="477" y="1372" on="0"/>
        <pt x="420" y="1372" on="1"/>
        <pt x="380" y="1372" on="0"/>
        <pt x="303" y="1354" on="0"/>
        <pt x="268" y="1341" on="1"/>
        <pt x="254" y="1382" on="1"/>
        <pt x="341" y="1411" on="0"/>
        <pt x="520" y="1452" on="0"/>
        <pt x="608" y="1452" on="1"/>
        <pt x="650" y="1452" on="0"/>
        <pt x="732" y="1441" on="0"/>
        <pt x="770" y="1427" on="1"/>
        <pt x="803" y="1415" on="0"/>
        <pt x="865" y="1360" on="0"/>
        <pt x="921" y="1285" on="0"/>
        <pt x="970" y="1199" on="0"/>
        <pt x="1013" y="1113" on="0"/>
        <pt x="1048" y="1036" on="0"/>
        <pt x="1061" y="1008" on="1"/>
        <pt x="1149" y="819" on="0"/>
        <pt x="1323" y="440" on="0"/>
        <pt x="1423" y="256" on="1"/>
        <pt x="1441" y="223" on="0"/>
        <pt x="1482" y="159" on="0"/>
        <pt x="1533" y="109" on="0"/>
        <pt x="1595" y="79" on="0"/>
        <pt x="1634" y="80" on="1"/>
        <pt x="1648" y="80" on="0"/>
        <pt x="1697" y="86" on="0"/>
        <pt x="1726" y="98" on="1"/>
        <pt x="1741" y="53" on="1"/>
        <pt x="1684" y="30" on="0"/>
        <pt x="1581" y="3" on="0"/>
        <pt x="1536" y="-2" on="1"/>
        <pt x="1486" y="-40" on="0"/>
        <pt x="1444" y="-144" on="0"/>
        <pt x="1444" y="-193" on="1"/>
        <pt x="1444" y="-232" on="0"/>
        <pt x="1462" y="-295" on="0"/>
        <pt x="1492" y="-338" on="0"/>
        <pt x="1531" y="-362" on="0"/>
        <pt x="1552" y="-362" on="1"/>
        <pt x="1587" y="-362" on="0"/>
        <pt x="1638" y="-330" on="0"/>
        <pt x="1672" y="-285" on="0"/>
        <pt x="1689" y="-238" on="0"/>
        <pt x="1690" y="-223" on="1"/>
      </contour>
      <contour>
        <pt x="795" y="848" on="1"/>
        <pt x="769" y="806" on="0"/>
        <pt x="726" y="716" on="0"/>
        <pt x="690" y="623" on="0"/>
        <pt x="660" y="531" on="0"/>
        <pt x="645" y="489" on="1"/>
        <pt x="630" y="443" on="0"/>
        <pt x="595" y="356" on="0"/>
        <pt x="573" y="315" on="1"/>
        <pt x="648" y="359" on="0"/>
        <pt x="850" y="455" on="0"/>
        <pt x="965" y="489" on="1"/>
      </contour>
    </TTGlyph>
    <TTGlyph name="Aring" xMin="-4" yMin="-10" xMax="1741" yMax="1931">
      <component glyphName="A" x="0" y="0" flags="0x204"/>
      <component glyphName="ring" x="567" y="354" flags="0x4"/>
    </TTGlyph>
    <TTGlyph name="Atilde" xMin="-4" yMin="-10" xMax="1741" yMax="1808">
      <component glyphName="A" x="0" y="0" flags="0x204"/>
      <component glyphName="tilde" x="373" y="354" flags="0x4"/>
    </TTGlyph>
    <TTGlyph name="B" xMin="68" yMin="-41" xMax="1509" yMax="1434">
      <contour>
        <pt x="1360" y="1110" on="1"/>
        <pt x="1360" y="1055" on="0"/>
        <pt x="1303" y="951" on="0"/>
        <pt x="1207" y="860" on="0"/>
        <pt x="1079" y="785" on="0"/>
        <pt x="1008" y="758" on="1"/>
        <pt x="1019" y="760" on="0"/>
        <pt x="1042" y="760" on="0"/>
        <pt x="1053" y="760" on="1"/>
        <pt x="1136" y="760" on="0"/>
        <pt x="1299" y="732" on="0"/>
        <pt x="1429" y="657" on="0"/>
        <pt x="1509" y="527" on="0"/>
        <pt x="1509" y="426" on="1"/>
        <pt x="1509" y="347" on="0"/>
        <pt x="1464" y="223" on="0"/>
        <pt x="1385" y="127" on="0"/>
        <pt x="1281" y="58" on="0"/>
        <pt x="1163" y="10" on="0"/>
        <pt x="1037" y="-19" on="0"/>
        <pt x="917" y="-35" on="0"/>
        <pt x="808" y="-41" on="0"/>
        <pt x="766" y="-41" on="1"/>
        <pt x="724" y="-41" on="0"/>
        <pt x="634" y="-36" on="0"/>
        <pt x="544" y="-28" on="0"/>
        <pt x="457" y="-18" on="0"/>
        <pt x="418" y="-12" on="1"/>
        <pt x="326" y="1" on="0"/>
        <pt x="238" y="18" on="1"/>
        <pt x="248" y="1255" on="1"/>
        <pt x="248" y="1276" on="0"/>
        <pt x="234" y="1326" on="0"/>
        <pt x="195" y="1368" on="0"/>
        <pt x="125" y="1397" on="0"/>
        <pt x="68" y="1397" on="1"/>
        <pt x="68" y="1434" on="1"/>
        <pt x="737" y="1434" on="1"/>
        <pt x="879" y="1434" on="0"/>
        <pt x="1109" y="1410" on="0"/>
        <pt x="1272" y="1340" on="0"/>
        <pt x="1360" y="1213" on="0"/>
      </contour>
      <contour>
        <pt x="1026" y="1112" on="1"/>
        <pt x="1026" y="1190" on="0"/>
        <pt x="976" y="1292" on="0"/>
        <pt x="894" y="1352" on="0"/>
        <pt x="790" y="1376" on="0"/>
        <pt x="737" y="1376" on="1"/>
        <pt x="683" y="1376" on="0"/>
        <pt x="614" y="1353" on="0"/>
        <pt x="575" y="1315" on="0"/>
        <pt x="561" y="1265" on="0"/>
        <pt x="561" y="1237" on="1"/>
        <pt x="557" y="76" on="1"/>
        <pt x="591" y="58" on="0"/>
        <pt x="634" y="45" on="1"/>
        <pt x="671" y="33" on="0"/>
        <pt x="773" y="14" on="0"/>
        <pt x="836" y="14" on="1"/>
        <pt x="891" y="14" on="0"/>
        <pt x="1019" y="53" on="0"/>
        <pt x="1129" y="134" on="0"/>
        <pt x="1202" y="259" on="0"/>
        <pt x="1202" y="344" on="1"/>
        <pt x="1202" y="415" on="0"/>
        <pt x="1166" y="520" on="0"/>
        <pt x="1104" y="595" on="0"/>
        <pt x="1024" y="643" on="0"/>
        <pt x="935" y="670" on="0"/>
        <pt x="844" y="680" on="0"/>
        <pt x="803" y="680" on="1"/>
        <pt x="771" y="680" on="0"/>
        <pt x="715" y="675" on="0"/>
        <pt x="694" y="673" on="1"/>
        <pt x="669" y="669" on="0"/>
        <pt x="649" y="666" on="1"/>
        <pt x="633" y="705" on="1"/>
        <pt x="743" y="718" on="0"/>
        <pt x="829" y="766" on="1"/>
        <pt x="866" y="786" on="0"/>
        <pt x="936" y="846" on="0"/>
        <pt x="992" y="930" on="0"/>
        <pt x="1026" y="1041" on="0"/>
      </contour>
    </TTGlyph>
    <TTGlyph name="C" xMin="98" yMin="-49" xMax="1417" yMax="1438">
      <contour>
        <pt x="1417" y="1116" on="1"/>
        <pt x="1372" y="1114" on="1"/>
        <pt x="1343" y="1177" on="0"/>
        <pt x="1250" y="1275" on="0"/>
        <pt x="1135" y="1343" on="0"/>
        <pt x="1007" y="1378" on="0"/>
        <pt x="944" y="1378" on="1"/>
        <pt x="868" y="1378" on="0"/>
        <pt x="734" y="1318" on="0"/>
        <pt x="622" y="1214" on="0"/>
        <pt x="533" y="1075" on="0"/>
        <pt x="472" y="918" on="0"/>
        <pt x="440" y="750" on="0"/>
        <pt x="440" y="670" on="1"/>
        <pt x="440" y="589" on="0"/>
        <pt x="478" y="433" on="0"/>
        <pt x="548" y="292" on="0"/>
        <pt x="650" y="174" on="0"/>
        <pt x="776" y="87" on="0"/>
        <pt x="926" y="39" on="0"/>
        <pt x="1010" y="39" on="1"/>
        <pt x="1086" y="39" on="0"/>
        <pt x="1202" y="68" on="0"/>
        <pt x="1287" y="112" on="0"/>
        <pt x="1345" y="165" on="0"/>
        <pt x="1383" y="213" on="0"/>
        <pt x="1402" y="250" on="0"/>
        <pt x="1407" y="256" on="1"/>
        <pt x="1391" y="115" on="1"/>
        <pt x="1365" y="80" on="0"/>
        <pt x="1274" y="21" on="0"/>
        <pt x="1152" y="-24" on="0"/>
        <pt x="1003" y="-49" on="0"/>
        <pt x="920" y="-49" on="1"/>
        <pt x="810" y="-49" on="0"/>
        <pt x="603" y="-5" on="0"/>
        <pt x="421" y="77" on="0"/>
        <pt x="270" y="198" on="0"/>
        <pt x="161" y="350" on="0"/>
        <pt x="99" y="534" on="0"/>
        <pt x="98" y="639" on="1"/>
        <pt x="101" y="801" on="0"/>
        <pt x="208" y="1060" on="0"/>
        <pt x="387" y="1253" on="0"/>
        <pt x="625" y="1380" on="0"/>
        <pt x="760" y="1411" on="1"/>
        <pt x="831" y="1428" on="0"/>
        <pt x="1015" y="1438" on="0"/>
        <pt x="1108" y="1438" on="1"/>
        <pt x="1198" y="1438" on="0"/>
        <pt x="1357" y="1434" on="0"/>
        <pt x="1411" y="1434" on="1"/>
        <pt x="1400" y="1387" on="0"/>
        <pt x="1391" y="1314" on="0"/>
        <pt x="1391" y="1282" on="1"/>
        <pt x="1391" y="1237" on="0"/>
        <pt x="1405" y="1160" on="0"/>
      </contour>
    </TTGlyph>
    <TTGlyph name="Cacute" xMin="98" yMin="-49" xMax="1417" yMax="1829">
      <component glyphName="C" x="0" y="0" flags="0x204"/>
      <component glyphName="acute" x="848" y="354" flags="0x4"/>
    </TTGlyph>
    <TTGlyph name="Ccaron" xMin="98" yMin="-49" xMax="1417" yMax="1829">
      <component glyphName="C" x="0" y="0" flags="0x204"/>
      <component glyphName="caron" x="606" y="354" flags="0x4"/>
    </TTGlyph>
    <TTGlyph name="Ccedilla" xMin="96" yMin="-438" xMax="1415" yMax="1438">
      <contour>
        <pt x="969" y="-248" on="1"/>
        <pt x="969" y="-300" on="0"/>
        <pt x="933" y="-373" on="0"/>
        <pt x="870" y="-418" on="0"/>
        <pt x="784" y="-438" on="0"/>
        <pt x="735" y="-438" on="1"/>
        <pt x="695" y="-438" on="0"/>
        <pt x="625" y="-407" on="0"/>
        <pt x="573" y="-354" on="0"/>
        <pt x="543" y="-284" on="0"/>
        <pt x="543" y="-244" on="1"/>
        <pt x="594" y="-244" on="1"/>
        <pt x="594" y="-277" on="0"/>
        <pt x="621" y="-329" on="0"/>
        <pt x="659" y="-364" on="0"/>
        <pt x="699" y="-383" on="0"/>
        <pt x="711" y="-383" on="1"/>
        <pt x="745" y="-383" on="0"/>
        <pt x="790" y="-356" on="0"/>
        <pt x="817" y="-316" on="0"/>
        <pt x="829" y="-269" on="0"/>
        <pt x="829" y="-248" on="1"/>
        <pt x="829" y="-204" on="0"/>
        <pt x="798" y="-155" on="0"/>
        <pt x="754" y="-131" on="0"/>
        <pt x="707" y="-125" on="0"/>
        <pt x="692" y="-125" on="1"/>
        <pt x="737" y="-33" on="1"/>
        <pt x="603" y="-10" on="0"/>
        <pt x="370" y="104" on="0"/>
        <pt x="197" y="276" on="0"/>
        <pt x="97" y="503" on="0"/>
        <pt x="96" y="639" on="1"/>
        <pt x="99" y="801" on="0"/>
        <pt x="206" y="1060" on="0"/>
        <pt x="385" y="1253" on="0"/>
        <pt x="623" y="1380" on="0"/>
        <pt x="758" y="1411" on="1"/>
        <pt x="829" y="1428" on="0"/>
        <pt x="1013" y="1438" on="0"/>
        <pt x="1106" y="1438" on="1"/>
        <pt x="1196" y="1438" on="0"/>
        <pt x="1355" y="1434" on="0"/>
        <pt x="1409" y="1434" on="1"/>
        <pt x="1398" y="1387" on="0"/>
        <pt x="1389" y="1314" on="0"/>
        <pt x="1389" y="1282" on="1"/>
        <pt x="1389" y="1237" on="0"/>
        <pt x="1403" y="1160" on="0"/>
        <pt x="1415" y="1116" on="1"/>
        <pt x="1370" y="1114" on="1"/>
        <pt x="1341" y="1177" on="0"/>
        <pt x="1248" y="1275" on="0"/>
        <pt x="1133" y="1343" on="0"/>
        <pt x="1005" y="1378" on="0"/>
        <pt x="942" y="1378" on="1"/>
        <pt x="866" y="1378" on="0"/>
        <pt x="732" y="1318" on="0"/>
        <pt x="620" y="1214" on="0"/>
        <pt x="531" y="1075" on="0"/>
        <pt x="470" y="918" on="0"/>
        <pt x="438" y="750" on="0"/>
        <pt x="438" y="670" on="1"/>
        <pt x="438" y="589" on="0"/>
        <pt x="476" y="433" on="0"/>
        <pt x="546" y="292" on="0"/>
        <pt x="648" y="174" on="0"/>
        <pt x="774" y="87" on="0"/>
        <pt x="924" y="39" on="0"/>
        <pt x="1008" y="39" on="1"/>
        <pt x="1084" y="39" on="0"/>
        <pt x="1200" y="68" on="0"/>
        <pt x="1285" y="112" on="0"/>
        <pt x="1343" y="165" on="0"/>
        <pt x="1380" y="213" on="0"/>
        <pt x="1400" y="250" on="0"/>
        <pt x="1405" y="256" on="1"/>
        <pt x="1389" y="115" on="1"/>
        <pt x="1363" y="80" on="0"/>
        <pt x="1272" y="21" on="0"/>
        <pt x="1150" y="-24" on="0"/>
        <pt x="1001" y="-49" on="0"/>
        <pt x="918" y="-49" on="1"/>
        <pt x="887" y="-49" on="0"/>
        <pt x="826" y="-44" on="0"/>
        <pt x="797" y="-41" on="1"/>
        <pt x="778" y="-82" on="1"/>
        <pt x="810" y="-82" on="0"/>
        <pt x="878" y="-104" on="0"/>
        <pt x="933" y="-146" on="0"/>
        <pt x="969" y="-208" on="0"/>
      </contour>
    </TTGlyph>
    <TTGlyph name="Ccircumflex" xMin="98" yMin="-49" xMax="1417" yMax="1837">
      <component glyphName="C" x="0" y="0" flags="0x204"/>
      <component glyphName="circumflex" x="612" y="362" flags="0x4"/>
    </TTGlyph>
    <TTGlyph name="Cdotaccent" xMin="98" yMin="-49" xMax="1417" yMax="1762">
      <component glyphName="C" x="0" y="0" flags="0x204"/>
      <component glyphName="dotaccent" x="762" y="328" flags="0x4"/>
    </TTGlyph>
    <TTGlyph name="D" xMin="90" yMin="-49" xMax="1731" yMax="2019">
      <contour>
        <pt x="797" y="-49" on="1"/>
        <pt x="652" y="-49" on="0"/>
        <pt x="395" y="49" on="0"/>
        <pt x="202" y="226" on="0"/>
        <pt x="90" y="470" on="0"/>
        <pt x="90" y="616" on="1"/>
        <pt x="90" y="753" on="0"/>
        <pt x="204" y="997" on="0"/>
        <pt x="416" y="1200" on="0"/>
        <pt x="718" y="1355" on="0"/>
        <pt x="905" y="1403" on="1"/>
        <pt x="829" y="1456" on="1"/>
        <pt x="758" y="1504" on="0"/>
        <pt x="696" y="1635" on="0"/>
        <pt x="696" y="1704" on="1"/>
        <pt x="696" y="1754" on="0"/>
        <pt x="725" y="1852" on="0"/>
        <pt x="777" y="1936" on="0"/>
        <pt x="847" y="2001" on="0"/>
        <pt x="889" y="2019" on="1"/>
        <pt x="913" y="1982" on="1"/>
        <pt x="846" y="1934" on="0"/>
        <pt x="846" y="1872" on="1"/>
        <pt x="846" y="1815" on="0"/>
        <pt x="950" y="1685" on="0"/>
        <pt x="1049" y="1614" on="1"/>
        <pt x="1216" y="1492" on="0"/>
        <pt x="1469" y="1277" on="0"/>
        <pt x="1640" y="1065" on="0"/>
        <pt x="1728" y="846" on="0"/>
        <pt x="1731" y="719" on="1"/>
        <pt x="1731" y="590" on="0"/>
        <pt x="1657" y="377" on="0"/>
        <pt x="1527" y="206" on="0"/>
        <pt x="1349" y="78" on="0"/>
        <pt x="1141" y="-7" on="0"/>
        <pt x="913" y="-49" on="0"/>
      </contour>
      <contour>
        <pt x="1393" y="637" on="1"/>
        <pt x="1393" y="737" on="0"/>
        <pt x="1350" y="916" on="0"/>
        <pt x="1253" y="1088" on="0"/>
        <pt x="1094" y="1258" on="0"/>
        <pt x="977" y="1348" on="1"/>
        <pt x="898" y="1331" on="0"/>
        <pt x="756" y="1260" on="0"/>
        <pt x="634" y="1159" on="0"/>
        <pt x="535" y="1032" on="0"/>
        <pt x="466" y="889" on="0"/>
        <pt x="428" y="734" on="0"/>
        <pt x="428" y="655" on="1"/>
        <pt x="428" y="577" on="0"/>
        <pt x="462" y="426" on="0"/>
        <pt x="525" y="289" on="0"/>
        <pt x="617" y="173" on="0"/>
        <pt x="732" y="89" on="0"/>
        <pt x="869" y="41" on="0"/>
        <pt x="946" y="41" on="1"/>
        <pt x="1039" y="41" on="0"/>
        <pt x="1202" y="128" on="0"/>
        <pt x="1323" y="285" on="0"/>
        <pt x="1393" y="504" on="0"/>
      </contour>
    </TTGlyph>
    <TTGlyph name="Dcaron" xMin="90" yMin="-49" xMax="1731" yMax="2019">
      <component glyphName="D" x="0" y="0" flags="0x204"/>
      <component glyphName="caron" x="956" y="541" flags="0x4"/>
    </TTGlyph>
    <TTGlyph name="Dcroat" xMin="18" yMin="-49" xMax="1925" yMax="2019">
      <component glyphName="Eth" x="0" y="0" flags="0x204"/>
    </TTGlyph>
    <TTGlyph name="E" xMin="98" yMin="-51" xMax="1417" yMax="1438">
      <contour>
        <pt x="1372" y="1114" on="1"/>
        <pt x="1343" y="1177" on="0"/>
        <pt x="1250" y="1275" on="0"/>
        <pt x="1135" y="1343" on="0"/>
        <pt x="1007" y="1378" on="0"/>
        <pt x="944" y="1378" on="1"/>
        <pt x="875" y="1378" on="0"/>
        <pt x="753" y="1329" on="0"/>
        <pt x="648" y="1244" on="0"/>
        <pt x="562" y="1127" on="0"/>
        <pt x="497" y="992" on="0"/>
        <pt x="455" y="844" on="0"/>
        <pt x="446" y="770" on="1"/>
        <pt x="1298" y="770" on="1"/>
        <pt x="1277" y="728" on="0"/>
        <pt x="1255" y="635" on="0"/>
        <pt x="1250" y="595" on="1"/>
        <pt x="1244" y="548" on="0"/>
        <pt x="1243" y="504" on="1"/>
        <pt x="1210" y="498" on="1"/>
        <pt x="1197" y="562" on="0"/>
        <pt x="1159" y="646" on="0"/>
        <pt x="1083" y="694" on="0"/>
        <pt x="956" y="713" on="0"/>
        <pt x="854" y="713" on="1"/>
        <pt x="440" y="713" on="1"/>
        <pt x="440" y="670" on="1"/>
        <pt x="440" y="589" on="0"/>
        <pt x="478" y="433" on="0"/>
        <pt x="548" y="292" on="0"/>
        <pt x="650" y="174" on="0"/>
        <pt x="776" y="87" on="0"/>
        <pt x="926" y="39" on="0"/>
        <pt x="1010" y="39" on="1"/>
        <pt x="1086" y="39" on="0"/>
        <pt x="1202" y="68" on="0"/>
        <pt x="1287" y="112" on="0"/>
        <pt x="1345" y="165" on="0"/>
        <pt x="1383" y="213" on="0"/>
        <pt x="1402" y="250" on="0"/>
        <pt x="1407" y="256" on="1"/>
        <pt x="1391" y="115" on="1"/>
        <pt x="1368" y="83" on="0"/>
        <pt x="1280" y="24" on="0"/>
        <pt x="1159" y="-23" on="0"/>
        <pt x="1009" y="-51" on="0"/>
        <pt x="922" y="-51" on="1"/>
        <pt x="755" y="-51" on="0"/>
        <pt x="458" y="47" on="0"/>
        <pt x="233" y="227" on="0"/>
        <pt x="100" y="482" on="0"/>
        <pt x="98" y="639" on="1"/>
        <pt x="101" y="801" on="0"/>
        <pt x="208" y="1060" on="0"/>
        <pt x="387" y="1253" on="0"/>
        <pt x="625" y="1380" on="0"/>
        <pt x="760" y="1411" on="1"/>
        <pt x="831" y="1428" on="0"/>
        <pt x="1015" y="1438" on="0"/>
        <pt x="1108" y="1438" on="1"/>
        <pt x="1198" y="1438" on="0"/>
        <pt x="1357" y="1434" on="0"/>
        <pt x="1411" y="1434" on="1"/>
        <pt x="1400" y="1387" on="0"/>
        <pt x="1391" y="1314" on="0"/>
        <pt x="1391" y="1282" on="1"/>
        <pt x="1391" y="1237" on="0"/>
        <pt x="1405" y="1160" on="0"/>
        <pt x="1417" y="1116" on="1"/>
      </contour>
    </TTGlyph>
    <TTGlyph name="Eacute" xMin="98" yMin="-51" xMax="1417" yMax="1829">
      <component glyphName="E" x="0" y="0" flags="0x204"/>
      <component glyphName="acute" x="807" y="354" flags="0x4"/>
    </TTGlyph>
    <TTGlyph name="Ebreve" xMin="98" yMin="-51" xMax="1417" yMax="1823">
      <component glyphName="E" x="0" y="0" flags="0x204"/>
      <component glyphName="breve" x="647" y="348" flags="0x4"/>
    </TTGlyph>
    <TTGlyph name="Ecaron" xMin="98" yMin="-51" xMax="1417" yMax="1835">
      <component glyphName="E" x="0" y="0" flags="0x204"/>
      <component glyphName="caron" x="655" y="360" flags="0x4"/>
    </TTGlyph>
    <TTGlyph name="Ecircumflex" xMin="98" yMin="-51" xMax="1417" yMax="1829">
      <component glyphName="E" x="0" y="0" flags="0x204"/>
      <component glyphName="circumflex" x="625" y="354" flags="0x4"/>
    </TTGlyph>
    <TTGlyph name="Edieresis" xMin="98" yMin="-51" xMax="1417" yMax="1788">
      <component glyphName="E" x="0" y="0" flags="0x204"/>
      <component glyphName="dieresis" x="598" y="354" flags="0x4"/>
    </TTGlyph>
    <TTGlyph name="Edotaccent" xMin="98" yMin="-51" xMax="1417" yMax="1766">
      <component glyphName="E" x="0" y="0" flags="0x204"/>
      <component glyphName="dotaccent" x="815" y="332" flags="0x4"/>
    </TTGlyph>
    <TTGlyph name="Egrave" xMin="98" yMin="-51" xMax="1417" yMax="1829">
      <component glyphName="E" x="0" y="0" flags="0x204"/>
      <component glyphName="grave" x="545" y="354" flags="0x4"/>
    </TTGlyph>
    <TTGlyph name="Emacron" xMin="98" yMin="-51" xMax="1417" yMax="1638">
      <component glyphName="E" x="0" y="0" flags="0x204"/>
      <component glyphName="macron" x="625" y="299" flags="0x4"/>
    </TTGlyph>
    <TTGlyph name="Eng" xMin="82" yMin="-594" xMax="1833" yMax="1434">
      <contour>
        <pt x="1163" y="1434" on="1"/>
        <pt x="1833" y="1434" on="1"/>
        <pt x="1833" y="1397" on="1"/>
        <pt x="1780" y="1397" on="0"/>
        <pt x="1712" y="1375" on="0"/>
        <pt x="1672" y="1337" on="0"/>
        <pt x="1657" y="1289" on="0"/>
        <pt x="1657" y="1262" on="1"/>
        <pt x="1657" y="573" on="1"/>
        <pt x="1657" y="393" on="0"/>
        <pt x="1605" y="102" on="0"/>
        <pt x="1521" y="-129" on="0"/>
        <pt x="1413" y="-306" on="0"/>
        <pt x="1357" y="-370" on="1"/>
        <pt x="1225" y="-521" on="0"/>
        <pt x="1057" y="-594" on="1"/>
        <pt x="1038" y="-561" on="1"/>
        <pt x="1096" y="-507" on="0"/>
        <pt x="1149" y="-423" on="1"/>
        <pt x="1171" y="-387" on="0"/>
        <pt x="1219" y="-296" on="0"/>
        <pt x="1263" y="-183" on="0"/>
        <pt x="1301" y="-48" on="0"/>
        <pt x="1315" y="31" on="1"/>
        <pt x="348" y="1198" on="1"/>
        <pt x="348" y="176" on="1"/>
        <pt x="348" y="156" on="0"/>
        <pt x="361" y="108" on="0"/>
        <pt x="398" y="66" on="0"/>
        <pt x="467" y="37" on="0"/>
        <pt x="524" y="37" on="1"/>
        <pt x="524" y="0" on="1"/>
        <pt x="82" y="0" on="1"/>
        <pt x="82" y="37" on="1"/>
        <pt x="136" y="37" on="0"/>
        <pt x="205" y="60" on="0"/>
        <pt x="244" y="98" on="0"/>
        <pt x="258" y="148" on="0"/>
        <pt x="258" y="176" on="1"/>
        <pt x="258" y="1307" on="1"/>
        <pt x="234" y="1334" on="0"/>
        <pt x="194" y="1368" on="0"/>
        <pt x="153" y="1389" on="0"/>
        <pt x="109" y="1397" on="0"/>
        <pt x="82" y="1397" on="1"/>
        <pt x="82" y="1434" on="1"/>
        <pt x="584" y="1434" on="1"/>
        <pt x="1339" y="516" on="1"/>
        <pt x="1339" y="1266" on="1"/>
        <pt x="1339" y="1285" on="0"/>
        <pt x="1325" y="1330" on="0"/>
        <pt x="1288" y="1369" on="0"/>
        <pt x="1224" y="1395" on="0"/>
        <pt x="1174" y="1397" on="1"/>
        <pt x="1165" y="1397" on="1"/>
        <pt x="1163" y="1397" on="1"/>
      </contour>
    </TTGlyph>
    <TTGlyph name="Eogonek" xMin="98" yMin="-418" xMax="1417" yMax="1438">
      <contour>
        <pt x="1417" y="-223" on="1"/>
        <pt x="1417" y="-263" on="0"/>
        <pt x="1387" y="-334" on="0"/>
        <pt x="1335" y="-387" on="0"/>
        <pt x="1265" y="-418" on="0"/>
        <pt x="1225" y="-418" on="1"/>
        <pt x="1174" y="-418" on="0"/>
        <pt x="1089" y="-386" on="0"/>
        <pt x="1026" y="-328" on="0"/>
        <pt x="991" y="-244" on="0"/>
        <pt x="991" y="-193" on="1"/>
        <pt x="991" y="-152" on="0"/>
        <pt x="1032" y="-73" on="0"/>
        <pt x="1067" y="-39" on="1"/>
        <pt x="999" y="-51" on="0"/>
        <pt x="922" y="-51" on="1"/>
        <pt x="755" y="-51" on="0"/>
        <pt x="458" y="47" on="0"/>
        <pt x="233" y="227" on="0"/>
        <pt x="100" y="482" on="0"/>
        <pt x="98" y="639" on="1"/>
        <pt x="101" y="801" on="0"/>
        <pt x="208" y="1060" on="0"/>
        <pt x="387" y="1253" on="0"/>
        <pt x="625" y="1380" on="0"/>
        <pt x="760" y="1411" on="1"/>
        <pt x="831" y="1428" on="0"/>
        <pt x="1015" y="1438" on="0"/>
        <pt x="1108" y="1438" on="1"/>
        <pt x="1198" y="1438" on="0"/>
        <pt x="1357" y="1434" on="0"/>
        <pt x="1411" y="1434" on="1"/>
        <pt x="1400" y="1387" on="0"/>
        <pt x="1391" y="1314" on="0"/>
        <pt x="1391" y="1282" on="1"/>
        <pt x="1391" y="1237" on="0"/>
        <pt x="1405" y="1160" on="0"/>
        <pt x="1417" y="1116" on="1"/>
        <pt x="1372" y="1114" on="1"/>
        <pt x="1343" y="1177" on="0"/>
        <pt x="1250" y="1275" on="0"/>
        <pt x="1135" y="1343" on="0"/>
        <pt x="1007" y="1378" on="0"/>
        <pt x="944" y="1378" on="1"/>
        <pt x="875" y="1378" on="0"/>
        <pt x="753" y="1329" on="0"/>
        <pt x="648" y="1244" on="0"/>
        <pt x="562" y="1127" on="0"/>
        <pt x="497" y="992" on="0"/>
        <pt x="455" y="844" on="0"/>
        <pt x="446" y="770" on="1"/>
        <pt x="1298" y="770" on="1"/>
        <pt x="1277" y="728" on="0"/>
        <pt x="1255" y="635" on="0"/>
        <pt x="1250" y="595" on="1"/>
        <pt x="1244" y="548" on="0"/>
        <pt x="1243" y="504" on="1"/>
        <pt x="1210" y="498" on="1"/>
        <pt x="1197" y="562" on="0"/>
        <pt x="1159" y="646" on="0"/>
        <pt x="1083" y="694" on="0"/>
        <pt x="956" y="713" on="0"/>
        <pt x="854" y="713" on="1"/>
        <pt x="440" y="713" on="1"/>
        <pt x="440" y="670" on="1"/>
        <pt x="440" y="589" on="0"/>
        <pt x="478" y="433" on="0"/>
        <pt x="548" y="292" on="0"/>
        <pt x="650" y="174" on="0"/>
        <pt x="776" y="87" on="0"/>
        <pt x="926" y="39" on="0"/>
        <pt x="1010" y="39" on="1"/>
        <pt x="1086" y="39" on="0"/>
        <pt x="1202" y="68" on="0"/>
        <pt x="1287" y="112" on="0"/>
        <pt x="1345" y="165" on="0"/>
        <pt x="1383" y="213" on="0"/>
        <pt x="1402" y="250" on="0"/>
        <pt x="1407" y="256" on="1"/>
        <pt x="1391" y="115" on="1"/>
        <pt x="1368" y="83" on="0"/>
        <pt x="1278" y="22" on="0"/>
        <pt x="1217" y="0" on="1"/>
        <pt x="1166" y="-38" on="0"/>
        <pt x="1120" y="-142" on="0"/>
        <pt x="1120" y="-193" on="1"/>
        <pt x="1120" y="-232" on="0"/>
        <pt x="1139" y="-295" on="0"/>
        <pt x="1169" y="-338" on="0"/>
        <pt x="1208" y="-362" on="0"/>
        <pt x="1229" y="-362" on="1"/>
        <pt x="1263" y="-362" on="0"/>
        <pt x="1314" y="-330" on="0"/>
        <pt x="1348" y="-285" on="0"/>
        <pt x="1365" y="-238" on="0"/>
        <pt x="1366" y="-223" on="1"/>
      </contour>
    </TTGlyph>
    <TTGlyph name="Eth" xMin="18" yMin="-49" xMax="1925" yMax="2019">
      <contour>
        <pt x="301" y="758" on="1"/>
        <pt x="327" y="869" on="0"/>
        <pt x="461" y="1068" on="0"/>
        <pt x="667" y="1233" on="0"/>
        <pt x="937" y="1361" on="0"/>
        <pt x="1100" y="1403" on="1"/>
        <pt x="1024" y="1456" on="1"/>
        <pt x="953" y="1504" on="0"/>
        <pt x="891" y="1635" on="0"/>
        <pt x="891" y="1704" on="1"/>
        <pt x="891" y="1754" on="0"/>
        <pt x="920" y="1852" on="0"/>
        <pt x="971" y="1936" on="0"/>
        <pt x="1042" y="2001" on="0"/>
        <pt x="1083" y="2019" on="1"/>
        <pt x="1108" y="1982" on="1"/>
        <pt x="1040" y="1934" on="0"/>
        <pt x="1040" y="1872" on="1"/>
        <pt x="1040" y="1815" on="0"/>
        <pt x="1144" y="1685" on="0"/>
        <pt x="1243" y="1614" on="1"/>
        <pt x="1411" y="1492" on="0"/>
        <pt x="1664" y="1277" on="0"/>
        <pt x="1835" y="1065" on="0"/>
        <pt x="1923" y="846" on="0"/>
        <pt x="1925" y="719" on="1"/>
        <pt x="1925" y="590" on="0"/>
        <pt x="1851" y="377" on="0"/>
        <pt x="1721" y="206" on="0"/>
        <pt x="1543" y="78" on="0"/>
        <pt x="1335" y="-7" on="0"/>
        <pt x="1107" y="-49" on="0"/>
        <pt x="991" y="-49" on="1"/>
        <pt x="846" y="-49" on="0"/>
        <pt x="589" y="49" on="0"/>
        <pt x="397" y="226" on="0"/>
        <pt x="285" y="470" on="0"/>
        <pt x="285" y="616" on="1"/>
        <pt x="285" y="623" on="1"/>
        <pt x="18" y="623" on="1"/>
        <pt x="18" y="758" on="1"/>
      </contour>
      <contour>
        <pt x="1587" y="637" on="1"/>
        <pt x="1587" y="737" on="0"/>
        <pt x="1545" y="916" on="0"/>
        <pt x="1447" y="1088" on="0"/>
        <pt x="1288" y="1258" on="0"/>
        <pt x="1171" y="1348" on="1"/>
        <pt x="1065" y="1325" on="0"/>
        <pt x="882" y="1213" on="0"/>
        <pt x="741" y="1055" on="0"/>
        <pt x="647" y="861" on="0"/>
        <pt x="631" y="758" on="1"/>
        <pt x="942" y="758" on="1"/>
        <pt x="942" y="623" on="1"/>
        <pt x="623" y="623" on="1"/>
        <pt x="628" y="511" on="0"/>
        <pt x="707" y="301" on="0"/>
        <pt x="843" y="139" on="0"/>
        <pt x="1029" y="41" on="0"/>
        <pt x="1141" y="41" on="1"/>
        <pt x="1234" y="41" on="0"/>
        <pt x="1397" y="128" on="0"/>
        <pt x="1517" y="285" on="0"/>
        <pt x="1587" y="504" on="0"/>
      </contour>
    </TTGlyph>
    <TTGlyph name="Euro" xMin="88" yMin="313" xMax="1016" yMax="1096">
      <contour>
        <pt x="299" y="799" on="1"/>
        <pt x="321" y="885" on="0"/>
        <pt x="423" y="999" on="0"/>
        <pt x="568" y="1068" on="0"/>
        <pt x="750" y="1096" on="0"/>
        <pt x="852" y="1096" on="1"/>
        <pt x="903" y="1096" on="0"/>
        <pt x="982" y="1094" on="0"/>
        <pt x="1014" y="1094" on="1"/>
        <pt x="1008" y="1069" on="0"/>
        <pt x="1001" y="1014" on="0"/>
        <pt x="1001" y="995" on="1"/>
        <pt x="1001" y="971" on="0"/>
        <pt x="1010" y="928" on="0"/>
        <pt x="1016" y="905" on="1"/>
        <pt x="993" y="903" on="1"/>
        <pt x="978" y="936" on="0"/>
        <pt x="927" y="988" on="0"/>
        <pt x="866" y="1023" on="0"/>
        <pt x="799" y="1042" on="0"/>
        <pt x="768" y="1042" on="1"/>
        <pt x="719" y="1042" on="0"/>
        <pt x="635" y="1002" on="0"/>
        <pt x="567" y="935" on="0"/>
        <pt x="519" y="847" on="0"/>
        <pt x="506" y="799" on="1"/>
        <pt x="723" y="799" on="1"/>
        <pt x="700" y="725" on="1"/>
        <pt x="494" y="725" on="1"/>
        <pt x="494" y="694" on="1"/>
        <pt x="494" y="683" on="0"/>
        <pt x="494" y="665" on="0"/>
        <pt x="496" y="655" on="1"/>
        <pt x="682" y="655" on="1"/>
        <pt x="662" y="582" on="1"/>
        <pt x="510" y="582" on="1"/>
        <pt x="525" y="536" on="0"/>
        <pt x="579" y="457" on="0"/>
        <pt x="654" y="400" on="0"/>
        <pt x="749" y="367" on="0"/>
        <pt x="805" y="367" on="1"/>
        <pt x="863" y="367" on="0"/>
        <pt x="941" y="400" on="0"/>
        <pt x="988" y="442" on="0"/>
        <pt x="1010" y="478" on="0"/>
        <pt x="1012" y="481" on="1"/>
        <pt x="1001" y="401" on="1"/>
        <pt x="975" y="364" on="0"/>
        <pt x="841" y="313" on="0"/>
        <pt x="750" y="313" on="1"/>
        <pt x="660" y="313" on="0"/>
        <pt x="507" y="346" on="0"/>
        <pt x="388" y="412" on="0"/>
        <pt x="309" y="513" on="0"/>
        <pt x="293" y="582" on="1"/>
        <pt x="88" y="582" on="1"/>
        <pt x="109" y="655" on="1"/>
        <pt x="283" y="655" on="1"/>
        <pt x="283" y="676" on="1"/>
        <pt x="283" y="688" on="0"/>
        <pt x="283" y="713" on="0"/>
        <pt x="285" y="725" on="1"/>
        <pt x="127" y="725" on="1"/>
        <pt x="150" y="799" on="1"/>
      </contour>
    </TTGlyph>
    <TTGlyph name="F" xMin="68" yMin="-553" xMax="1335" yMax="1434">
      <contour>
        <pt x="68" y="1434" on="1"/>
        <pt x="1335" y="1434" on="1"/>
        <pt x="1315" y="1394" on="0"/>
        <pt x="1294" y="1303" on="0"/>
        <pt x="1284" y="1225" on="0"/>
        <pt x="1282" y="1171" on="0"/>
        <pt x="1282" y="1167" on="1"/>
        <pt x="1247" y="1161" on="1"/>
        <pt x="1233" y="1228" on="0"/>
        <pt x="1159" y="1312" on="0"/>
        <pt x="1059" y="1359" on="0"/>
        <pt x="945" y="1376" on="0"/>
        <pt x="891" y="1376" on="1"/>
        <pt x="561" y="1376" on="1"/>
        <pt x="561" y="647" on="1"/>
        <pt x="1206" y="647" on="1"/>
        <pt x="1185" y="605" on="0"/>
        <pt x="1163" y="513" on="0"/>
        <pt x="1158" y="473" on="1"/>
        <pt x="1152" y="426" on="0"/>
        <pt x="1151" y="381" on="1"/>
        <pt x="1118" y="375" on="1"/>
        <pt x="1107" y="429" on="0"/>
        <pt x="1077" y="502" on="0"/>
        <pt x="1026" y="550" on="0"/>
        <pt x="949" y="576" on="0"/>
        <pt x="833" y="588" on="0"/>
        <pt x="671" y="590" on="0"/>
        <pt x="561" y="590" on="1"/>
        <pt x="561" y="-113" on="1"/>
        <pt x="561" y="-135" on="0"/>
        <pt x="527" y="-190" on="0"/>
        <pt x="473" y="-256" on="0"/>
        <pt x="404" y="-331" on="0"/>
        <pt x="334" y="-414" on="0"/>
        <pt x="268" y="-505" on="0"/>
        <pt x="244" y="-553" on="1"/>
        <pt x="244" y="1266" on="1"/>
        <pt x="244" y="1286" on="0"/>
        <pt x="229" y="1332" on="0"/>
        <pt x="190" y="1371" on="0"/>
        <pt x="122" y="1397" on="0"/>
        <pt x="68" y="1397" on="1"/>
      </contour>
    </TTGlyph>
    <TTGlyph name="G" xMin="98" yMin="-51" xMax="1659" yMax="1438">
      <contour>
        <pt x="733" y="606" on="1"/>
        <pt x="761" y="634" on="0"/>
        <pt x="853" y="705" on="0"/>
        <pt x="984" y="767" on="0"/>
        <pt x="1153" y="809" on="0"/>
        <pt x="1257" y="809" on="1"/>
        <pt x="1332" y="809" on="0"/>
        <pt x="1476" y="772" on="0"/>
        <pt x="1589" y="690" on="0"/>
        <pt x="1659" y="559" on="0"/>
        <pt x="1659" y="465" on="1"/>
        <pt x="1659" y="388" on="0"/>
        <pt x="1593" y="252" on="0"/>
        <pt x="1477" y="137" on="0"/>
        <pt x="1321" y="46" on="0"/>
        <pt x="1142" y="-17" on="0"/>
        <pt x="948" y="-51" on="0"/>
        <pt x="852" y="-51" on="1"/>
        <pt x="747" y="-51" on="0"/>
        <pt x="555" y="-9" on="0"/>
        <pt x="387" y="72" on="0"/>
        <pt x="250" y="191" on="0"/>
        <pt x="152" y="344" on="0"/>
        <pt x="98" y="531" on="0"/>
        <pt x="98" y="639" on="1"/>
        <pt x="100" y="748" on="0"/>
        <pt x="157" y="936" on="0"/>
        <pt x="254" y="1094" on="0"/>
        <pt x="387" y="1223" on="0"/>
        <pt x="542" y="1322" on="0"/>
        <pt x="713" y="1391" on="0"/>
        <pt x="801" y="1411" on="1"/>
        <pt x="837" y="1420" on="0"/>
        <pt x="922" y="1430" on="0"/>
        <pt x="1013" y="1436" on="0"/>
        <pt x="1109" y="1438" on="0"/>
        <pt x="1157" y="1438" on="1"/>
        <pt x="1248" y="1438" on="0"/>
        <pt x="1413" y="1434" on="0"/>
        <pt x="1468" y="1434" on="1"/>
        <pt x="1457" y="1387" on="0"/>
        <pt x="1448" y="1314" on="0"/>
        <pt x="1448" y="1282" on="1"/>
        <pt x="1448" y="1237" on="0"/>
        <pt x="1462" y="1160" on="0"/>
        <pt x="1475" y="1116" on="1"/>
        <pt x="1430" y="1114" on="1"/>
        <pt x="1400" y="1178" on="0"/>
        <pt x="1304" y="1275" on="0"/>
        <pt x="1188" y="1340" on="0"/>
        <pt x="1057" y="1372" on="0"/>
        <pt x="993" y="1372" on="1"/>
        <pt x="888" y="1372" on="0"/>
        <pt x="725" y="1304" on="0"/>
        <pt x="602" y="1191" on="0"/>
        <pt x="517" y="1045" on="0"/>
        <pt x="464" y="888" on="0"/>
        <pt x="440" y="732" on="0"/>
        <pt x="440" y="666" on="1"/>
        <pt x="440" y="531" on="0"/>
        <pt x="518" y="302" on="0"/>
        <pt x="655" y="135" on="0"/>
        <pt x="842" y="41" on="0"/>
        <pt x="952" y="41" on="1"/>
        <pt x="1030" y="41" on="0"/>
        <pt x="1148" y="78" on="0"/>
        <pt x="1233" y="138" on="0"/>
        <pt x="1290" y="217" on="0"/>
        <pt x="1323" y="301" on="0"/>
        <pt x="1337" y="385" on="0"/>
        <pt x="1337" y="420" on="1"/>
        <pt x="1337" y="478" on="0"/>
        <pt x="1299" y="582" on="0"/>
        <pt x="1227" y="660" on="0"/>
        <pt x="1122" y="705" on="0"/>
        <pt x="1055" y="705" on="1"/>
        <pt x="996" y="705" on="0"/>
        <pt x="896" y="674" on="0"/>
        <pt x="819" y="634" on="0"/>
        <pt x="766" y="592" on="0"/>
        <pt x="754" y="582" on="1"/>
      </contour>
    </TTGlyph>
    <TTGlyph name="Gbreve" xMin="98" yMin="-51" xMax="1659" yMax="1807">
      <component glyphName="G" x="0" y="0" flags="0x204"/>
      <component glyphName="breve" x="688" y="332" flags="0x4"/>
    </TTGlyph>
    <TTGlyph name="Gcircumflex" xMin="98" yMin="-51" xMax="1659" yMax="1842">
      <component glyphName="G" x="0" y="0" flags="0x204"/>
      <component glyphName="circumflex" x="694" y="367" flags="0x4"/>
    </TTGlyph>
    <TTGlyph name="Gcommaaccent" xMin="98" yMin="-492" xMax="1659" yMax="1438">
      <component glyphName="G" x="0" y="0" flags="0x204"/>
      <component glyphName="uni0326" x="662" y="0" flags="0x4"/>
    </TTGlyph>
    <TTGlyph name="Gdotaccent" xMin="98" yMin="-51" xMax="1659" yMax="1766">
      <component glyphName="G" x="0" y="0" flags="0x204"/>
      <component glyphName="dotaccent" x="807" y="332" flags="0x4"/>
    </TTGlyph>
    <TTGlyph name="H" xMin="68" yMin="-66" xMax="1726" yMax="1841">
      <contour>
        <pt x="737" y="0" on="1"/>
        <pt x="68" y="0" on="1"/>
        <pt x="68" y="37" on="1"/>
        <pt x="122" y="37" on="0"/>
        <pt x="191" y="60" on="0"/>
        <pt x="230" y="98" on="0"/>
        <pt x="244" y="148" on="0"/>
        <pt x="244" y="176" on="1"/>
        <pt x="244" y="1673" on="1"/>
        <pt x="244" y="1693" on="0"/>
        <pt x="229" y="1739" on="0"/>
        <pt x="190" y="1778" on="0"/>
        <pt x="122" y="1804" on="0"/>
        <pt x="68" y="1804" on="1"/>
        <pt x="68" y="1841" on="1"/>
        <pt x="561" y="1841" on="1"/>
        <pt x="561" y="1329" on="1"/>
        <pt x="595" y="1358" on="0"/>
        <pt x="682" y="1411" on="0"/>
        <pt x="787" y="1451" on="0"/>
        <pt x="912" y="1475" on="0"/>
        <pt x="985" y="1475" on="1"/>
        <pt x="1075" y="1475" on="0"/>
        <pt x="1255" y="1437" on="0"/>
        <pt x="1420" y="1361" on="0"/>
        <pt x="1562" y="1248" on="0"/>
        <pt x="1666" y="1098" on="0"/>
        <pt x="1726" y="912" on="0"/>
        <pt x="1726" y="801" on="1"/>
        <pt x="1726" y="680" on="0"/>
        <pt x="1658" y="477" on="0"/>
        <pt x="1547" y="310" on="0"/>
        <pt x="1405" y="177" on="0"/>
        <pt x="1331" y="126" on="1"/>
        <pt x="1157" y="6" on="0"/>
        <pt x="936" y="-66" on="1"/>
        <pt x="907" y="-41" on="1"/>
        <pt x="1038" y="34" on="0"/>
        <pt x="1141" y="155" on="1"/>
        <pt x="1185" y="206" on="0"/>
        <pt x="1269" y="340" on="0"/>
        <pt x="1335" y="506" on="0"/>
        <pt x="1376" y="705" on="0"/>
        <pt x="1376" y="823" on="1"/>
        <pt x="1376" y="968" on="0"/>
        <pt x="1313" y="1186" on="0"/>
        <pt x="1201" y="1331" on="0"/>
        <pt x="1048" y="1403" on="0"/>
        <pt x="958" y="1403" on="1"/>
        <pt x="877" y="1403" on="0"/>
        <pt x="734" y="1346" on="0"/>
        <pt x="628" y="1241" on="0"/>
        <pt x="564" y="1092" on="0"/>
        <pt x="561" y="999" on="1"/>
        <pt x="561" y="176" on="1"/>
        <pt x="561" y="156" on="0"/>
        <pt x="574" y="108" on="0"/>
        <pt x="611" y="66" on="0"/>
        <pt x="680" y="37" on="0"/>
        <pt x="737" y="37" on="1"/>
      </contour>
    </TTGlyph>
    <TTGlyph name="Hbar" xMin="0" yMin="-66" xMax="1726" yMax="1841">
      <contour>
        <pt x="737" y="0" on="1"/>
        <pt x="68" y="0" on="1"/>
        <pt x="68" y="37" on="1"/>
        <pt x="122" y="37" on="0"/>
        <pt x="191" y="60" on="0"/>
        <pt x="230" y="98" on="0"/>
        <pt x="244" y="148" on="0"/>
        <pt x="244" y="176" on="1"/>
        <pt x="244" y="649" on="1"/>
        <pt x="0" y="649" on="1"/>
        <pt x="0" y="784" on="1"/>
        <pt x="244" y="784" on="1"/>
        <pt x="244" y="1673" on="1"/>
        <pt x="244" y="1693" on="0"/>
        <pt x="229" y="1739" on="0"/>
        <pt x="190" y="1778" on="0"/>
        <pt x="122" y="1804" on="0"/>
        <pt x="68" y="1804" on="1"/>
        <pt x="68" y="1841" on="1"/>
        <pt x="561" y="1841" on="1"/>
        <pt x="561" y="1329" on="1"/>
        <pt x="595" y="1358" on="0"/>
        <pt x="682" y="1411" on="0"/>
        <pt x="787" y="1451" on="0"/>
        <pt x="912" y="1475" on="0"/>
        <pt x="985" y="1475" on="1"/>
        <pt x="1075" y="1475" on="0"/>
        <pt x="1255" y="1437" on="0"/>
        <pt x="1420" y="1361" on="0"/>
        <pt x="1562" y="1248" on="0"/>
        <pt x="1666" y="1098" on="0"/>
        <pt x="1726" y="912" on="0"/>
        <pt x="1726" y="801" on="1"/>
        <pt x="1726" y="680" on="0"/>
        <pt x="1658" y="477" on="0"/>
        <pt x="1547" y="310" on="0"/>
        <pt x="1405" y="177" on="0"/>
        <pt x="1331" y="126" on="1"/>
        <pt x="1157" y="6" on="0"/>
        <pt x="936" y="-66" on="1"/>
        <pt x="907" y="-41" on="1"/>
        <pt x="1038" y="34" on="0"/>
        <pt x="1141" y="155" on="1"/>
        <pt x="1185" y="206" on="0"/>
        <pt x="1269" y="340" on="0"/>
        <pt x="1335" y="506" on="0"/>
        <pt x="1376" y="705" on="0"/>
        <pt x="1376" y="823" on="1"/>
        <pt x="1376" y="968" on="0"/>
        <pt x="1313" y="1186" on="0"/>
        <pt x="1201" y="1331" on="0"/>
        <pt x="1048" y="1403" on="0"/>
        <pt x="958" y="1403" on="1"/>
        <pt x="877" y="1403" on="0"/>
        <pt x="734" y="1346" on="0"/>
        <pt x="628" y="1241" on="0"/>
        <pt x="564" y="1092" on="0"/>
        <pt x="561" y="999" on="1"/>
        <pt x="561" y="784" on="1"/>
        <pt x="799" y="784" on="1"/>
        <pt x="799" y="649" on="1"/>
        <pt x="561" y="649" on="1"/>
        <pt x="561" y="176" on="1"/>
        <pt x="561" y="156" on="0"/>
        <pt x="574" y="108" on="0"/>
        <pt x="611" y="66" on="0"/>
        <pt x="680" y="37" on="0"/>
        <pt x="737" y="37" on="1"/>
      </contour>
    </TTGlyph>
    <TTGlyph name="Hcircumflex" xMin="68" yMin="-66" xMax="1726" yMax="1852">
      <component glyphName="H" x="0" y="0" flags="0x204"/>
      <component glyphName="circumflex" x="748" y="377" flags="0x4"/>
    </TTGlyph>
    <TTGlyph name="I" xMin="80" yMin="0" xMax="750" yMax="1434">
      <contour>
        <pt x="750" y="0" on="1"/>
        <pt x="80" y="0" on="1"/>
        <pt x="80" y="37" on="1"/>
        <pt x="134" y="37" on="0"/>
        <pt x="203" y="60" on="0"/>
        <pt x="242" y="98" on="0"/>
        <pt x="256" y="148" on="0"/>
        <pt x="256" y="176" on="1"/>
        <pt x="256" y="1266" on="1"/>
        <pt x="256" y="1286" on="0"/>
        <pt x="241" y="1332" on="0"/>
        <pt x="202" y="1371" on="0"/>
        <pt x="134" y="1397" on="0"/>
        <pt x="80" y="1397" on="1"/>
        <pt x="80" y="1434" on="1"/>
        <pt x="750" y="1434" on="1"/>
        <pt x="750" y="1397" on="1"/>
        <pt x="695" y="1397" on="0"/>
        <pt x="626" y="1374" on="0"/>
        <pt x="587" y="1335" on="0"/>
        <pt x="573" y="1285" on="0"/>
        <pt x="573" y="1257" on="1"/>
        <pt x="573" y="176" on="1"/>
        <pt x="573" y="156" on="0"/>
        <pt x="586" y="108" on="0"/>
        <pt x="623" y="66" on="0"/>
        <pt x="693" y="37" on="0"/>
        <pt x="750" y="37" on="1"/>
      </contour>
    </TTGlyph>
    <TTGlyph name="IJ" xMin="80" yMin="-594" xMax="1566" yMax="1434">
      <component glyphName="I" x="0" y="0" flags="0x4"/>
      <component glyphName="J" x="829" y="0" flags="0x4"/>
    </TTGlyph>
    <TTGlyph name="Iacute" xMin="80" yMin="0" xMax="786" yMax="1829">
      <component glyphName="I" x="0" y="0" flags="0x204"/>
      <component glyphName="acute" x="362" y="354" flags="0x4"/>
    </TTGlyph>
    <TTGlyph name="Ibreve" xMin="80" yMin="0" xMax="750" yMax="1807">
      <component glyphName="I" x="0" y="0" flags="0x204"/>
      <component glyphName="breve" x="164" y="332" flags="0x4"/>
    </TTGlyph>
    <TTGlyph name="Icircumflex" xMin="80" yMin="0" xMax="750" yMax="1829">
      <component glyphName="I" x="0" y="0" flags="0x204"/>
      <component glyphName="circumflex" x="152" y="354" flags="0x4"/>
    </TTGlyph>
    <TTGlyph name="Idieresis" xMin="80" yMin="0" xMax="750" yMax="1788">
      <component glyphName="I" x="0" y="0" flags="0x204"/>
      <component glyphName="dieresis" x="129" y="354" flags="0x4"/>
    </TTGlyph>
    <TTGlyph name="Idotaccent" xMin="80" yMin="0" xMax="750" yMax="1764">
      <component glyphName="I" x="0" y="0" flags="0x204"/>
      <component glyphName="dotaccent" x="301" y="330" flags="0x4"/>
    </TTGlyph>
    <TTGlyph name="Igrave" xMin="49" yMin="0" xMax="750" yMax="1829">
      <component glyphName="I" x="0" y="0" flags="0x204"/>
      <component glyphName="grave" x="49" y="354" flags="0x4"/>
    </TTGlyph>
    <TTGlyph name="Imacron" xMin="80" yMin="0" xMax="750" yMax="1630">
      <component glyphName="I" x="0" y="0" flags="0x204"/>
      <component glyphName="macron" x="141" y="291" flags="0x4"/>
    </TTGlyph>
    <TTGlyph name="Iogonek" xMin="80" yMin="-418" xMax="750" yMax="1434">
      <contour>
        <pt x="635" y="-223" on="1"/>
        <pt x="635" y="-263" on="0"/>
        <pt x="605" y="-334" on="0"/>
        <pt x="552" y="-387" on="0"/>
        <pt x="482" y="-418" on="0"/>
        <pt x="442" y="-418" on="1"/>
        <pt x="391" y="-418" on="0"/>
        <pt x="306" y="-386" on="0"/>
        <pt x="244" y="-328" on="0"/>
        <pt x="209" y="-244" on="0"/>
        <pt x="209" y="-193" on="1"/>
        <pt x="209" y="-166" on="0"/>
        <pt x="228" y="-112" on="0"/>
        <pt x="262" y="-61" on="0"/>
        <pt x="308" y="-17" on="0"/>
        <pt x="336" y="0" on="1"/>
        <pt x="80" y="0" on="1"/>
        <pt x="80" y="37" on="1"/>
        <pt x="134" y="37" on="0"/>
        <pt x="203" y="60" on="0"/>
        <pt x="242" y="98" on="0"/>
        <pt x="256" y="148" on="0"/>
        <pt x="256" y="176" on="1"/>
        <pt x="256" y="1266" on="1"/>
        <pt x="256" y="1286" on="0"/>
        <pt x="241" y="1332" on="0"/>
        <pt x="202" y="1371" on="0"/>
        <pt x="134" y="1397" on="0"/>
        <pt x="80" y="1397" on="1"/>
        <pt x="80" y="1434" on="1"/>
        <pt x="750" y="1434" on="1"/>
        <pt x="750" y="1397" on="1"/>
        <pt x="695" y="1397" on="0"/>
        <pt x="626" y="1374" on="0"/>
        <pt x="587" y="1335" on="0"/>
        <pt x="573" y="1285" on="0"/>
        <pt x="573" y="1257" on="1"/>
        <pt x="573" y="176" on="1"/>
        <pt x="573" y="156" on="0"/>
        <pt x="586" y="108" on="0"/>
        <pt x="623" y="66" on="0"/>
        <pt x="693" y="37" on="0"/>
        <pt x="750" y="37" on="1"/>
        <pt x="750" y="0" on="1"/>
        <pt x="436" y="0" on="1"/>
        <pt x="384" y="-38" on="0"/>
        <pt x="338" y="-142" on="0"/>
        <pt x="338" y="-193" on="1"/>
        <pt x="338" y="-232" on="0"/>
        <pt x="356" y="-295" on="0"/>
        <pt x="386" y="-338" on="0"/>
        <pt x="425" y="-362" on="0"/>
        <pt x="446" y="-362" on="1"/>
        <pt x="481" y="-362" on="0"/>
        <pt x="532" y="-330" on="0"/>
        <pt x="566" y="-285" on="0"/>
        <pt x="583" y="-238" on="0"/>
        <pt x="584" y="-223" on="1"/>
      </contour>
    </TTGlyph>
    <TTGlyph name="Itilde" xMin="76" yMin="0" xMax="752" yMax="1806">
      <component glyphName="I" x="0" y="0" flags="0x204"/>
      <component glyphName="tilde" x="76" y="352" flags="0x4"/>
    </TTGlyph>
    <TTGlyph name="J" xMin="-57" yMin="-594" xMax="737" yMax="1434">
      <contour>
        <pt x="68" y="1434" on="1"/>
        <pt x="737" y="1434" on="1"/>
        <pt x="737" y="1397" on="1"/>
        <pt x="684" y="1397" on="0"/>
        <pt x="616" y="1375" on="0"/>
        <pt x="576" y="1337" on="0"/>
        <pt x="561" y="1289" on="0"/>
        <pt x="561" y="1262" on="1"/>
        <pt x="561" y="573" on="1"/>
        <pt x="561" y="393" on="0"/>
        <pt x="509" y="102" on="0"/>
        <pt x="425" y="-129" on="0"/>
        <pt x="317" y="-306" on="0"/>
        <pt x="261" y="-370" on="1"/>
        <pt x="129" y="-521" on="0"/>
        <pt x="-39" y="-594" on="1"/>
        <pt x="-57" y="-561" on="1"/>
        <pt x="27" y="-481" on="0"/>
        <pt x="93" y="-354" on="1"/>
        <pt x="121" y="-300" on="0"/>
        <pt x="175" y="-162" on="0"/>
        <pt x="218" y="9" on="0"/>
        <pt x="244" y="214" on="0"/>
        <pt x="244" y="334" on="1"/>
        <pt x="244" y="1266" on="1"/>
        <pt x="244" y="1286" on="0"/>
        <pt x="229" y="1332" on="0"/>
        <pt x="190" y="1371" on="0"/>
        <pt x="122" y="1397" on="0"/>
        <pt x="68" y="1397" on="1"/>
      </contour>
    </TTGlyph>
    <TTGlyph name="Jcircumflex" xMin="-57" yMin="-594" xMax="737" yMax="1829">
      <component glyphName="J" x="0" y="0" flags="0x204"/>
      <component glyphName="circumflex" x="133" y="354" flags="0x4"/>
    </TTGlyph>
    <TTGlyph name="K" xMin="68" yMin="-51" xMax="1700" yMax="1841">
      <contour>
        <pt x="737" y="0" on="1"/>
        <pt x="68" y="0" on="1"/>
        <pt x="68" y="37" on="1"/>
        <pt x="121" y="37" on="0"/>
        <pt x="189" y="58" on="0"/>
        <pt x="229" y="95" on="0"/>
        <pt x="244" y="143" on="0"/>
        <pt x="244" y="170" on="1"/>
        <pt x="244" y="1673" on="1"/>
        <pt x="244" y="1693" on="0"/>
        <pt x="229" y="1739" on="0"/>
        <pt x="190" y="1778" on="0"/>
        <pt x="122" y="1804" on="0"/>
        <pt x="68" y="1804" on="1"/>
        <pt x="68" y="1841" on="1"/>
        <pt x="561" y="1841" on="1"/>
        <pt x="561" y="176" on="1"/>
        <pt x="561" y="156" on="0"/>
        <pt x="574" y="108" on="0"/>
        <pt x="611" y="66" on="0"/>
        <pt x="680" y="37" on="0"/>
        <pt x="737" y="37" on="1"/>
      </contour>
      <contour>
        <pt x="1700" y="12" on="1"/>
        <pt x="1609" y="-25" on="0"/>
        <pt x="1452" y="-51" on="0"/>
        <pt x="1389" y="-51" on="1"/>
        <pt x="1300" y="-51" on="0"/>
        <pt x="1138" y="17" on="0"/>
        <pt x="993" y="129" on="0"/>
        <pt x="864" y="273" on="0"/>
        <pt x="749" y="424" on="0"/>
        <pt x="648" y="572" on="0"/>
        <pt x="604" y="631" on="1"/>
        <pt x="718" y="720" on="0"/>
        <pt x="819" y="822" on="1"/>
        <pt x="862" y="865" on="0"/>
        <pt x="951" y="966" on="0"/>
        <pt x="1032" y="1077" on="0"/>
        <pt x="1100" y="1196" on="0"/>
        <pt x="1122" y="1257" on="1"/>
        <pt x="1124" y="1262" on="0"/>
        <pt x="1126" y="1272" on="0"/>
        <pt x="1126" y="1278" on="1"/>
        <pt x="1126" y="1296" on="0"/>
        <pt x="1107" y="1338" on="0"/>
        <pt x="1064" y="1374" on="0"/>
        <pt x="995" y="1397" on="0"/>
        <pt x="946" y="1397" on="1"/>
        <pt x="946" y="1434" on="1"/>
        <pt x="1495" y="1434" on="1"/>
        <pt x="1462" y="1302" on="0"/>
        <pt x="1343" y="1081" on="0"/>
        <pt x="1190" y="901" on="0"/>
        <pt x="1013" y="763" on="0"/>
        <pt x="922" y="713" on="1"/>
        <pt x="1039" y="580" on="0"/>
        <pt x="1238" y="336" on="0"/>
        <pt x="1405" y="150" on="0"/>
        <pt x="1540" y="39" on="0"/>
        <pt x="1593" y="39" on="1"/>
        <pt x="1607" y="39" on="0"/>
        <pt x="1657" y="45" on="0"/>
        <pt x="1686" y="57" on="1"/>
      </contour>
    </TTGlyph>
    <TTGlyph name="Kcommaaccent" xMin="68" yMin="-492" xMax="1700" yMax="1841">
      <component glyphName="K" x="0" y="0" flags="0x204"/>
      <component glyphName="uni0326" x="629" y="0" flags="0x4"/>
    </TTGlyph>
    <TTGlyph name="L" xMin="68" yMin="-219" xMax="1288" yMax="1841">
      <contour>
        <pt x="68" y="1841" on="1"/>
        <pt x="561" y="1841" on="1"/>
        <pt x="561" y="78" on="1"/>
        <pt x="1288" y="78" on="1"/>
        <pt x="1250" y="41" on="0"/>
        <pt x="1198" y="-57" on="0"/>
        <pt x="1182" y="-102" on="1"/>
        <pt x="1164" y="-155" on="0"/>
        <pt x="1153" y="-209" on="1"/>
        <pt x="1106" y="-219" on="1"/>
        <pt x="1111" y="-201" on="0"/>
        <pt x="1114" y="-165" on="0"/>
        <pt x="1114" y="-150" on="1"/>
        <pt x="1114" y="-84" on="0"/>
        <pt x="1031" y="-20" on="0"/>
        <pt x="877" y="3" on="0"/>
        <pt x="655" y="0" on="0"/>
        <pt x="516" y="0" on="1"/>
        <pt x="68" y="0" on="1"/>
        <pt x="68" y="37" on="1"/>
        <pt x="121" y="37" on="0"/>
        <pt x="189" y="58" on="0"/>
        <pt x="229" y="95" on="0"/>
        <pt x="244" y="143" on="0"/>
        <pt x="244" y="170" on="1"/>
        <pt x="244" y="1673" on="1"/>
        <pt x="244" y="1693" on="0"/>
        <pt x="229" y="1739" on="0"/>
        <pt x="190" y="1778" on="0"/>
        <pt x="122" y="1804" on="0"/>
        <pt x="68" y="1804" on="1"/>
      </contour>
    </TTGlyph>
    <TTGlyph name="Lacute" xMin="68" yMin="-219" xMax="1288" yMax="2014">
      <component glyphName="L" x="0" y="0" flags="0x204"/>
      <component glyphName="acute" x="729" y="539" flags="0x4"/>
    </TTGlyph>
    <TTGlyph name="Lcaron" xMin="68" yMin="-219" xMax="1288" yMax="2009">
      <component glyphName="L" x="0" y="0" flags="0x204"/>
      <component glyphName="uni0315" x="641" y="434" flags="0x4"/>
    </TTGlyph>
    <TTGlyph name="Lcommaaccent" xMin="68" yMin="-492" xMax="1288" yMax="1841">
      <component glyphName="L" x="0" y="0" flags="0x204"/>
      <component glyphName="uni0326" x="424" y="0" flags="0x4"/>
    </TTGlyph>
    <TTGlyph name="Ldot" xMin="68" yMin="-219" xMax="1444" yMax="1841">
      <component glyphName="L" x="0" y="0" flags="0x4"/>
      <component glyphName="periodcentered" x="1016" y="0" flags="0x4"/>
    </TTGlyph>
    <TTGlyph name="Lslash" xMin="10" yMin="-219" xMax="1300" yMax="1841">
      <contour>
        <pt x="80" y="1841" on="1"/>
        <pt x="573" y="1841" on="1"/>
        <pt x="573" y="1038" on="1"/>
        <pt x="829" y="1167" on="1"/>
        <pt x="829" y="1032" on="1"/>
        <pt x="573" y="903" on="1"/>
        <pt x="573" y="78" on="1"/>
        <pt x="1300" y="78" on="1"/>
        <pt x="1262" y="41" on="0"/>
        <pt x="1210" y="-57" on="0"/>
        <pt x="1194" y="-102" on="1"/>
        <pt x="1176" y="-155" on="0"/>
        <pt x="1165" y="-209" on="1"/>
        <pt x="1118" y="-219" on="1"/>
        <pt x="1123" y="-201" on="0"/>
        <pt x="1126" y="-165" on="0"/>
        <pt x="1126" y="-150" on="1"/>
        <pt x="1126" y="-84" on="0"/>
        <pt x="1043" y="-20" on="0"/>
        <pt x="889" y="3" on="0"/>
        <pt x="667" y="0" on="0"/>
        <pt x="528" y="0" on="1"/>
        <pt x="80" y="0" on="1"/>
        <pt x="80" y="37" on="1"/>
        <pt x="133" y="37" on="0"/>
        <pt x="201" y="58" on="0"/>
        <pt x="241" y="95" on="0"/>
        <pt x="256" y="143" on="0"/>
        <pt x="256" y="170" on="1"/>
        <pt x="256" y="745" on="1"/>
        <pt x="10" y="623" on="1"/>
        <pt x="10" y="758" on="1"/>
        <pt x="256" y="881" on="1"/>
        <pt x="256" y="1673" on="1"/>
        <pt x="256" y="1693" on="0"/>
        <pt x="241" y="1739" on="0"/>
        <pt x="202" y="1778" on="0"/>
        <pt x="134" y="1804" on="0"/>
        <pt x="80" y="1804" on="1"/>
      </contour>
    </TTGlyph>
    <TTGlyph name="M" xMin="102" yMin="0" xMax="2519" yMax="1470">
      <contour>
        <pt x="1133" y="762" on="1"/>
        <pt x="1133" y="841" on="0"/>
        <pt x="1120" y="998" on="0"/>
        <pt x="1089" y="1141" on="0"/>
        <pt x="1040" y="1264" on="0"/>
        <pt x="968" y="1355" on="0"/>
        <pt x="871" y="1407" on="0"/>
        <pt x="809" y="1407" on="1"/>
        <pt x="720" y="1407" on="0"/>
        <pt x="579" y="1304" on="0"/>
        <pt x="479" y="1131" on="0"/>
        <pt x="426" y="906" on="0"/>
        <pt x="426" y="784" on="1"/>
        <pt x="426" y="649" on="0"/>
        <pt x="485" y="430" on="0"/>
        <pt x="575" y="258" on="0"/>
        <pt x="681" y="130" on="0"/>
        <pt x="774" y="46" on="0"/>
        <pt x="841" y="2" on="0"/>
        <pt x="846" y="0" on="1"/>
        <pt x="463" y="0" on="1"/>
        <pt x="444" y="9" on="0"/>
        <pt x="377" y="71" on="0"/>
        <pt x="296" y="169" on="0"/>
        <pt x="213" y="300" on="0"/>
        <pt x="145" y="455" on="0"/>
        <pt x="102" y="632" on="0"/>
        <pt x="102" y="727" on="1"/>
        <pt x="102" y="785" on="0"/>
        <pt x="123" y="941" on="0"/>
        <pt x="179" y="1106" on="0"/>
        <pt x="276" y="1266" on="0"/>
        <pt x="426" y="1392" on="0"/>
        <pt x="636" y="1470" on="0"/>
        <pt x="778" y="1470" on="1"/>
        <pt x="872" y="1470" on="0"/>
        <pt x="1025" y="1435" on="0"/>
        <pt x="1149" y="1374" on="0"/>
        <pt x="1245" y="1292" on="0"/>
        <pt x="1282" y="1245" on="1"/>
        <pt x="1319" y="1292" on="0"/>
        <pt x="1421" y="1374" on="0"/>
        <pt x="1553" y="1435" on="0"/>
        <pt x="1720" y="1470" on="0"/>
        <pt x="1823" y="1470" on="1"/>
        <pt x="1961" y="1470" on="0"/>
        <pt x="2172" y="1408" on="0"/>
        <pt x="2327" y="1303" on="0"/>
        <pt x="2430" y="1166" on="0"/>
        <pt x="2493" y="1017" on="0"/>
        <pt x="2519" y="864" on="0"/>
        <pt x="2519" y="797" on="1"/>
        <pt x="2519" y="671" on="0"/>
        <pt x="2443" y="464" on="0"/>
        <pt x="2323" y="299" on="0"/>
        <pt x="2174" y="171" on="0"/>
        <pt x="2028" y="78" on="0"/>
        <pt x="1901" y="17" on="0"/>
        <pt x="1862" y="0" on="1"/>
        <pt x="1774" y="0" on="1"/>
        <pt x="1779" y="2" on="0"/>
        <pt x="1845" y="47" on="0"/>
        <pt x="1939" y="133" on="0"/>
        <pt x="2045" y="263" on="0"/>
        <pt x="2135" y="439" on="0"/>
        <pt x="2195" y="662" on="0"/>
        <pt x="2195" y="799" on="1"/>
        <pt x="2195" y="940" on="0"/>
        <pt x="2129" y="1166" on="0"/>
        <pt x="2018" y="1323" on="0"/>
        <pt x="1872" y="1407" on="0"/>
        <pt x="1792" y="1407" on="1"/>
        <pt x="1728" y="1407" on="0"/>
        <pt x="1628" y="1355" on="0"/>
        <pt x="1552" y="1264" on="0"/>
        <pt x="1499" y="1141" on="0"/>
        <pt x="1465" y="998" on="0"/>
        <pt x="1450" y="841" on="0"/>
        <pt x="1450" y="762" on="1"/>
        <pt x="1450" y="0" on="1"/>
        <pt x="1133" y="0" on="1"/>
      </contour>
    </TTGlyph>
    <TTGlyph name="N" xMin="82" yMin="0" xMax="1608" yMax="1434">
      <contour>
        <pt x="82" y="1434" on="1"/>
        <pt x="584" y="1434" on="1"/>
        <pt x="1341" y="514" on="1"/>
        <pt x="1341" y="1266" on="1"/>
        <pt x="1341" y="1286" on="0"/>
        <pt x="1326" y="1332" on="0"/>
        <pt x="1287" y="1371" on="0"/>
        <pt x="1219" y="1397" on="0"/>
        <pt x="1165" y="1397" on="1"/>
        <pt x="1165" y="1434" on="1"/>
        <pt x="1608" y="1434" on="1"/>
        <pt x="1608" y="1397" on="1"/>
        <pt x="1553" y="1397" on="0"/>
        <pt x="1485" y="1374" on="0"/>
        <pt x="1446" y="1335" on="0"/>
        <pt x="1432" y="1285" on="0"/>
        <pt x="1432" y="1257" on="1"/>
        <pt x="1432" y="0" on="1"/>
        <pt x="1341" y="0" on="1"/>
        <pt x="348" y="1198" on="1"/>
        <pt x="348" y="176" on="1"/>
        <pt x="348" y="156" on="0"/>
        <pt x="361" y="108" on="0"/>
        <pt x="398" y="66" on="0"/>
        <pt x="467" y="37" on="0"/>
        <pt x="524" y="37" on="1"/>
        <pt x="524" y="0" on="1"/>
        <pt x="82" y="0" on="1"/>
        <pt x="82" y="37" on="1"/>
        <pt x="136" y="37" on="0"/>
        <pt x="205" y="60" on="0"/>
        <pt x="244" y="98" on="0"/>
        <pt x="258" y="148" on="0"/>
        <pt x="258" y="176" on="1"/>
        <pt x="258" y="1307" on="1"/>
        <pt x="234" y="1334" on="0"/>
        <pt x="194" y="1368" on="0"/>
        <pt x="153" y="1389" on="0"/>
        <pt x="109" y="1397" on="0"/>
        <pt x="82" y="1397" on="1"/>
      </contour>
    </TTGlyph>
    <TTGlyph name="Nacute" xMin="82" yMin="0" xMax="1608" yMax="1829">
      <component glyphName="N" x="0" y="0" flags="0x204"/>
      <component glyphName="acute" x="805" y="354" flags="0x4"/>
    </TTGlyph>
    <TTGlyph name="Ncaron" xMin="82" yMin="0" xMax="1608" yMax="1829">
      <component glyphName="N" x="0" y="0" flags="0x204"/>
      <component glyphName="caron" x="573" y="354" flags="0x4"/>
    </TTGlyph>
    <TTGlyph name="Ncommaaccent" xMin="82" yMin="-492" xMax="1608" yMax="1434">
      <component glyphName="N" x="0" y="0" flags="0x204"/>
      <component glyphName="uni0326" x="641" y="0" flags="0x4"/>
    </TTGlyph>
    <TTGlyph name="Ntilde" xMin="82" yMin="0" xMax="1608" yMax="1808">
      <component glyphName="N" x="0" y="0" flags="0x204"/>
      <component glyphName="tilde" x="506" y="354" flags="0x4"/>
    </TTGlyph>
    <TTGlyph name="O" xMin="96" yMin="-41" xMax="1665" yMax="1454">
      <contour>
        <pt x="96" y="717" on="1"/>
        <pt x="96" y="800" on="0"/>
        <pt x="142" y="975" on="0"/>
        <pt x="232" y="1138" on="0"/>
        <pt x="365" y="1283" on="0"/>
        <pt x="538" y="1391" on="0"/>
        <pt x="752" y="1454" on="0"/>
        <pt x="877" y="1454" on="1"/>
        <pt x="1006" y="1454" on="0"/>
        <pt x="1223" y="1396" on="0"/>
        <pt x="1398" y="1294" on="0"/>
        <pt x="1531" y="1154" on="0"/>
        <pt x="1620" y="991" on="0"/>
        <pt x="1665" y="809" on="0"/>
        <pt x="1665" y="717" on="1"/>
        <pt x="1665" y="629" on="0"/>
        <pt x="1620" y="449" on="0"/>
        <pt x="1531" y="281" on="0"/>
        <pt x="1398" y="133" on="0"/>
        <pt x="1223" y="23" on="0"/>
        <pt x="1006" y="-41" on="0"/>
        <pt x="877" y="-41" on="1"/>
        <pt x="750" y="-41" on="0"/>
        <pt x="536" y="22" on="0"/>
        <pt x="363" y="132" on="0"/>
        <pt x="231" y="280" on="0"/>
        <pt x="141" y="448" on="0"/>
        <pt x="96" y="629" on="0"/>
      </contour>
      <contour>
        <pt x="440" y="721" on="1"/>
        <pt x="440" y="636" on="0"/>
        <pt x="459" y="470" on="0"/>
        <pt x="501" y="319" on="0"/>
        <pt x="568" y="190" on="0"/>
        <pt x="664" y="94" on="0"/>
        <pt x="790" y="38" on="0"/>
        <pt x="870" y="37" on="1"/>
        <pt x="950" y="37" on="0"/>
        <pt x="1080" y="94" on="0"/>
        <pt x="1180" y="192" on="0"/>
        <pt x="1252" y="324" on="0"/>
        <pt x="1300" y="473" on="0"/>
        <pt x="1323" y="634" on="0"/>
        <pt x="1325" y="711" on="1"/>
        <pt x="1325" y="790" on="0"/>
        <pt x="1306" y="950" on="0"/>
        <pt x="1263" y="1097" on="0"/>
        <pt x="1195" y="1225" on="0"/>
        <pt x="1097" y="1320" on="0"/>
        <pt x="969" y="1374" on="0"/>
        <pt x="887" y="1374" on="1"/>
        <pt x="807" y="1374" on="0"/>
        <pt x="680" y="1326" on="0"/>
        <pt x="581" y="1238" on="0"/>
        <pt x="510" y="1118" on="0"/>
        <pt x="464" y="972" on="0"/>
        <pt x="441" y="808" on="0"/>
      </contour>
    </TTGlyph>
    <TTGlyph name="OE" xMin="96" yMin="-51" xMax="2642" yMax="1454">
      <contour>
        <pt x="2597" y="1114" on="1"/>
        <pt x="2568" y="1177" on="0"/>
        <pt x="2475" y="1275" on="0"/>
        <pt x="2360" y="1343" on="0"/>
        <pt x="2232" y="1378" on="0"/>
        <pt x="2169" y="1378" on="1"/>
        <pt x="2100" y="1378" on="0"/>
        <pt x="1978" y="1329" on="0"/>
        <pt x="1873" y="1244" on="0"/>
        <pt x="1787" y="1127" on="0"/>
        <pt x="1722" y="992" on="0"/>
        <pt x="1680" y="844" on="0"/>
        <pt x="1671" y="770" on="1"/>
        <pt x="2523" y="770" on="1"/>
        <pt x="2502" y="728" on="0"/>
        <pt x="2480" y="635" on="0"/>
        <pt x="2475" y="595" on="1"/>
        <pt x="2469" y="548" on="0"/>
        <pt x="2468" y="504" on="1"/>
        <pt x="2435" y="498" on="1"/>
        <pt x="2422" y="562" on="0"/>
        <pt x="2384" y="646" on="0"/>
        <pt x="2308" y="694" on="0"/>
        <pt x="2181" y="713" on="0"/>
        <pt x="2079" y="713" on="1"/>
        <pt x="1665" y="713" on="1"/>
        <pt x="1665" y="670" on="1"/>
        <pt x="1665" y="548" on="0"/>
        <pt x="1748" y="321" on="0"/>
        <pt x="1899" y="145" on="0"/>
        <pt x="2108" y="39" on="0"/>
        <pt x="2234" y="39" on="1"/>
        <pt x="2310" y="39" on="0"/>
        <pt x="2426" y="68" on="0"/>
        <pt x="2512" y="112" on="0"/>
        <pt x="2570" y="165" on="0"/>
        <pt x="2607" y="213" on="0"/>
        <pt x="2627" y="250" on="0"/>
        <pt x="2632" y="256" on="1"/>
        <pt x="2615" y="115" on="1"/>
        <pt x="2592" y="83" on="0"/>
        <pt x="2505" y="24" on="0"/>
        <pt x="2384" y="-23" on="0"/>
        <pt x="2233" y="-51" on="0"/>
        <pt x="2146" y="-51" on="1"/>
        <pt x="2044" y="-51" on="0"/>
        <pt x="1853" y="-14" on="0"/>
        <pt x="1682" y="56" on="0"/>
        <pt x="1536" y="158" on="0"/>
        <pt x="1479" y="223" on="1"/>
        <pt x="1430" y="166" on="0"/>
        <pt x="1305" y="69" on="0"/>
        <pt x="1154" y="-2" on="0"/>
        <pt x="977" y="-41" on="0"/>
        <pt x="877" y="-41" on="1"/>
        <pt x="750" y="-41" on="0"/>
        <pt x="536" y="22" on="0"/>
        <pt x="363" y="132" on="0"/>
        <pt x="231" y="280" on="0"/>
        <pt x="141" y="448" on="0"/>
        <pt x="96" y="629" on="0"/>
        <pt x="96" y="717" on="1"/>
        <pt x="96" y="800" on="0"/>
        <pt x="142" y="975" on="0"/>
        <pt x="232" y="1138" on="0"/>
        <pt x="365" y="1283" on="0"/>
        <pt x="538" y="1391" on="0"/>
        <pt x="752" y="1454" on="0"/>
        <pt x="877" y="1454" on="1"/>
        <pt x="989" y="1454" on="0"/>
        <pt x="1182" y="1410" on="0"/>
        <pt x="1344" y="1331" on="0"/>
        <pt x="1474" y="1221" on="0"/>
        <pt x="1522" y="1155" on="1"/>
        <pt x="1613" y="1252" on="0"/>
        <pt x="1848" y="1380" on="0"/>
        <pt x="1985" y="1411" on="1"/>
        <pt x="2056" y="1428" on="0"/>
        <pt x="2240" y="1438" on="0"/>
        <pt x="2333" y="1438" on="1"/>
        <pt x="2422" y="1438" on="0"/>
        <pt x="2582" y="1434" on="0"/>
        <pt x="2636" y="1434" on="1"/>
        <pt x="2625" y="1387" on="0"/>
        <pt x="2615" y="1314" on="0"/>
        <pt x="2615" y="1282" on="1"/>
        <pt x="2615" y="1237" on="0"/>
        <pt x="2630" y="1160" on="0"/>
        <pt x="2642" y="1116" on="1"/>
      </contour>
      <contour>
        <pt x="440" y="721" on="1"/>
        <pt x="440" y="636" on="0"/>
        <pt x="459" y="470" on="0"/>
        <pt x="501" y="319" on="0"/>
        <pt x="568" y="190" on="0"/>
        <pt x="664" y="94" on="0"/>
        <pt x="790" y="38" on="0"/>
        <pt x="870" y="37" on="1"/>
        <pt x="950" y="37" on="0"/>
        <pt x="1080" y="94" on="0"/>
        <pt x="1180" y="192" on="0"/>
        <pt x="1252" y="324" on="0"/>
        <pt x="1300" y="473" on="0"/>
        <pt x="1323" y="634" on="0"/>
        <pt x="1325" y="711" on="1"/>
        <pt x="1325" y="790" on="0"/>
        <pt x="1306" y="950" on="0"/>
        <pt x="1263" y="1097" on="0"/>
        <pt x="1195" y="1225" on="0"/>
        <pt x="1097" y="1320" on="0"/>
        <pt x="969" y="1374" on="0"/>
        <pt x="887" y="1374" on="1"/>
        <pt x="807" y="1374" on="0"/>
        <pt x="680" y="1326" on="0"/>
        <pt x="581" y="1238" on="0"/>
        <pt x="510" y="1118" on="0"/>
        <pt x="464" y="972" on="0"/>
        <pt x="441" y="808" on="0"/>
      </contour>
    </TTGlyph>
    <TTGlyph name="Oacute" xMin="96" yMin="-41" xMax="1665" yMax="1829">
      <component glyphName="O" x="0" y="0" flags="0x204"/>
      <component glyphName="acute" x="821" y="354" flags="0x4"/>
    </TTGlyph>
    <TTGlyph name="Obreve" xMin="96" yMin="-41" xMax="1665" yMax="1827">
      <component glyphName="O" x="0" y="0" flags="0x204"/>
      <component glyphName="breve" x="629" y="352" flags="0x4"/>
    </TTGlyph>
    <TTGlyph name="Ocircumflex" xMin="96" yMin="-41" xMax="1665" yMax="1829">
      <component glyphName="O" x="0" y="0" flags="0x204"/>
      <component glyphName="circumflex" x="616" y="354" flags="0x4"/>
    </TTGlyph>
    <TTGlyph name="Odieresis" xMin="96" yMin="-41" xMax="1665" yMax="1788">
      <component glyphName="O" x="0" y="0" flags="0x204"/>
      <component glyphName="dieresis" x="594" y="354" flags="0x4"/>
    </TTGlyph>
    <TTGlyph name="Ograve" xMin="96" yMin="-41" xMax="1665" yMax="1829">
      <component glyphName="O" x="0" y="0" flags="0x204"/>
      <component glyphName="grave" x="498" y="354" flags="0x4"/>
    </TTGlyph>
    <TTGlyph name="Ohungarumlaut" xMin="96" yMin="-41" xMax="1665" yMax="1852">
      <component glyphName="O" x="0" y="0" flags="0x204"/>
      <component glyphName="hungarumlaut" x="678" y="377" flags="0x4"/>
    </TTGlyph>
    <TTGlyph name="Omacron" xMin="96" yMin="-41" xMax="1665" yMax="1654">
      <component glyphName="O" x="0" y="0" flags="0x204"/>
      <component glyphName="macron" x="608" y="315" flags="0x4"/>
    </TTGlyph>
    <TTGlyph name="Oslash" xMin="96" yMin="-41" xMax="1665" yMax="1454">
      <contour>
        <pt x="1464" y="1434" on="1"/>
        <pt x="1366" y="1309" on="1"/>
        <pt x="1440" y="1256" on="0"/>
        <pt x="1552" y="1121" on="0"/>
        <pt x="1627" y="968" on="0"/>
        <pt x="1665" y="801" on="0"/>
        <pt x="1665" y="717" on="1"/>
        <pt x="1665" y="629" on="0"/>
        <pt x="1620" y="449" on="0"/>
        <pt x="1531" y="281" on="0"/>
        <pt x="1398" y="133" on="0"/>
        <pt x="1223" y="23" on="0"/>
        <pt x="1006" y="-41" on="0"/>
        <pt x="877" y="-41" on="1"/>
        <pt x="739" y="-41" on="0"/>
        <pt x="515" y="30" on="0"/>
        <pt x="424" y="92" on="1"/>
        <pt x="352" y="0" on="1"/>
        <pt x="219" y="0" on="1"/>
        <pt x="342" y="160" on="1"/>
        <pt x="281" y="216" on="0"/>
        <pt x="189" y="348" on="0"/>
        <pt x="127" y="492" on="0"/>
        <pt x="96" y="643" on="0"/>
        <pt x="96" y="717" on="1"/>
        <pt x="96" y="800" on="0"/>
        <pt x="142" y="975" on="0"/>
        <pt x="232" y="1138" on="0"/>
        <pt x="365" y="1283" on="0"/>
        <pt x="538" y="1391" on="0"/>
        <pt x="752" y="1454" on="0"/>
        <pt x="877" y="1454" on="1"/>
        <pt x="994" y="1454" on="0"/>
        <pt x="1192" y="1407" on="0"/>
        <pt x="1276" y="1364" on="1"/>
        <pt x="1331" y="1434" on="1"/>
      </contour>
      <contour>
        <pt x="1325" y="711" on="1"/>
        <pt x="1325" y="825" on="0"/>
        <pt x="1285" y="1049" on="0"/>
        <pt x="1239" y="1143" on="1"/>
        <pt x="541" y="242" on="1"/>
        <pt x="592" y="151" on="0"/>
        <pt x="753" y="39" on="0"/>
        <pt x="870" y="37" on="1"/>
        <pt x="950" y="37" on="0"/>
        <pt x="1080" y="94" on="0"/>
        <pt x="1180" y="192" on="0"/>
        <pt x="1252" y="324" on="0"/>
        <pt x="1300" y="473" on="0"/>
        <pt x="1323" y="634" on="0"/>
      </contour>
      <contour>
        <pt x="440" y="721" on="1"/>
        <pt x="440" y="624" on="0"/>
        <pt x="464" y="436" on="0"/>
        <pt x="492" y="352" on="1"/>
        <pt x="1178" y="1237" on="1"/>
        <pt x="1127" y="1300" on="0"/>
        <pt x="984" y="1374" on="0"/>
        <pt x="887" y="1374" on="1"/>
        <pt x="807" y="1374" on="0"/>
        <pt x="680" y="1326" on="0"/>
        <pt x="581" y="1238" on="0"/>
        <pt x="510" y="1118" on="0"/>
        <pt x="464" y="972" on="0"/>
        <pt x="441" y="808" on="0"/>
      </contour>
    </TTGlyph>
    <TTGlyph name="Oslashacute" xMin="96" yMin="-41" xMax="1665" yMax="1852">
      <component glyphName="Oslash" x="0" y="0" flags="0x204"/>
      <component glyphName="acute" x="821" y="377" flags="0x4"/>
    </TTGlyph>
    <TTGlyph name="Otilde" xMin="96" yMin="-41" xMax="1665" yMax="1808">
      <component glyphName="O" x="0" y="0" flags="0x204"/>
      <component glyphName="tilde" x="543" y="354" flags="0x4"/>
    </TTGlyph>
    <TTGlyph name="P" xMin="68" yMin="-676" xMax="1616" yMax="1434">
      <contour>
        <pt x="1616" y="758" on="1"/>
        <pt x="1616" y="597" on="0"/>
        <pt x="1500" y="308" on="0"/>
        <pt x="1280" y="88" on="0"/>
        <pt x="962" y="-41" on="0"/>
        <pt x="760" y="-41" on="1"/>
        <pt x="709" y="-41" on="0"/>
        <pt x="609" y="-30" on="0"/>
        <pt x="561" y="-16" on="1"/>
        <pt x="561" y="-227" on="1"/>
        <pt x="561" y="-251" on="0"/>
        <pt x="528" y="-307" on="0"/>
        <pt x="475" y="-372" on="0"/>
        <pt x="407" y="-447" on="0"/>
        <pt x="336" y="-531" on="0"/>
        <pt x="270" y="-624" on="0"/>
        <pt x="244" y="-676" on="1"/>
        <pt x="244" y="1266" on="1"/>
        <pt x="244" y="1286" on="0"/>
        <pt x="229" y="1332" on="0"/>
        <pt x="190" y="1371" on="0"/>
        <pt x="122" y="1397" on="0"/>
        <pt x="68" y="1397" on="1"/>
        <pt x="68" y="1434" on="1"/>
        <pt x="561" y="1434" on="1"/>
        <pt x="623" y="1434" on="0"/>
        <pt x="780" y="1426" on="0"/>
        <pt x="952" y="1403" on="0"/>
        <pt x="1130" y="1360" on="0"/>
        <pt x="1296" y="1291" on="0"/>
        <pt x="1443" y="1191" on="0"/>
        <pt x="1553" y="1053" on="0"/>
        <pt x="1616" y="873" on="0"/>
      </contour>
      <contour>
        <pt x="1288" y="682" on="1"/>
        <pt x="1288" y="817" on="0"/>
        <pt x="1218" y="1019" on="0"/>
        <pt x="1101" y="1167" on="0"/>
        <pt x="950" y="1265" on="0"/>
        <pt x="789" y="1326" on="0"/>
        <pt x="628" y="1355" on="0"/>
        <pt x="561" y="1360" on="1"/>
        <pt x="561" y="78" on="1"/>
        <pt x="617" y="47" on="0"/>
        <pt x="749" y="27" on="0"/>
        <pt x="809" y="27" on="1"/>
        <pt x="903" y="27" on="0"/>
        <pt x="1048" y="87" on="0"/>
        <pt x="1154" y="188" on="0"/>
        <pt x="1226" y="321" on="0"/>
        <pt x="1269" y="467" on="0"/>
        <pt x="1288" y="615" on="0"/>
      </contour>
    </TTGlyph>
    <TTGlyph name="Q" xMin="100" yMin="-676" xMax="1649" yMax="1434">
      <contour>
        <pt x="1649" y="1397" on="1"/>
        <pt x="1594" y="1397" on="0"/>
        <pt x="1526" y="1371" on="0"/>
        <pt x="1487" y="1332" on="0"/>
        <pt x="1473" y="1286" on="0"/>
        <pt x="1473" y="1266" on="1"/>
        <pt x="1473" y="-227" on="1"/>
        <pt x="1473" y="-251" on="0"/>
        <pt x="1440" y="-307" on="0"/>
        <pt x="1386" y="-372" on="0"/>
        <pt x="1318" y="-447" on="0"/>
        <pt x="1247" y="-531" on="0"/>
        <pt x="1180" y="-624" on="0"/>
        <pt x="1155" y="-676" on="1"/>
        <pt x="1155" y="-16" on="1"/>
        <pt x="1107" y="-30" on="0"/>
        <pt x="1006" y="-41" on="0"/>
        <pt x="956" y="-41" on="1"/>
        <pt x="754" y="-41" on="0"/>
        <pt x="436" y="88" on="0"/>
        <pt x="216" y="308" on="0"/>
        <pt x="100" y="597" on="0"/>
        <pt x="100" y="758" on="1"/>
        <pt x="100" y="873" on="0"/>
        <pt x="163" y="1053" on="0"/>
        <pt x="273" y="1191" on="0"/>
        <pt x="420" y="1291" on="0"/>
        <pt x="586" y="1360" on="0"/>
        <pt x="764" y="1403" on="0"/>
        <pt x="936" y="1426" on="0"/>
        <pt x="1093" y="1434" on="0"/>
        <pt x="1155" y="1434" on="1"/>
        <pt x="1649" y="1434" on="1"/>
      </contour>
      <contour>
        <pt x="907" y="27" on="1"/>
        <pt x="966" y="27" on="0"/>
        <pt x="1099" y="47" on="0"/>
        <pt x="1155" y="78" on="1"/>
        <pt x="1155" y="1360" on="1"/>
        <pt x="1087" y="1355" on="0"/>
        <pt x="927" y="1326" on="0"/>
        <pt x="766" y="1265" on="0"/>
        <pt x="615" y="1167" on="0"/>
        <pt x="498" y="1019" on="0"/>
        <pt x="428" y="817" on="0"/>
        <pt x="428" y="682" on="1"/>
        <pt x="428" y="615" on="0"/>
        <pt x="447" y="467" on="0"/>
        <pt x="490" y="321" on="0"/>
        <pt x="562" y="188" on="0"/>
        <pt x="668" y="87" on="0"/>
        <pt x="813" y="27" on="0"/>
      </contour>
    </TTGlyph>
    <TTGlyph name="R" xMin="80" yMin="-51" xMax="1567" yMax="1434">
      <contour>
        <pt x="1567" y="12" on="1"/>
        <pt x="1476" y="-25" on="0"/>
        <pt x="1330" y="-51" on="0"/>
        <pt x="1274" y="-51" on="1"/>
        <pt x="1204" y="-51" on="0"/>
        <pt x="1065" y="23" on="0"/>
        <pt x="936" y="138" on="0"/>
        <pt x="822" y="278" on="0"/>
        <pt x="731" y="412" on="0"/>
        <pt x="668" y="522" on="0"/>
        <pt x="655" y="549" on="1"/>
        <pt x="782" y="570" on="0"/>
        <pt x="882" y="625" on="1"/>
        <pt x="925" y="649" on="0"/>
        <pt x="1007" y="715" on="0"/>
        <pt x="1071" y="805" on="0"/>
        <pt x="1110" y="921" on="0"/>
        <pt x="1110" y="995" on="1"/>
        <pt x="1110" y="1062" on="0"/>
        <pt x="1076" y="1171" on="0"/>
        <pt x="1020" y="1256" on="0"/>
        <pt x="946" y="1317" on="0"/>
        <pt x="866" y="1357" on="0"/>
        <pt x="785" y="1376" on="0"/>
        <pt x="750" y="1376" on="1"/>
        <pt x="697" y="1376" on="0"/>
        <pt x="628" y="1354" on="0"/>
        <pt x="588" y="1317" on="0"/>
        <pt x="573" y="1268" on="0"/>
        <pt x="573" y="1241" on="1"/>
        <pt x="573" y="176" on="1"/>
        <pt x="573" y="156" on="0"/>
        <pt x="586" y="108" on="0"/>
        <pt x="623" y="66" on="0"/>
        <pt x="693" y="37" on="0"/>
        <pt x="750" y="37" on="1"/>
        <pt x="750" y="0" on="1"/>
        <pt x="80" y="0" on="1"/>
        <pt x="80" y="37" on="1"/>
        <pt x="133" y="37" on="0"/>
        <pt x="201" y="58" on="0"/>
        <pt x="241" y="95" on="0"/>
        <pt x="256" y="143" on="0"/>
        <pt x="256" y="170" on="1"/>
        <pt x="256" y="1266" on="1"/>
        <pt x="256" y="1286" on="0"/>
        <pt x="241" y="1332" on="0"/>
        <pt x="202" y="1371" on="0"/>
        <pt x="134" y="1397" on="0"/>
        <pt x="80" y="1397" on="1"/>
        <pt x="80" y="1434" on="1"/>
        <pt x="750" y="1434" on="1"/>
        <pt x="892" y="1434" on="0"/>
        <pt x="1144" y="1384" on="0"/>
        <pt x="1333" y="1277" on="0"/>
        <pt x="1444" y="1110" on="0"/>
        <pt x="1444" y="993" on="1"/>
        <pt x="1444" y="894" on="0"/>
        <pt x="1363" y="746" on="0"/>
        <pt x="1230" y="640" on="0"/>
        <pt x="1061" y="571" on="0"/>
        <pt x="973" y="551" on="1"/>
        <pt x="1007" y="489" on="0"/>
        <pt x="1089" y="365" on="0"/>
        <pt x="1179" y="251" on="0"/>
        <pt x="1270" y="153" on="0"/>
        <pt x="1356" y="80" on="0"/>
        <pt x="1431" y="39" on="0"/>
        <pt x="1460" y="39" on="1"/>
        <pt x="1474" y="39" on="0"/>
        <pt x="1523" y="45" on="0"/>
        <pt x="1552" y="57" on="1"/>
      </contour>
    </TTGlyph>
    <TTGlyph name="Racute" xMin="80" yMin="-51" xMax="1567" yMax="1829">
      <component glyphName="R" x="0" y="0" flags="0x204"/>
      <component glyphName="acute" x="686" y="354" flags="0x4"/>
    </TTGlyph>
    <TTGlyph name="Rcaron" xMin="80" yMin="-51" xMax="1567" yMax="1829">
      <component glyphName="R" x="0" y="0" flags="0x204"/>
      <component glyphName="caron" x="522" y="354" flags="0x4"/>
    </TTGlyph>
    <TTGlyph name="Rcommaaccent" xMin="80" yMin="-492" xMax="1567" yMax="1434">
      <component glyphName="R" x="0" y="0" flags="0x204"/>
      <component glyphName="uni0326" x="590" y="0" flags="0x4"/>
    </TTGlyph>
    <TTGlyph name="S" xMin="104" yMin="-27" xMax="1362" yMax="1458">
      <contour>
        <pt x="496" y="-27" on="1"/>
        <pt x="403" y="-27" on="0"/>
        <pt x="287" y="-19" on="0"/>
        <pt x="211" y="-8" on="0"/>
        <pt x="162" y="0" on="0"/>
        <pt x="137" y="0" on="1"/>
        <pt x="148" y="45" on="0"/>
        <pt x="158" y="120" on="0"/>
        <pt x="158" y="152" on="1"/>
        <pt x="158" y="197" on="0"/>
        <pt x="142" y="274" on="0"/>
        <pt x="131" y="317" on="1"/>
        <pt x="176" y="319" on="1"/>
        <pt x="204" y="256" on="0"/>
        <pt x="316" y="151" on="0"/>
        <pt x="454" y="74" on="0"/>
        <pt x="604" y="31" on="0"/>
        <pt x="672" y="31" on="1"/>
        <pt x="753" y="31" on="0"/>
        <pt x="889" y="87" on="0"/>
        <pt x="987" y="180" on="0"/>
        <pt x="1042" y="299" on="0"/>
        <pt x="1042" y="362" on="1"/>
        <pt x="1042" y="431" on="0"/>
        <pt x="979" y="518" on="0"/>
        <pt x="874" y="570" on="0"/>
        <pt x="739" y="596" on="0"/>
        <pt x="668" y="604" on="1"/>
        <pt x="615" y="610" on="0"/>
        <pt x="490" y="626" on="0"/>
        <pt x="364" y="658" on="0"/>
        <pt x="248" y="711" on="0"/>
        <pt x="158" y="793" on="0"/>
        <pt x="104" y="911" on="0"/>
        <pt x="104" y="993" on="1"/>
        <pt x="104" y="1090" on="0"/>
        <pt x="180" y="1234" on="0"/>
        <pt x="305" y="1337" on="0"/>
        <pt x="467" y="1404" on="0"/>
        <pt x="638" y="1443" on="0"/>
        <pt x="807" y="1458" on="0"/>
        <pt x="877" y="1458" on="1"/>
        <pt x="938" y="1458" on="0"/>
        <pt x="1045" y="1450" on="0"/>
        <pt x="1136" y="1441" on="0"/>
        <pt x="1213" y="1434" on="0"/>
        <pt x="1245" y="1434" on="1"/>
        <pt x="1234" y="1387" on="0"/>
        <pt x="1225" y="1314" on="0"/>
        <pt x="1225" y="1280" on="1"/>
        <pt x="1225" y="1237" on="0"/>
        <pt x="1239" y="1160" on="0"/>
        <pt x="1251" y="1116" on="1"/>
        <pt x="1206" y="1114" on="1"/>
        <pt x="1190" y="1151" on="0"/>
        <pt x="1162" y="1223" on="0"/>
        <pt x="1123" y="1286" on="0"/>
        <pt x="1066" y="1339" on="0"/>
        <pt x="977" y="1378" on="0"/>
        <pt x="848" y="1399" on="0"/>
        <pt x="756" y="1399" on="1"/>
        <pt x="694" y="1399" on="0"/>
        <pt x="577" y="1355" on="0"/>
        <pt x="486" y="1278" on="0"/>
        <pt x="430" y="1171" on="0"/>
        <pt x="430" y="1108" on="1"/>
        <pt x="430" y="1053" on="0"/>
        <pt x="471" y="975" on="0"/>
        <pt x="537" y="921" on="0"/>
        <pt x="620" y="887" on="0"/>
        <pt x="703" y="868" on="0"/>
        <pt x="778" y="860" on="0"/>
        <pt x="803" y="858" on="1"/>
        <pt x="850" y="854" on="0"/>
        <pt x="970" y="838" on="0"/>
        <pt x="1094" y="805" on="0"/>
        <pt x="1213" y="751" on="0"/>
        <pt x="1306" y="665" on="0"/>
        <pt x="1362" y="544" on="0"/>
        <pt x="1362" y="461" on="1"/>
        <pt x="1362" y="352" on="0"/>
        <pt x="1287" y="195" on="0"/>
        <pt x="1159" y="86" on="0"/>
        <pt x="988" y="21" on="0"/>
        <pt x="795" y="-15" on="0"/>
        <pt x="592" y="-27" on="0"/>
      </contour>
    </TTGlyph>
    <TTGlyph name="Sacute" xMin="104" yMin="-27" xMax="1362" yMax="1846">
      <component glyphName="S" x="0" y="0" flags="0x204"/>
      <component glyphName="acute" x="694" y="371" flags="0x4"/>
    </TTGlyph>
    <TTGlyph name="Scaron" xMin="104" yMin="-27" xMax="1362" yMax="1829">
      <component glyphName="S" x="0" y="0" flags="0x204"/>
      <component glyphName="caron" x="469" y="354" flags="0x4"/>
    </TTGlyph>
    <TTGlyph name="Scedilla" xMin="104" yMin="-418" xMax="1362" yMax="1458">
      <contour>
        <pt x="893" y="-227" on="1"/>
        <pt x="893" y="-280" on="0"/>
        <pt x="857" y="-352" on="0"/>
        <pt x="794" y="-398" on="0"/>
        <pt x="708" y="-418" on="0"/>
        <pt x="659" y="-418" on="1"/>
        <pt x="619" y="-418" on="0"/>
        <pt x="549" y="-387" on="0"/>
        <pt x="497" y="-334" on="0"/>
        <pt x="467" y="-263" on="0"/>
        <pt x="467" y="-223" on="1"/>
        <pt x="518" y="-223" on="1"/>
        <pt x="518" y="-256" on="0"/>
        <pt x="545" y="-308" on="0"/>
        <pt x="583" y="-343" on="0"/>
        <pt x="623" y="-362" on="0"/>
        <pt x="635" y="-362" on="1"/>
        <pt x="669" y="-362" on="0"/>
        <pt x="714" y="-336" on="0"/>
        <pt x="742" y="-295" on="0"/>
        <pt x="754" y="-248" on="0"/>
        <pt x="754" y="-227" on="1"/>
        <pt x="754" y="-184" on="0"/>
        <pt x="722" y="-134" on="0"/>
        <pt x="678" y="-110" on="0"/>
        <pt x="631" y="-104" on="0"/>
        <pt x="616" y="-104" on="1"/>
        <pt x="662" y="-23" on="1"/>
        <pt x="618" y="-25" on="0"/>
        <pt x="536" y="-27" on="0"/>
        <pt x="496" y="-27" on="1"/>
        <pt x="403" y="-27" on="0"/>
        <pt x="287" y="-19" on="0"/>
        <pt x="211" y="-8" on="0"/>
        <pt x="162" y="0" on="0"/>
        <pt x="137" y="0" on="1"/>
        <pt x="148" y="45" on="0"/>
        <pt x="158" y="120" on="0"/>
        <pt x="158" y="152" on="1"/>
        <pt x="158" y="197" on="0"/>
        <pt x="142" y="274" on="0"/>
        <pt x="131" y="317" on="1"/>
        <pt x="176" y="319" on="1"/>
        <pt x="204" y="256" on="0"/>
        <pt x="316" y="151" on="0"/>
        <pt x="454" y="74" on="0"/>
        <pt x="604" y="31" on="0"/>
        <pt x="672" y="31" on="1"/>
        <pt x="753" y="31" on="0"/>
        <pt x="889" y="87" on="0"/>
        <pt x="987" y="180" on="0"/>
        <pt x="1042" y="299" on="0"/>
        <pt x="1042" y="362" on="1"/>
        <pt x="1042" y="431" on="0"/>
        <pt x="979" y="518" on="0"/>
        <pt x="874" y="570" on="0"/>
        <pt x="739" y="596" on="0"/>
        <pt x="668" y="604" on="1"/>
        <pt x="615" y="610" on="0"/>
        <pt x="490" y="626" on="0"/>
        <pt x="364" y="658" on="0"/>
        <pt x="248" y="711" on="0"/>
        <pt x="158" y="793" on="0"/>
        <pt x="104" y="911" on="0"/>
        <pt x="104" y="993" on="1"/>
        <pt x="104" y="1090" on="0"/>
        <pt x="180" y="1234" on="0"/>
        <pt x="305" y="1337" on="0"/>
        <pt x="467" y="1404" on="0"/>
        <pt x="638" y="1443" on="0"/>
        <pt x="807" y="1458" on="0"/>
        <pt x="877" y="1458" on="1"/>
        <pt x="938" y="1458" on="0"/>
        <pt x="1045" y="1450" on="0"/>
        <pt x="1136" y="1441" on="0"/>
        <pt x="1213" y="1434" on="0"/>
        <pt x="1245" y="1434" on="1"/>
        <pt x="1234" y="1387" on="0"/>
        <pt x="1225" y="1314" on="0"/>
        <pt x="1225" y="1280" on="1"/>
        <pt x="1225" y="1237" on="0"/>
        <pt x="1239" y="1160" on="0"/>
        <pt x="1251" y="1116" on="1"/>
        <pt x="1206" y="1114" on="1"/>
        <pt x="1190" y="1151" on="0"/>
        <pt x="1162" y="1223" on="0"/>
        <pt x="1123" y="1286" on="0"/>
        <pt x="1066" y="1339" on="0"/>
        <pt x="977" y="1378" on="0"/>
        <pt x="848" y="1399" on="0"/>
        <pt x="756" y="1399" on="1"/>
        <pt x="694" y="1399" on="0"/>
        <pt x="577" y="1355" on="0"/>
        <pt x="486" y="1278" on="0"/>
        <pt x="430" y="1171" on="0"/>
        <pt x="430" y="1108" on="1"/>
        <pt x="430" y="1053" on="0"/>
        <pt x="471" y="975" on="0"/>
        <pt x="537" y="921" on="0"/>
        <pt x="620" y="887" on="0"/>
        <pt x="703" y="868" on="0"/>
        <pt x="778" y="860" on="0"/>
        <pt x="803" y="858" on="1"/>
        <pt x="850" y="854" on="0"/>
        <pt x="970" y="838" on="0"/>
        <pt x="1094" y="805" on="0"/>
        <pt x="1213" y="751" on="0"/>
        <pt x="1306" y="665" on="0"/>
        <pt x="1362" y="544" on="0"/>
        <pt x="1362" y="461" on="1"/>
        <pt x="1362" y="372" on="0"/>
        <pt x="1312" y="236" on="0"/>
        <pt x="1223" y="133" on="0"/>
        <pt x="1102" y="62" on="0"/>
        <pt x="960" y="14" on="0"/>
        <pt x="802" y="-12" on="0"/>
        <pt x="721" y="-18" on="1"/>
        <pt x="702" y="-61" on="1"/>
        <pt x="734" y="-61" on="0"/>
        <pt x="802" y="-83" on="0"/>
        <pt x="857" y="-125" on="0"/>
        <pt x="893" y="-187" on="0"/>
      </contour>
    </TTGlyph>
    <TTGlyph name="Scircumflex" xMin="104" yMin="-27" xMax="1362" yMax="1858">
      <component glyphName="S" x="0" y="0" flags="0x204"/>
      <component glyphName="circumflex" x="457" y="383" flags="0x4"/>
    </TTGlyph>
    <TTGlyph name="T" xMin="2" yMin="0" xMax="1470" yMax="1434">
      <contour>
        <pt x="1102" y="0" on="1"/>
        <pt x="432" y="0" on="1"/>
        <pt x="432" y="37" on="1"/>
        <pt x="487" y="37" on="0"/>
        <pt x="555" y="60" on="0"/>
        <pt x="594" y="98" on="0"/>
        <pt x="608" y="148" on="0"/>
        <pt x="608" y="176" on="1"/>
        <pt x="608" y="1356" on="1"/>
        <pt x="481" y="1356" on="1"/>
        <pt x="428" y="1356" on="0"/>
        <pt x="311" y="1339" on="0"/>
        <pt x="195" y="1290" on="0"/>
        <pt x="87" y="1204" on="0"/>
        <pt x="43" y="1135" on="1"/>
        <pt x="2" y="1141" on="1"/>
        <pt x="29" y="1183" on="0"/>
        <pt x="58" y="1284" on="0"/>
        <pt x="66" y="1329" on="1"/>
        <pt x="74" y="1381" on="0"/>
        <pt x="76" y="1434" on="1"/>
        <pt x="1470" y="1434" on="1"/>
        <pt x="1456" y="1406" on="0"/>
        <pt x="1440" y="1346" on="0"/>
        <pt x="1430" y="1287" on="0"/>
        <pt x="1427" y="1234" on="0"/>
        <pt x="1427" y="1214" on="1"/>
        <pt x="1427" y="1203" on="0"/>
        <pt x="1427" y="1186" on="0"/>
        <pt x="1428" y="1180" on="1"/>
        <pt x="1429" y="1173" on="0"/>
        <pt x="1430" y="1167" on="1"/>
        <pt x="1393" y="1161" on="1"/>
        <pt x="1389" y="1206" on="0"/>
        <pt x="1346" y="1270" on="0"/>
        <pt x="1283" y="1313" on="0"/>
        <pt x="1207" y="1339" on="0"/>
        <pt x="1134" y="1352" on="0"/>
        <pt x="1070" y="1356" on="0"/>
        <pt x="1051" y="1356" on="1"/>
        <pt x="926" y="1356" on="1"/>
        <pt x="926" y="176" on="1"/>
        <pt x="926" y="156" on="0"/>
        <pt x="938" y="108" on="0"/>
        <pt x="976" y="66" on="0"/>
        <pt x="1045" y="37" on="0"/>
        <pt x="1102" y="37" on="1"/>
      </contour>
    </TTGlyph>
    <TTGlyph name="Tbar" xMin="2" yMin="0" xMax="1470" yMax="1434">
      <contour>
        <pt x="608" y="676" on="1"/>
        <pt x="608" y="1356" on="1"/>
        <pt x="481" y="1356" on="1"/>
        <pt x="428" y="1356" on="0"/>
        <pt x="311" y="1339" on="0"/>
        <pt x="195" y="1290" on="0"/>
        <pt x="87" y="1204" on="0"/>
        <pt x="43" y="1135" on="1"/>
        <pt x="2" y="1141" on="1"/>
        <pt x="29" y="1183" on="0"/>
        <pt x="58" y="1284" on="0"/>
        <pt x="66" y="1329" on="1"/>
        <pt x="74" y="1381" on="0"/>
        <pt x="76" y="1434" on="1"/>
        <pt x="1470" y="1434" on="1"/>
        <pt x="1456" y="1406" on="0"/>
        <pt x="1440" y="1346" on="0"/>
        <pt x="1430" y="1287" on="0"/>
        <pt x="1427" y="1234" on="0"/>
        <pt x="1427" y="1214" on="1"/>
        <pt x="1427" y="1203" on="0"/>
        <pt x="1427" y="1186" on="0"/>
        <pt x="1428" y="1180" on="1"/>
        <pt x="1429" y="1173" on="0"/>
        <pt x="1430" y="1167" on="1"/>
        <pt x="1393" y="1161" on="1"/>
        <pt x="1389" y="1206" on="0"/>
        <pt x="1346" y="1270" on="0"/>
        <pt x="1283" y="1313" on="0"/>
        <pt x="1207" y="1339" on="0"/>
        <pt x="1134" y="1352" on="0"/>
        <pt x="1070" y="1356" on="0"/>
        <pt x="1051" y="1356" on="1"/>
        <pt x="926" y="1356" on="1"/>
        <pt x="926" y="676" on="1"/>
        <pt x="1174" y="676" on="1"/>
        <pt x="1174" y="541" on="1"/>
        <pt x="926" y="541" on="1"/>
        <pt x="926" y="176" on="1"/>
        <pt x="926" y="156" on="0"/>
        <pt x="938" y="108" on="0"/>
        <pt x="976" y="66" on="0"/>
        <pt x="1045" y="37" on="0"/>
        <pt x="1102" y="37" on="1"/>
        <pt x="1102" y="0" on="1"/>
        <pt x="432" y="0" on="1"/>
        <pt x="432" y="37" on="1"/>
        <pt x="487" y="37" on="0"/>
        <pt x="555" y="60" on="0"/>
        <pt x="594" y="98" on="0"/>
        <pt x="608" y="148" on="0"/>
        <pt x="608" y="176" on="1"/>
        <pt x="608" y="541" on="1"/>
        <pt x="354" y="541" on="1"/>
        <pt x="354" y="676" on="1"/>
      </contour>
    </TTGlyph>
    <TTGlyph name="Tcaron" xMin="2" yMin="0" xMax="1470" yMax="1829">
      <component glyphName="T" x="0" y="0" flags="0x204"/>
      <component glyphName="caron" x="498" y="354" flags="0x4"/>
    </TTGlyph>
    <TTGlyph name="Tcommaaccent" xMin="2" yMin="-492" xMax="1470" yMax="1434">
      <component glyphName="T" x="0" y="0" flags="0x204"/>
      <component glyphName="uni0326" x="537" y="0" flags="0x4"/>
    </TTGlyph>
    <TTGlyph name="Thorn" xMin="68" yMin="-676" xMax="1616" yMax="1434">
      <contour>
        <pt x="1616" y="614" on="1"/>
        <pt x="1616" y="484" on="0"/>
        <pt x="1500" y="247" on="0"/>
        <pt x="1280" y="66" on="0"/>
        <pt x="962" y="-41" on="0"/>
        <pt x="760" y="-41" on="1"/>
        <pt x="709" y="-41" on="0"/>
        <pt x="609" y="-30" on="0"/>
        <pt x="561" y="-16" on="1"/>
        <pt x="561" y="-236" on="1"/>
        <pt x="561" y="-258" on="0"/>
        <pt x="527" y="-313" on="0"/>
        <pt x="473" y="-379" on="0"/>
        <pt x="404" y="-454" on="0"/>
        <pt x="334" y="-537" on="0"/>
        <pt x="268" y="-628" on="0"/>
        <pt x="244" y="-676" on="1"/>
        <pt x="244" y="1266" on="1"/>
        <pt x="244" y="1286" on="0"/>
        <pt x="229" y="1332" on="0"/>
        <pt x="190" y="1371" on="0"/>
        <pt x="122" y="1397" on="0"/>
        <pt x="68" y="1397" on="1"/>
        <pt x="68" y="1434" on="1"/>
        <pt x="561" y="1434" on="1"/>
        <pt x="561" y="1188" on="1"/>
        <pt x="637" y="1188" on="1"/>
        <pt x="686" y="1188" on="0"/>
        <pt x="823" y="1185" on="0"/>
        <pt x="979" y="1170" on="0"/>
        <pt x="1146" y="1139" on="0"/>
        <pt x="1305" y="1083" on="0"/>
        <pt x="1447" y="1000" on="0"/>
        <pt x="1554" y="880" on="0"/>
        <pt x="1616" y="719" on="0"/>
      </contour>
      <contour>
        <pt x="1288" y="539" on="1"/>
        <pt x="1288" y="671" on="0"/>
        <pt x="1215" y="860" on="0"/>
        <pt x="1096" y="988" on="0"/>
        <pt x="942" y="1064" on="0"/>
        <pt x="781" y="1104" on="0"/>
        <pt x="624" y="1117" on="0"/>
        <pt x="561" y="1118" on="1"/>
        <pt x="561" y="78" on="1"/>
        <pt x="617" y="47" on="0"/>
        <pt x="749" y="27" on="0"/>
        <pt x="809" y="27" on="1"/>
        <pt x="903" y="27" on="0"/>
        <pt x="1048" y="72" on="0"/>
        <pt x="1154" y="149" on="0"/>
        <pt x="1226" y="251" on="0"/>
        <pt x="1269" y="364" on="0"/>
        <pt x="1288" y="483" on="0"/>
      </contour>
    </TTGlyph>
    <TTGlyph name="U" xMin="94" yMin="-41" xMax="1753" yMax="1499">
      <contour>
        <pt x="1083" y="1434" on="1"/>
        <pt x="1753" y="1434" on="1"/>
        <pt x="1753" y="1397" on="1"/>
        <pt x="1699" y="1397" on="0"/>
        <pt x="1630" y="1374" on="0"/>
        <pt x="1591" y="1335" on="0"/>
        <pt x="1577" y="1285" on="0"/>
        <pt x="1577" y="1257" on="1"/>
        <pt x="1577" y="176" on="1"/>
        <pt x="1577" y="156" on="0"/>
        <pt x="1590" y="108" on="0"/>
        <pt x="1627" y="66" on="0"/>
        <pt x="1696" y="37" on="0"/>
        <pt x="1753" y="37" on="1"/>
        <pt x="1753" y="0" on="1"/>
        <pt x="1260" y="0" on="1"/>
        <pt x="1260" y="150" on="1"/>
        <pt x="1224" y="111" on="0"/>
        <pt x="1138" y="42" on="0"/>
        <pt x="1033" y="-10" on="0"/>
        <pt x="909" y="-41" on="0"/>
        <pt x="836" y="-41" on="1"/>
        <pt x="746" y="-41" on="0"/>
        <pt x="566" y="-3" on="0"/>
        <pt x="401" y="73" on="0"/>
        <pt x="259" y="186" on="0"/>
        <pt x="154" y="335" on="0"/>
        <pt x="94" y="522" on="0"/>
        <pt x="94" y="633" on="1"/>
        <pt x="94" y="753" on="0"/>
        <pt x="149" y="956" on="0"/>
        <pt x="240" y="1123" on="0"/>
        <pt x="356" y="1256" on="0"/>
        <pt x="417" y="1307" on="1"/>
        <pt x="560" y="1427" on="0"/>
        <pt x="741" y="1499" on="1"/>
        <pt x="768" y="1475" on="1"/>
        <pt x="764" y="1472" on="0"/>
        <pt x="714" y="1426" on="0"/>
        <pt x="642" y="1336" on="0"/>
        <pt x="560" y="1199" on="0"/>
        <pt x="490" y="1009" on="0"/>
        <pt x="444" y="763" on="0"/>
        <pt x="444" y="610" on="1"/>
        <pt x="444" y="465" on="0"/>
        <pt x="507" y="248" on="0"/>
        <pt x="619" y="103" on="0"/>
        <pt x="772" y="31" on="0"/>
        <pt x="862" y="31" on="1"/>
        <pt x="943" y="31" on="0"/>
        <pt x="1087" y="93" on="0"/>
        <pt x="1196" y="205" on="0"/>
        <pt x="1260" y="360" on="0"/>
        <pt x="1260" y="453" on="1"/>
        <pt x="1260" y="1257" on="1"/>
        <pt x="1260" y="1277" on="0"/>
        <pt x="1247" y="1326" on="0"/>
        <pt x="1210" y="1368" on="0"/>
        <pt x="1140" y="1397" on="0"/>
        <pt x="1083" y="1397" on="1"/>
      </contour>
    </TTGlyph>
    <TTGlyph name="Uacute" xMin="94" yMin="-41" xMax="1753" yMax="1829">
      <component glyphName="U" x="0" y="0" flags="0x204"/>
      <component glyphName="acute" x="874" y="354" flags="0x4"/>
    </TTGlyph>
    <TTGlyph name="Ubreve" xMin="94" yMin="-41" xMax="1753" yMax="1811">
      <component glyphName="U" x="0" y="0" flags="0x204"/>
      <component glyphName="breve" x="666" y="336" flags="0x4"/>
    </TTGlyph>
    <TTGlyph name="Ucircumflex" xMin="94" yMin="-41" xMax="1753" yMax="1829">
      <component glyphName="U" x="0" y="0" flags="0x204"/>
      <component glyphName="circumflex" x="659" y="354" flags="0x4"/>
    </TTGlyph>
    <TTGlyph name="Udieresis" xMin="94" yMin="-41" xMax="1753" yMax="1788">
      <component glyphName="U" x="0" y="0" flags="0x204"/>
      <component glyphName="dieresis" x="637" y="354" flags="0x4"/>
    </TTGlyph>
    <TTGlyph name="Ugrave" xMin="94" yMin="-41" xMax="1753" yMax="1829">
      <component glyphName="U" x="0" y="0" flags="0x204"/>
      <component glyphName="grave" x="557" y="354" flags="0x4"/>
    </TTGlyph>
    <TTGlyph name="Uhungarumlaut" xMin="94" yMin="-41" xMax="1753" yMax="1829">
      <component glyphName="U" x="0" y="0" flags="0x204"/>
      <component glyphName="hungarumlaut" x="735" y="354" flags="0x4"/>
    </TTGlyph>
    <TTGlyph name="Umacron" xMin="94" yMin="-41" xMax="1753" yMax="1630">
      <component glyphName="U" x="0" y="0" flags="0x204"/>
      <component glyphName="macron" x="643" y="291" flags="0x4"/>
    </TTGlyph>
    <TTGlyph name="Uogonek" xMin="94" yMin="-418" xMax="1753" yMax="1499">
      <contour>
        <pt x="1657" y="-223" on="1"/>
        <pt x="1657" y="-263" on="0"/>
        <pt x="1627" y="-334" on="0"/>
        <pt x="1574" y="-387" on="0"/>
        <pt x="1504" y="-418" on="0"/>
        <pt x="1464" y="-418" on="1"/>
        <pt x="1413" y="-418" on="0"/>
        <pt x="1328" y="-386" on="0"/>
        <pt x="1266" y="-328" on="0"/>
        <pt x="1231" y="-244" on="0"/>
        <pt x="1231" y="-193" on="1"/>
        <pt x="1231" y="-166" on="0"/>
        <pt x="1250" y="-112" on="0"/>
        <pt x="1284" y="-61" on="0"/>
        <pt x="1330" y="-17" on="0"/>
        <pt x="1358" y="0" on="1"/>
        <pt x="1260" y="0" on="1"/>
        <pt x="1260" y="150" on="1"/>
        <pt x="1224" y="111" on="0"/>
        <pt x="1138" y="42" on="0"/>
        <pt x="1033" y="-10" on="0"/>
        <pt x="909" y="-41" on="0"/>
        <pt x="836" y="-41" on="1"/>
        <pt x="746" y="-41" on="0"/>
        <pt x="566" y="-3" on="0"/>
        <pt x="401" y="73" on="0"/>
        <pt x="259" y="186" on="0"/>
        <pt x="154" y="335" on="0"/>
        <pt x="94" y="522" on="0"/>
        <pt x="94" y="633" on="1"/>
        <pt x="94" y="753" on="0"/>
        <pt x="149" y="956" on="0"/>
        <pt x="240" y="1123" on="0"/>
        <pt x="356" y="1256" on="0"/>
        <pt x="417" y="1307" on="1"/>
        <pt x="560" y="1427" on="0"/>
        <pt x="741" y="1499" on="1"/>
        <pt x="768" y="1475" on="1"/>
        <pt x="764" y="1472" on="0"/>
        <pt x="714" y="1426" on="0"/>
        <pt x="642" y="1336" on="0"/>
        <pt x="560" y="1199" on="0"/>
        <pt x="490" y="1009" on="0"/>
        <pt x="444" y="763" on="0"/>
        <pt x="444" y="610" on="1"/>
        <pt x="444" y="465" on="0"/>
        <pt x="507" y="248" on="0"/>
        <pt x="619" y="103" on="0"/>
        <pt x="772" y="31" on="0"/>
        <pt x="862" y="31" on="1"/>
        <pt x="943" y="31" on="0"/>
        <pt x="1087" y="93" on="0"/>
        <pt x="1196" y="205" on="0"/>
        <pt x="1260" y="360" on="0"/>
        <pt x="1260" y="453" on="1"/>
        <pt x="1260" y="1257" on="1"/>
        <pt x="1260" y="1277" on="0"/>
        <pt x="1247" y="1326" on="0"/>
        <pt x="1210" y="1368" on="0"/>
        <pt x="1140" y="1397" on="0"/>
        <pt x="1083" y="1397" on="1"/>
        <pt x="1083" y="1434" on="1"/>
        <pt x="1753" y="1434" on="1"/>
        <pt x="1753" y="1397" on="1"/>
        <pt x="1699" y="1397" on="0"/>
        <pt x="1630" y="1374" on="0"/>
        <pt x="1591" y="1335" on="0"/>
        <pt x="1577" y="1285" on="0"/>
        <pt x="1577" y="1257" on="1"/>
        <pt x="1577" y="176" on="1"/>
        <pt x="1577" y="156" on="0"/>
        <pt x="1590" y="108" on="0"/>
        <pt x="1627" y="66" on="0"/>
        <pt x="1696" y="37" on="0"/>
        <pt x="1753" y="37" on="1"/>
        <pt x="1753" y="0" on="1"/>
        <pt x="1458" y="0" on="1"/>
        <pt x="1406" y="-38" on="0"/>
        <pt x="1360" y="-142" on="0"/>
        <pt x="1360" y="-193" on="1"/>
        <pt x="1360" y="-232" on="0"/>
        <pt x="1378" y="-295" on="0"/>
        <pt x="1408" y="-338" on="0"/>
        <pt x="1447" y="-362" on="0"/>
        <pt x="1468" y="-362" on="1"/>
        <pt x="1503" y="-362" on="0"/>
        <pt x="1554" y="-330" on="0"/>
        <pt x="1588" y="-285" on="0"/>
        <pt x="1605" y="-238" on="0"/>
        <pt x="1606" y="-223" on="1"/>
      </contour>
    </TTGlyph>
    <TTGlyph name="Uring" xMin="94" yMin="-41" xMax="1753" yMax="1987">
      <component glyphName="U" x="0" y="0" flags="0x204"/>
      <component glyphName="ring" x="690" y="410" flags="0x4"/>
    </TTGlyph>
    <TTGlyph name="Utilde" xMin="94" yMin="-41" xMax="1753" yMax="1810">
      <component glyphName="U" x="0" y="0" flags="0x204"/>
      <component glyphName="tilde" x="578" y="356" flags="0x4"/>
    </TTGlyph>
    <TTGlyph name="V" xMin="-68" yMin="0" xMax="1622" yMax="1434">
      <contour>
        <pt x="-68" y="1434" on="1"/>
        <pt x="623" y="1434" on="1"/>
        <pt x="623" y="1397" on="1"/>
        <pt x="585" y="1397" on="0"/>
        <pt x="537" y="1387" on="0"/>
        <pt x="509" y="1367" on="0"/>
        <pt x="498" y="1340" on="0"/>
        <pt x="498" y="1323" on="1"/>
        <pt x="498" y="1309" on="0"/>
        <pt x="501" y="1278" on="0"/>
        <pt x="506" y="1260" on="1"/>
        <pt x="578" y="969" on="0"/>
        <pt x="787" y="410" on="0"/>
        <pt x="922" y="135" on="1"/>
        <pt x="989" y="266" on="0"/>
        <pt x="1119" y="545" on="0"/>
        <pt x="1233" y="833" on="0"/>
        <pt x="1323" y="1128" on="0"/>
        <pt x="1352" y="1276" on="1"/>
        <pt x="1352" y="1286" on="1"/>
        <pt x="1352" y="1310" on="0"/>
        <pt x="1334" y="1351" on="0"/>
        <pt x="1293" y="1380" on="0"/>
        <pt x="1228" y="1397" on="0"/>
        <pt x="1180" y="1397" on="1"/>
        <pt x="1180" y="1434" on="1"/>
        <pt x="1622" y="1434" on="1"/>
        <pt x="1587" y="1324" on="0"/>
        <pt x="1495" y="1084" on="0"/>
        <pt x="1388" y="839" on="0"/>
        <pt x="1272" y="593" on="0"/>
        <pt x="1155" y="362" on="0"/>
        <pt x="1043" y="150" on="0"/>
        <pt x="993" y="61" on="1"/>
        <pt x="639" y="0" on="1"/>
        <pt x="487" y="311" on="0"/>
        <pt x="254" y="941" on="0"/>
        <pt x="170" y="1264" on="1"/>
        <pt x="161" y="1285" on="0"/>
        <pt x="126" y="1331" on="0"/>
        <pt x="68" y="1371" on="0"/>
        <pt x="-13" y="1397" on="0"/>
        <pt x="-68" y="1397" on="1"/>
      </contour>
    </TTGlyph>
    <TTGlyph name="W" xMin="-63" yMin="0" xMax="2257" yMax="1434">
      <contour>
        <pt x="-63" y="1434" on="1"/>
        <pt x="606" y="1434" on="1"/>
        <pt x="606" y="1397" on="1"/>
        <pt x="568" y="1397" on="0"/>
        <pt x="518" y="1386" on="0"/>
        <pt x="489" y="1366" on="0"/>
        <pt x="477" y="1338" on="0"/>
        <pt x="477" y="1321" on="1"/>
        <pt x="477" y="1313" on="1"/>
        <pt x="511" y="1168" on="0"/>
        <pt x="590" y="899" on="0"/>
        <pt x="677" y="623" on="0"/>
        <pt x="772" y="325" on="0"/>
        <pt x="823" y="152" on="1"/>
        <pt x="880" y="307" on="0"/>
        <pt x="964" y="576" on="0"/>
        <pt x="1026" y="811" on="0"/>
        <pt x="1069" y="1016" on="0"/>
        <pt x="1085" y="1108" on="1"/>
        <pt x="1049" y="1257" on="1"/>
        <pt x="1042" y="1278" on="0"/>
        <pt x="1009" y="1327" on="0"/>
        <pt x="953" y="1369" on="0"/>
        <pt x="870" y="1397" on="0"/>
        <pt x="813" y="1397" on="1"/>
        <pt x="813" y="1434" on="1"/>
        <pt x="1483" y="1434" on="1"/>
        <pt x="1483" y="1397" on="1"/>
        <pt x="1444" y="1397" on="0"/>
        <pt x="1394" y="1386" on="0"/>
        <pt x="1365" y="1366" on="0"/>
        <pt x="1354" y="1338" on="0"/>
        <pt x="1354" y="1321" on="1"/>
        <pt x="1354" y="1309" on="1"/>
        <pt x="1386" y="1165" on="0"/>
        <pt x="1452" y="896" on="0"/>
        <pt x="1526" y="621" on="0"/>
        <pt x="1609" y="324" on="0"/>
        <pt x="1659" y="152" on="1"/>
        <pt x="1730" y="346" on="0"/>
        <pt x="1836" y="671" on="0"/>
        <pt x="1914" y="947" on="0"/>
        <pt x="1968" y="1180" on="0"/>
        <pt x="1987" y="1282" on="1"/>
        <pt x="1987" y="1286" on="1"/>
        <pt x="1987" y="1310" on="0"/>
        <pt x="1969" y="1351" on="0"/>
        <pt x="1928" y="1380" on="0"/>
        <pt x="1863" y="1397" on="0"/>
        <pt x="1815" y="1397" on="1"/>
        <pt x="1815" y="1434" on="1"/>
        <pt x="2257" y="1434" on="1"/>
        <pt x="2205" y="1269" on="0"/>
        <pt x="2077" y="921" on="0"/>
        <pt x="1936" y="571" on="0"/>
        <pt x="1790" y="225" on="0"/>
        <pt x="1720" y="61" on="1"/>
        <pt x="1386" y="0" on="1"/>
        <pt x="1320" y="215" on="0"/>
        <pt x="1211" y="601" on="0"/>
        <pt x="1163" y="786" on="1"/>
        <pt x="1098" y="600" on="0"/>
        <pt x="959" y="236" on="0"/>
        <pt x="885" y="61" on="1"/>
        <pt x="551" y="0" on="1"/>
        <pt x="497" y="175" on="0"/>
        <pt x="396" y="495" on="0"/>
        <pt x="301" y="801" on="0"/>
        <pt x="213" y="1101" on="0"/>
        <pt x="174" y="1257" on="1"/>
        <pt x="172" y="1257" on="1"/>
        <pt x="165" y="1278" on="0"/>
        <pt x="133" y="1327" on="0"/>
        <pt x="76" y="1369" on="0"/>
        <pt x="-6" y="1397" on="0"/>
        <pt x="-63" y="1397" on="1"/>
      </contour>
    </TTGlyph>
    <TTGlyph name="Wacute" xMin="-63" yMin="0" xMax="2257" yMax="1829">
      <component glyphName="W" x="0" y="0" flags="0x204"/>
      <component glyphName="acute" x="1145" y="354" flags="0x4"/>
    </TTGlyph>
    <TTGlyph name="Wcircumflex" xMin="-63" yMin="0" xMax="2257" yMax="1829">
      <component glyphName="W" x="0" y="0" flags="0x204"/>
      <component glyphName="circumflex" x="956" y="354" flags="0x4"/>
    </TTGlyph>
    <TTGlyph name="Wdieresis" xMin="-63" yMin="0" xMax="2257" yMax="1766">
      <component glyphName="W" x="0" y="0" flags="0x204"/>
      <component glyphName="dieresis" x="891" y="332" flags="0x4"/>
    </TTGlyph>
    <TTGlyph name="Wgrave" xMin="-63" yMin="0" xMax="2257" yMax="1829">
      <component glyphName="W" x="0" y="0" flags="0x204"/>
      <component glyphName="grave" x="786" y="354" flags="0x4"/>
    </TTGlyph>
    <TTGlyph name="X" xMin="-10" yMin="-10" xMax="1548" yMax="1466">
      <contour>
        <pt x="51" y="37" on="1"/>
        <pt x="108" y="37" on="0"/>
        <pt x="205" y="64" on="0"/>
        <pt x="282" y="106" on="0"/>
        <pt x="338" y="155" on="0"/>
        <pt x="354" y="176" on="1"/>
        <pt x="664" y="606" on="1"/>
        <pt x="634" y="664" on="0"/>
        <pt x="569" y="792" on="0"/>
        <pt x="505" y="920" on="0"/>
        <pt x="445" y="1043" on="0"/>
        <pt x="420" y="1096" on="1"/>
        <pt x="398" y="1139" on="0"/>
        <pt x="346" y="1237" on="0"/>
        <pt x="282" y="1320" on="0"/>
        <pt x="204" y="1374" on="0"/>
        <pt x="156" y="1374" on="1"/>
        <pt x="115" y="1374" on="0"/>
        <pt x="39" y="1354" on="0"/>
        <pt x="4" y="1341" on="1"/>
        <pt x="-10" y="1382" on="1"/>
        <pt x="33" y="1397" on="0"/>
        <pt x="126" y="1427" on="0"/>
        <pt x="222" y="1451" on="0"/>
        <pt x="319" y="1466" on="0"/>
        <pt x="365" y="1466" on="1"/>
        <pt x="410" y="1466" on="0"/>
        <pt x="491" y="1449" on="0"/>
        <pt x="526" y="1427" on="1"/>
        <pt x="562" y="1406" on="0"/>
        <pt x="639" y="1312" on="0"/>
        <pt x="714" y="1195" on="0"/>
        <pt x="785" y="1065" on="0"/>
        <pt x="817" y="1008" on="1"/>
        <pt x="831" y="980" on="0"/>
        <pt x="860" y="927" on="0"/>
        <pt x="874" y="901" on="1"/>
        <pt x="1130" y="1257" on="1"/>
        <pt x="1138" y="1266" on="0"/>
        <pt x="1156" y="1293" on="0"/>
        <pt x="1172" y="1320" on="0"/>
        <pt x="1182" y="1345" on="0"/>
        <pt x="1182" y="1354" on="1"/>
        <pt x="1182" y="1374" on="0"/>
        <pt x="1137" y="1397" on="0"/>
        <pt x="1081" y="1397" on="1"/>
        <pt x="1081" y="1434" on="1"/>
        <pt x="1546" y="1434" on="1"/>
        <pt x="1546" y="1397" on="1"/>
        <pt x="1489" y="1397" on="0"/>
        <pt x="1392" y="1369" on="0"/>
        <pt x="1314" y="1327" on="0"/>
        <pt x="1258" y="1278" on="0"/>
        <pt x="1243" y="1257" on="1"/>
        <pt x="922" y="809" on="1"/>
        <pt x="955" y="744" on="0"/>
        <pt x="1022" y="612" on="0"/>
        <pt x="1097" y="475" on="0"/>
        <pt x="1181" y="332" on="0"/>
        <pt x="1231" y="256" on="1"/>
        <pt x="1253" y="221" on="0"/>
        <pt x="1305" y="158" on="0"/>
        <pt x="1360" y="109" on="0"/>
        <pt x="1416" y="80" on="0"/>
        <pt x="1442" y="80" on="1"/>
        <pt x="1456" y="80" on="0"/>
        <pt x="1505" y="86" on="0"/>
        <pt x="1534" y="98" on="1"/>
        <pt x="1548" y="53" on="1"/>
        <pt x="1457" y="16" on="0"/>
        <pt x="1311" y="-10" on="0"/>
        <pt x="1255" y="-10" on="1"/>
        <pt x="1210" y="-10" on="0"/>
        <pt x="1145" y="1" on="0"/>
        <pt x="1122" y="9" on="1"/>
        <pt x="1096" y="18" on="0"/>
        <pt x="1077" y="29" on="1"/>
        <pt x="1033" y="54" on="0"/>
        <pt x="952" y="135" on="0"/>
        <pt x="878" y="229" on="0"/>
        <pt x="815" y="326" on="0"/>
        <pt x="791" y="367" on="1"/>
        <pt x="778" y="385" on="0"/>
        <pt x="737" y="463" on="0"/>
        <pt x="711" y="514" on="1"/>
        <pt x="453" y="158" on="1"/>
        <pt x="437" y="136" on="0"/>
        <pt x="416" y="95" on="0"/>
        <pt x="416" y="80" on="1"/>
        <pt x="416" y="60" on="0"/>
        <pt x="460" y="37" on="0"/>
        <pt x="516" y="37" on="1"/>
        <pt x="516" y="0" on="1"/>
        <pt x="51" y="0" on="1"/>
      </contour>
    </TTGlyph>
    <TTGlyph name="Y" xMin="-78" yMin="0" xMax="1530" yMax="1434">
      <contour>
        <pt x="1081" y="0" on="1"/>
        <pt x="412" y="0" on="1"/>
        <pt x="412" y="37" on="1"/>
        <pt x="465" y="37" on="0"/>
        <pt x="533" y="58" on="0"/>
        <pt x="573" y="95" on="0"/>
        <pt x="588" y="143" on="0"/>
        <pt x="588" y="170" on="1"/>
        <pt x="588" y="586" on="1"/>
        <pt x="182" y="1257" on="1"/>
        <pt x="180" y="1257" on="1"/>
        <pt x="168" y="1277" on="0"/>
        <pt x="127" y="1326" on="0"/>
        <pt x="65" y="1368" on="0"/>
        <pt x="-21" y="1397" on="0"/>
        <pt x="-78" y="1397" on="1"/>
        <pt x="-78" y="1434" on="1"/>
        <pt x="612" y="1434" on="1"/>
        <pt x="612" y="1397" on="1"/>
        <pt x="546" y="1397" on="0"/>
        <pt x="498" y="1365" on="0"/>
        <pt x="498" y="1339" on="1"/>
        <pt x="498" y="1321" on="0"/>
        <pt x="514" y="1279" on="0"/>
        <pt x="526" y="1257" on="1"/>
        <pt x="881" y="694" on="1"/>
        <pt x="973" y="809" on="0"/>
        <pt x="1135" y="1085" on="0"/>
        <pt x="1210" y="1257" on="1"/>
        <pt x="1227" y="1293" on="0"/>
        <pt x="1227" y="1319" on="1"/>
        <pt x="1227" y="1353" on="0"/>
        <pt x="1164" y="1397" on="0"/>
        <pt x="1087" y="1397" on="1"/>
        <pt x="1087" y="1434" on="1"/>
        <pt x="1530" y="1434" on="1"/>
        <pt x="1464" y="1327" on="0"/>
        <pt x="1315" y="1101" on="0"/>
        <pt x="1156" y="882" on="0"/>
        <pt x="989" y="678" on="0"/>
        <pt x="905" y="594" on="1"/>
        <pt x="905" y="168" on="1"/>
        <pt x="905" y="148" on="0"/>
        <pt x="919" y="102" on="0"/>
        <pt x="958" y="63" on="0"/>
        <pt x="1027" y="37" on="0"/>
        <pt x="1081" y="37" on="1"/>
      </contour>
    </TTGlyph>
    <TTGlyph name="Yacute" xMin="-78" yMin="0" xMax="1530" yMax="1829">
      <component glyphName="Y" x="0" y="0" flags="0x204"/>
      <component glyphName="acute" x="768" y="354" flags="0x4"/>
    </TTGlyph>
    <TTGlyph name="Ycircumflex" xMin="-78" yMin="0" xMax="1530" yMax="1829">
      <component glyphName="Y" x="0" y="0" flags="0x204"/>
      <component glyphName="circumflex" x="590" y="354" flags="0x4"/>
    </TTGlyph>
    <TTGlyph name="Ydieresis" xMin="-78" yMin="0" xMax="1530" yMax="1788">
      <component glyphName="Y" x="0" y="0" flags="0x204"/>
      <component glyphName="dieresis" x="569" y="354" flags="0x4"/>
    </TTGlyph>
    <TTGlyph name="Ygrave" xMin="-78" yMin="0" xMax="1530" yMax="1829">
      <component glyphName="Y" x="0" y="0" flags="0x204"/>
      <component glyphName="grave" x="446" y="354" flags="0x4"/>
    </TTGlyph>
    <TTGlyph name="Z" xMin="59" yMin="0" xMax="1374" yMax="1434">
      <contour>
        <pt x="80" y="0" on="1"/>
        <pt x="59" y="55" on="1"/>
        <pt x="59" y="57" on="1"/>
        <pt x="61" y="57" on="1"/>
        <pt x="1051" y="1376" on="1"/>
        <pt x="504" y="1376" on="1"/>
        <pt x="450" y="1376" on="0"/>
        <pt x="335" y="1359" on="0"/>
        <pt x="235" y="1312" on="0"/>
        <pt x="161" y="1228" on="0"/>
        <pt x="147" y="1161" on="1"/>
        <pt x="113" y="1167" on="1"/>
        <pt x="113" y="1171" on="0"/>
        <pt x="111" y="1225" on="0"/>
        <pt x="101" y="1303" on="0"/>
        <pt x="79" y="1394" on="0"/>
        <pt x="59" y="1434" on="1"/>
        <pt x="1352" y="1434" on="1"/>
        <pt x="1372" y="1376" on="1"/>
        <pt x="373" y="57" on="1"/>
        <pt x="930" y="57" on="1"/>
        <pt x="984" y="57" on="0"/>
        <pt x="1098" y="74" on="0"/>
        <pt x="1198" y="121" on="0"/>
        <pt x="1272" y="205" on="0"/>
        <pt x="1286" y="272" on="1"/>
        <pt x="1321" y="266" on="1"/>
        <pt x="1321" y="262" on="0"/>
        <pt x="1323" y="208" on="0"/>
        <pt x="1333" y="130" on="0"/>
        <pt x="1354" y="40" on="0"/>
        <pt x="1374" y="0" on="1"/>
      </contour>
    </TTGlyph>
    <TTGlyph name="Zacute" xMin="59" yMin="0" xMax="1374" yMax="1829">
      <component glyphName="Z" x="0" y="0" flags="0x204"/>
      <component glyphName="acute" x="674" y="354" flags="0x4"/>
    </TTGlyph>
    <TTGlyph name="Zcaron" xMin="59" yMin="0" xMax="1374" yMax="1829">
      <component glyphName="Z" x="0" y="0" flags="0x204"/>
      <component glyphName="caron" x="453" y="354" flags="0x4"/>
    </TTGlyph>
    <TTGlyph name="Zdotaccent" xMin="59" yMin="0" xMax="1374" yMax="1766">
      <component glyphName="Z" x="0" y="0" flags="0x204"/>
      <component glyphName="dotaccent" x="602" y="332" flags="0x4"/>
    </TTGlyph>
    <TTGlyph name="a" xMin="80" yMin="-39" xMax="1380" yMax="1118">
      <contour>
        <pt x="696" y="1118" on="1"/>
        <pt x="771" y="1118" on="0"/>
        <pt x="896" y="1086" on="0"/>
        <pt x="993" y="1040" on="0"/>
        <pt x="1064" y="988" on="0"/>
        <pt x="1085" y="967" on="1"/>
        <pt x="1116" y="991" on="0"/>
        <pt x="1188" y="1030" on="0"/>
        <pt x="1262" y="1058" on="0"/>
        <pt x="1335" y="1073" on="0"/>
        <pt x="1368" y="1075" on="1"/>
        <pt x="1380" y="1042" on="1"/>
        <pt x="1340" y="1026" on="0"/>
        <pt x="1308" y="990" on="1"/>
        <pt x="1281" y="959" on="0"/>
        <pt x="1235" y="851" on="0"/>
        <pt x="1233" y="764" on="1"/>
        <pt x="1232" y="713" on="0"/>
        <pt x="1232" y="603" on="0"/>
        <pt x="1231" y="496" on="0"/>
        <pt x="1230" y="399" on="0"/>
        <pt x="1229" y="323" on="0"/>
        <pt x="1229" y="276" on="0"/>
        <pt x="1229" y="272" on="1"/>
        <pt x="1229" y="185" on="0"/>
        <pt x="1274" y="77" on="0"/>
        <pt x="1302" y="46" on="1"/>
        <pt x="1335" y="10" on="0"/>
        <pt x="1376" y="-6" on="1"/>
        <pt x="1364" y="-39" on="1"/>
        <pt x="1315" y="-37" on="0"/>
        <pt x="1203" y="-7" on="0"/>
        <pt x="1097" y="47" on="0"/>
        <pt x="1007" y="122" on="0"/>
        <pt x="979" y="170" on="1"/>
        <pt x="959" y="132" on="0"/>
        <pt x="897" y="60" on="0"/>
        <pt x="807" y="4" on="0"/>
        <pt x="685" y="-31" on="0"/>
        <pt x="606" y="-31" on="1"/>
        <pt x="476" y="-31" on="0"/>
        <pt x="279" y="62" on="0"/>
        <pt x="147" y="213" on="0"/>
        <pt x="80" y="403" on="0"/>
        <pt x="80" y="500" on="1"/>
        <pt x="80" y="573" on="0"/>
        <pt x="115" y="721" on="0"/>
        <pt x="184" y="858" on="0"/>
        <pt x="287" y="978" on="0"/>
        <pt x="424" y="1067" on="0"/>
        <pt x="594" y="1118" on="0"/>
      </contour>
      <contour>
        <pt x="700" y="74" on="1"/>
        <pt x="770" y="74" on="0"/>
        <pt x="862" y="138" on="0"/>
        <pt x="917" y="230" on="0"/>
        <pt x="943" y="332" on="0"/>
        <pt x="948" y="371" on="1"/>
        <pt x="956" y="750" on="1"/>
        <pt x="954" y="771" on="0"/>
        <pt x="943" y="831" on="0"/>
        <pt x="921" y="895" on="0"/>
        <pt x="886" y="960" on="0"/>
        <pt x="832" y="1010" on="0"/>
        <pt x="757" y="1042" on="0"/>
        <pt x="707" y="1042" on="1"/>
        <pt x="632" y="1042" on="0"/>
        <pt x="510" y="966" on="0"/>
        <pt x="424" y="835" on="0"/>
        <pt x="377" y="661" on="0"/>
        <pt x="377" y="563" on="1"/>
        <pt x="377" y="435" on="0"/>
        <pt x="432" y="251" on="0"/>
        <pt x="523" y="131" on="0"/>
        <pt x="639" y="74" on="0"/>
      </contour>
    </TTGlyph>
    <TTGlyph name="aacute" xMin="80" yMin="-39" xMax="1380" yMax="1475">
      <component glyphName="a" x="0" y="0" flags="0x204"/>
      <component glyphName="acute" x="637" y="0" flags="0x4"/>
    </TTGlyph>
    <TTGlyph name="abreve" xMin="80" yMin="-39" xMax="1380" yMax="1475">
      <component glyphName="a" x="0" y="0" flags="0x204"/>
      <component glyphName="breve" x="449" y="0" flags="0x4"/>
    </TTGlyph>
    <TTGlyph name="acircumflex" xMin="80" yMin="-39" xMax="1380" yMax="1475">
      <component glyphName="a" x="0" y="0" flags="0x204"/>
      <component glyphName="circumflex" x="467" y="0" flags="0x4"/>
    </TTGlyph>
    <TTGlyph name="acute" xMin="0" yMin="1182" xMax="424" yMax="1475">
      <contour>
        <pt x="424" y="1475" on="1"/>
        <pt x="109" y="1182" on="1"/>
        <pt x="0" y="1182" on="1"/>
        <pt x="199" y="1475" on="1"/>
      </contour>
    </TTGlyph>
    <TTGlyph name="adieresis" xMin="80" yMin="-39" xMax="1380" yMax="1434">
      <component glyphName="a" x="0" y="0" flags="0x204"/>
      <component glyphName="dieresis" x="444" y="0" flags="0x4"/>
    </TTGlyph>
    <TTGlyph name="ae" xMin="61" yMin="-31" xMax="2144" yMax="1110">
      <contour>
        <pt x="1264" y="625" on="1"/>
        <pt x="1262" y="603" on="0"/>
        <pt x="1262" y="562" on="0"/>
        <pt x="1262" y="541" on="1"/>
        <pt x="1262" y="446" on="0"/>
        <pt x="1286" y="266" on="0"/>
        <pt x="1351" y="126" on="0"/>
        <pt x="1467" y="39" on="0"/>
        <pt x="1559" y="37" on="1"/>
        <pt x="1618" y="37" on="0"/>
        <pt x="1710" y="75" on="0"/>
        <pt x="1780" y="142" on="0"/>
        <pt x="1830" y="232" on="0"/>
        <pt x="1847" y="285" on="1"/>
        <pt x="2083" y="205" on="1"/>
        <pt x="2047" y="154" on="0"/>
        <pt x="1948" y="68" on="0"/>
        <pt x="1819" y="5" on="0"/>
        <pt x="1660" y="-31" on="0"/>
        <pt x="1565" y="-31" on="1"/>
        <pt x="1405" y="-31" on="0"/>
        <pt x="1173" y="70" on="0"/>
        <pt x="1098" y="152" on="1"/>
        <pt x="1059" y="112" on="0"/>
        <pt x="962" y="45" on="0"/>
        <pt x="845" y="-4" on="0"/>
        <pt x="706" y="-31" on="0"/>
        <pt x="625" y="-31" on="1"/>
        <pt x="514" y="-31" on="0"/>
        <pt x="310" y="-4" on="0"/>
        <pt x="154" y="60" on="0"/>
        <pt x="61" y="164" on="0"/>
        <pt x="61" y="242" on="1"/>
        <pt x="61" y="301" on="0"/>
        <pt x="123" y="387" on="0"/>
        <pt x="223" y="449" on="0"/>
        <pt x="350" y="491" on="0"/>
        <pt x="479" y="521" on="0"/>
        <pt x="598" y="543" on="0"/>
        <pt x="641" y="553" on="1"/>
        <pt x="702" y="568" on="0"/>
        <pt x="800" y="605" on="0"/>
        <pt x="873" y="642" on="0"/>
        <pt x="922" y="676" on="0"/>
        <pt x="936" y="688" on="1"/>
        <pt x="928" y="757" on="0"/>
        <pt x="891" y="884" on="0"/>
        <pt x="824" y="981" on="0"/>
        <pt x="721" y="1040" on="0"/>
        <pt x="647" y="1042" on="1"/>
        <pt x="588" y="1042" on="0"/>
        <pt x="495" y="1004" on="0"/>
        <pt x="425" y="937" on="0"/>
        <pt x="375" y="847" on="0"/>
        <pt x="358" y="795" on="1"/>
        <pt x="123" y="874" on="1"/>
        <pt x="159" y="925" on="0"/>
        <pt x="259" y="1011" on="0"/>
        <pt x="387" y="1074" on="0"/>
        <pt x="544" y="1110" on="0"/>
        <pt x="637" y="1110" on="1"/>
        <pt x="794" y="1110" on="0"/>
        <pt x="1023" y="1012" on="0"/>
        <pt x="1100" y="934" on="1"/>
        <pt x="1136" y="972" on="0"/>
        <pt x="1227" y="1037" on="0"/>
        <pt x="1337" y="1084" on="0"/>
        <pt x="1468" y="1110" on="0"/>
        <pt x="1544" y="1110" on="1"/>
        <pt x="1701" y="1110" on="0"/>
        <pt x="1923" y="1032" on="0"/>
        <pt x="2065" y="899" on="0"/>
        <pt x="2136" y="723" on="0"/>
        <pt x="2144" y="625" on="1"/>
      </contour>
      <contour>
        <pt x="944" y="555" on="1"/>
        <pt x="944" y="567" on="0"/>
        <pt x="944" y="592" on="0"/>
        <pt x="942" y="604" on="1"/>
        <pt x="913" y="579" on="0"/>
        <pt x="790" y="517" on="0"/>
        <pt x="680" y="483" on="1"/>
        <pt x="622" y="465" on="0"/>
        <pt x="511" y="432" on="0"/>
        <pt x="424" y="383" on="0"/>
        <pt x="371" y="308" on="0"/>
        <pt x="371" y="250" on="1"/>
        <pt x="371" y="182" on="0"/>
        <pt x="425" y="100" on="0"/>
        <pt x="505" y="54" on="0"/>
        <pt x="596" y="39" on="0"/>
        <pt x="633" y="39" on="1"/>
        <pt x="713" y="39" on="0"/>
        <pt x="830" y="121" on="0"/>
        <pt x="907" y="262" on="0"/>
        <pt x="944" y="450" on="0"/>
      </contour>
      <contour>
        <pt x="1550" y="1040" on="1"/>
        <pt x="1477" y="1040" on="0"/>
        <pt x="1377" y="986" on="0"/>
        <pt x="1311" y="892" on="0"/>
        <pt x="1275" y="765" on="0"/>
        <pt x="1268" y="692" on="1"/>
        <pt x="1831" y="692" on="1"/>
        <pt x="1825" y="764" on="0"/>
        <pt x="1794" y="890" on="0"/>
        <pt x="1731" y="985" on="0"/>
        <pt x="1628" y="1040" on="0"/>
      </contour>
    </TTGlyph>
    <TTGlyph name="aeacute" xMin="61" yMin="-31" xMax="2144" yMax="1475">
      <component glyphName="ae" x="0" y="0" flags="0x204"/>
      <component glyphName="acute" x="1055" y="0" flags="0x4"/>
    </TTGlyph>
    <TTGlyph name="agrave" xMin="80" yMin="-39" xMax="1380" yMax="1475">
      <component glyphName="a" x="0" y="0" flags="0x204"/>
      <component glyphName="grave" x="319" y="0" flags="0x4"/>
    </TTGlyph>
    <TTGlyph name="amacron" xMin="80" yMin="-39" xMax="1380" yMax="1313">
      <component glyphName="a" x="0" y="0" flags="0x204"/>
      <component glyphName="macron" x="449" y="-26" flags="0x4"/>
    </TTGlyph>
    <TTGlyph name="ampersand" xMin="94" yMin="-29" xMax="1534" yMax="1464">
      <contour>
        <pt x="430" y="825" on="1"/>
        <pt x="400" y="855" on="0"/>
        <pt x="339" y="921" on="0"/>
        <pt x="289" y="994" on="0"/>
        <pt x="258" y="1074" on="0"/>
        <pt x="258" y="1118" on="1"/>
        <pt x="258" y="1214" on="0"/>
        <pt x="339" y="1346" on="0"/>
        <pt x="470" y="1428" on="0"/>
        <pt x="633" y="1464" on="0"/>
        <pt x="715" y="1464" on="1"/>
        <pt x="769" y="1464" on="0"/>
        <pt x="880" y="1448" on="0"/>
        <pt x="983" y="1414" on="0"/>
        <pt x="1073" y="1360" on="0"/>
        <pt x="1140" y="1283" on="0"/>
        <pt x="1178" y="1182" on="0"/>
        <pt x="1178" y="1118" on="1"/>
        <pt x="1178" y="1056" on="0"/>
        <pt x="1128" y="945" on="0"/>
        <pt x="1036" y="849" on="0"/>
        <pt x="906" y="770" on="0"/>
        <pt x="825" y="739" on="1"/>
        <pt x="1186" y="362" on="1"/>
        <pt x="1218" y="425" on="0"/>
        <pt x="1253" y="558" on="0"/>
        <pt x="1253" y="621" on="1"/>
        <pt x="1505" y="504" on="1"/>
        <pt x="1468" y="425" on="0"/>
        <pt x="1374" y="286" on="0"/>
        <pt x="1315" y="227" on="1"/>
        <pt x="1534" y="0" on="1"/>
        <pt x="1229" y="0" on="1"/>
        <pt x="1141" y="90" on="1"/>
        <pt x="1047" y="33" on="0"/>
        <pt x="831" y="-29" on="0"/>
        <pt x="713" y="-29" on="1"/>
        <pt x="637" y="-29" on="0"/>
        <pt x="487" y="-12" on="0"/>
        <pt x="349" y="28" on="0"/>
        <pt x="231" y="93" on="0"/>
        <pt x="144" y="188" on="0"/>
        <pt x="94" y="317" on="0"/>
        <pt x="94" y="401" on="1"/>
        <pt x="94" y="465" on="0"/>
        <pt x="136" y="586" on="0"/>
        <pt x="223" y="693" on="0"/>
        <pt x="354" y="780" on="0"/>
        <pt x="444" y="809" on="1"/>
      </contour>
      <contour>
        <pt x="387" y="369" on="1"/>
        <pt x="387" y="314" on="0"/>
        <pt x="432" y="197" on="0"/>
        <pt x="516" y="100" on="0"/>
        <pt x="637" y="37" on="0"/>
        <pt x="713" y="37" on="1"/>
        <pt x="812" y="35" on="0"/>
        <pt x="984" y="116" on="0"/>
        <pt x="1053" y="182" on="1"/>
        <pt x="598" y="651" on="1"/>
        <pt x="490" y="597" on="0"/>
        <pt x="387" y="460" on="0"/>
      </contour>
      <contour>
        <pt x="948" y="1157" on="1"/>
        <pt x="948" y="1232" on="0"/>
        <pt x="903" y="1326" on="0"/>
        <pt x="835" y="1379" on="0"/>
        <pt x="752" y="1397" on="0"/>
        <pt x="715" y="1397" on="1"/>
        <pt x="674" y="1397" on="0"/>
        <pt x="593" y="1372" on="0"/>
        <pt x="528" y="1315" on="0"/>
        <pt x="487" y="1222" on="0"/>
        <pt x="487" y="1153" on="1"/>
        <pt x="487" y="1119" on="0"/>
        <pt x="536" y="1040" on="0"/>
        <pt x="603" y="963" on="0"/>
        <pt x="674" y="894" on="0"/>
        <pt x="696" y="872" on="1"/>
        <pt x="746" y="890" on="0"/>
        <pt x="837" y="944" on="0"/>
        <pt x="907" y="1015" on="0"/>
        <pt x="948" y="1104" on="0"/>
      </contour>
    </TTGlyph>
    <TTGlyph name="aogonek" xMin="80" yMin="-418" xMax="1380" yMax="1118">
      <contour>
        <pt x="1380" y="-223" on="1"/>
        <pt x="1380" y="-263" on="0"/>
        <pt x="1350" y="-334" on="0"/>
        <pt x="1298" y="-387" on="0"/>
        <pt x="1228" y="-418" on="0"/>
        <pt x="1188" y="-418" on="1"/>
        <pt x="1137" y="-418" on="0"/>
        <pt x="1052" y="-386" on="0"/>
        <pt x="989" y="-328" on="0"/>
        <pt x="954" y="-244" on="0"/>
        <pt x="954" y="-193" on="1"/>
        <pt x="954" y="-160" on="0"/>
        <pt x="983" y="-93" on="0"/>
        <pt x="1032" y="-34" on="0"/>
        <pt x="1099" y="13" on="0"/>
        <pt x="1137" y="27" on="1"/>
        <pt x="1087" y="53" on="0"/>
        <pt x="1005" y="125" on="0"/>
        <pt x="979" y="170" on="1"/>
        <pt x="959" y="132" on="0"/>
        <pt x="897" y="60" on="0"/>
        <pt x="807" y="4" on="0"/>
        <pt x="685" y="-31" on="0"/>
        <pt x="606" y="-31" on="1"/>
        <pt x="476" y="-31" on="0"/>
        <pt x="279" y="62" on="0"/>
        <pt x="147" y="213" on="0"/>
        <pt x="80" y="403" on="0"/>
        <pt x="80" y="500" on="1"/>
        <pt x="80" y="573" on="0"/>
        <pt x="115" y="721" on="0"/>
        <pt x="184" y="858" on="0"/>
        <pt x="287" y="978" on="0"/>
        <pt x="424" y="1067" on="0"/>
        <pt x="594" y="1118" on="0"/>
        <pt x="696" y="1118" on="1"/>
        <pt x="771" y="1118" on="0"/>
        <pt x="896" y="1086" on="0"/>
        <pt x="993" y="1040" on="0"/>
        <pt x="1064" y="988" on="0"/>
        <pt x="1085" y="967" on="1"/>
        <pt x="1116" y="991" on="0"/>
        <pt x="1188" y="1030" on="0"/>
        <pt x="1262" y="1058" on="0"/>
        <pt x="1335" y="1073" on="0"/>
        <pt x="1368" y="1075" on="1"/>
        <pt x="1380" y="1042" on="1"/>
        <pt x="1340" y="1026" on="0"/>
        <pt x="1308" y="990" on="1"/>
        <pt x="1281" y="959" on="0"/>
        <pt x="1235" y="851" on="0"/>
        <pt x="1233" y="764" on="1"/>
        <pt x="1232" y="713" on="0"/>
        <pt x="1232" y="603" on="0"/>
        <pt x="1231" y="496" on="0"/>
        <pt x="1230" y="399" on="0"/>
        <pt x="1229" y="323" on="0"/>
        <pt x="1229" y="276" on="0"/>
        <pt x="1229" y="272" on="1"/>
        <pt x="1229" y="185" on="0"/>
        <pt x="1274" y="77" on="0"/>
        <pt x="1302" y="46" on="1"/>
        <pt x="1335" y="10" on="0"/>
        <pt x="1376" y="-6" on="1"/>
        <pt x="1364" y="-39" on="1"/>
        <pt x="1322" y="-37" on="0"/>
        <pt x="1231" y="-17" on="0"/>
        <pt x="1186" y="2" on="1"/>
        <pt x="1132" y="-35" on="0"/>
        <pt x="1083" y="-140" on="0"/>
        <pt x="1083" y="-193" on="1"/>
        <pt x="1083" y="-232" on="0"/>
        <pt x="1102" y="-295" on="0"/>
        <pt x="1132" y="-338" on="0"/>
        <pt x="1171" y="-362" on="0"/>
        <pt x="1192" y="-362" on="1"/>
        <pt x="1226" y="-362" on="0"/>
        <pt x="1277" y="-330" on="0"/>
        <pt x="1311" y="-285" on="0"/>
        <pt x="1328" y="-238" on="0"/>
        <pt x="1329" y="-223" on="1"/>
      </contour>
      <contour>
        <pt x="700" y="74" on="1"/>
        <pt x="770" y="74" on="0"/>
        <pt x="862" y="138" on="0"/>
        <pt x="917" y="230" on="0"/>
        <pt x="943" y="332" on="0"/>
        <pt x="948" y="371" on="1"/>
        <pt x="956" y="750" on="1"/>
        <pt x="954" y="771" on="0"/>
        <pt x="943" y="831" on="0"/>
        <pt x="921" y="895" on="0"/>
        <pt x="886" y="960" on="0"/>
        <pt x="832" y="1010" on="0"/>
        <pt x="757" y="1042" on="0"/>
        <pt x="707" y="1042" on="1"/>
        <pt x="632" y="1042" on="0"/>
        <pt x="510" y="966" on="0"/>
        <pt x="424" y="835" on="0"/>
        <pt x="377" y="661" on="0"/>
        <pt x="377" y="563" on="1"/>
        <pt x="377" y="435" on="0"/>
        <pt x="432" y="251" on="0"/>
        <pt x="523" y="131" on="0"/>
        <pt x="639" y="74" on="0"/>
      </contour>
    </TTGlyph>
    <TTGlyph name="approxequal" xMin="147" yMin="416" xMax="1032" yMax="1141">
      <contour>
        <pt x="1032" y="1141" on="1"/>
        <pt x="1027" y="1076" on="0"/>
        <pt x="986" y="948" on="0"/>
        <pt x="915" y="847" on="0"/>
        <pt x="814" y="784" on="0"/>
        <pt x="750" y="784" on="1"/>
        <pt x="698" y="784" on="0"/>
        <pt x="615" y="811" on="0"/>
        <pt x="547" y="851" on="0"/>
        <pt x="489" y="898" on="0"/>
        <pt x="435" y="938" on="0"/>
        <pt x="380" y="965" on="0"/>
        <pt x="348" y="965" on="1"/>
        <pt x="303" y="965" on="0"/>
        <pt x="250" y="923" on="0"/>
        <pt x="224" y="865" on="0"/>
        <pt x="217" y="803" on="0"/>
        <pt x="217" y="784" on="1"/>
        <pt x="147" y="784" on="1"/>
        <pt x="150" y="852" on="0"/>
        <pt x="182" y="980" on="0"/>
        <pt x="248" y="1080" on="0"/>
        <pt x="355" y="1141" on="0"/>
        <pt x="434" y="1141" on="1"/>
        <pt x="481" y="1141" on="0"/>
        <pt x="559" y="1115" on="0"/>
        <pt x="626" y="1076" on="0"/>
        <pt x="683" y="1030" on="0"/>
        <pt x="737" y="991" on="0"/>
        <pt x="789" y="965" on="0"/>
        <pt x="817" y="965" on="1"/>
        <pt x="859" y="965" on="0"/>
        <pt x="912" y="1006" on="0"/>
        <pt x="943" y="1062" on="0"/>
        <pt x="955" y="1122" on="0"/>
        <pt x="956" y="1141" on="1"/>
      </contour>
      <contour>
        <pt x="1032" y="772" on="1"/>
        <pt x="1027" y="707" on="0"/>
        <pt x="986" y="579" on="0"/>
        <pt x="915" y="478" on="0"/>
        <pt x="814" y="416" on="0"/>
        <pt x="750" y="416" on="1"/>
        <pt x="698" y="416" on="0"/>
        <pt x="615" y="443" on="0"/>
        <pt x="547" y="483" on="0"/>
        <pt x="489" y="529" on="0"/>
        <pt x="435" y="569" on="0"/>
        <pt x="380" y="596" on="0"/>
        <pt x="348" y="596" on="1"/>
        <pt x="303" y="596" on="0"/>
        <pt x="250" y="554" on="0"/>
        <pt x="224" y="496" on="0"/>
        <pt x="217" y="435" on="0"/>
        <pt x="217" y="416" on="1"/>
        <pt x="147" y="416" on="1"/>
        <pt x="150" y="483" on="0"/>
        <pt x="182" y="612" on="0"/>
        <pt x="248" y="711" on="0"/>
        <pt x="355" y="772" on="0"/>
        <pt x="434" y="772" on="1"/>
        <pt x="481" y="772" on="0"/>
        <pt x="559" y="746" on="0"/>
        <pt x="626" y="707" on="0"/>
        <pt x="683" y="661" on="0"/>
        <pt x="737" y="622" on="0"/>
        <pt x="789" y="596" on="0"/>
        <pt x="817" y="596" on="1"/>
        <pt x="859" y="596" on="0"/>
        <pt x="912" y="637" on="0"/>
        <pt x="943" y="693" on="0"/>
        <pt x="955" y="753" on="0"/>
        <pt x="956" y="772" on="1"/>
      </contour>
    </TTGlyph>
    <TTGlyph name="aring" xMin="80" yMin="-39" xMax="1380" yMax="1638">
      <component glyphName="a" x="0" y="0" flags="0x204"/>
      <component glyphName="ring" x="453" y="61" flags="0x4"/>
    </TTGlyph>
    <TTGlyph name="asciicircum" xMin="0" yMin="1001" xMax="780" yMax="1434">
      <contour>
        <pt x="780" y="1001" on="1"/>
        <pt x="530" y="1001" on="1"/>
        <pt x="315" y="1294" on="1"/>
        <pt x="125" y="1001" on="1"/>
        <pt x="0" y="1001" on="1"/>
        <pt x="287" y="1434" on="1"/>
        <pt x="485" y="1434" on="1"/>
      </contour>
    </TTGlyph>
    <TTGlyph name="asciitilde" xMin="121" yMin="600" xMax="1006" yMax="956">
      <contour>
        <pt x="1006" y="956" on="1"/>
        <pt x="1000" y="891" on="0"/>
        <pt x="959" y="763" on="0"/>
        <pt x="888" y="662" on="0"/>
        <pt x="787" y="600" on="0"/>
        <pt x="723" y="600" on="1"/>
        <pt x="671" y="600" on="0"/>
        <pt x="588" y="627" on="0"/>
        <pt x="520" y="667" on="0"/>
        <pt x="463" y="713" on="0"/>
        <pt x="409" y="753" on="0"/>
        <pt x="354" y="780" on="0"/>
        <pt x="322" y="780" on="1"/>
        <pt x="277" y="780" on="0"/>
        <pt x="224" y="738" on="0"/>
        <pt x="197" y="680" on="0"/>
        <pt x="190" y="619" on="0"/>
        <pt x="190" y="600" on="1"/>
        <pt x="121" y="600" on="1"/>
        <pt x="124" y="667" on="0"/>
        <pt x="155" y="796" on="0"/>
        <pt x="222" y="895" on="0"/>
        <pt x="329" y="956" on="0"/>
        <pt x="408" y="956" on="1"/>
        <pt x="455" y="956" on="0"/>
        <pt x="533" y="930" on="0"/>
        <pt x="599" y="891" on="0"/>
        <pt x="656" y="845" on="0"/>
        <pt x="710" y="806" on="0"/>
        <pt x="763" y="780" on="0"/>
        <pt x="791" y="780" on="1"/>
        <pt x="832" y="780" on="0"/>
        <pt x="885" y="821" on="0"/>
        <pt x="917" y="877" on="0"/>
        <pt x="929" y="937" on="0"/>
        <pt x="930" y="956" on="1"/>
      </contour>
    </TTGlyph>
    <TTGlyph name="asterisk" xMin="96" yMin="819" xMax="739" yMax="1434">
      <contour>
        <pt x="739" y="1130" on="1"/>
        <pt x="479" y="1098" on="1"/>
        <pt x="676" y="938" on="1"/>
        <pt x="520" y="819" on="1"/>
        <pt x="416" y="1051" on="1"/>
        <pt x="313" y="819" on="1"/>
        <pt x="158" y="938" on="1"/>
        <pt x="354" y="1098" on="1"/>
        <pt x="96" y="1130" on="1"/>
        <pt x="156" y="1313" on="1"/>
        <pt x="379" y="1171" on="1"/>
        <pt x="319" y="1434" on="1"/>
        <pt x="514" y="1434" on="1"/>
        <pt x="455" y="1171" on="1"/>
        <pt x="676" y="1313" on="1"/>
      </contour>
    </TTGlyph>
    <TTGlyph name="at" xMin="94" yMin="-147" xMax="1626" yMax="1178">
      <contour>
        <pt x="1278" y="807" on="1"/>
        <pt x="1253" y="797" on="0"/>
        <pt x="1233" y="775" on="1"/>
        <pt x="1216" y="756" on="0"/>
        <pt x="1187" y="689" on="0"/>
        <pt x="1186" y="635" on="1"/>
        <pt x="1185" y="589" on="0"/>
        <pt x="1184" y="489" on="0"/>
        <pt x="1184" y="405" on="0"/>
        <pt x="1184" y="349" on="0"/>
        <pt x="1184" y="346" on="1"/>
        <pt x="1184" y="320" on="0"/>
        <pt x="1202" y="267" on="0"/>
        <pt x="1233" y="225" on="0"/>
        <pt x="1273" y="199" on="0"/>
        <pt x="1294" y="199" on="1"/>
        <pt x="1331" y="199" on="0"/>
        <pt x="1380" y="251" on="0"/>
        <pt x="1409" y="339" on="0"/>
        <pt x="1421" y="454" on="0"/>
        <pt x="1421" y="518" on="1"/>
        <pt x="1421" y="670" on="0"/>
        <pt x="1342" y="902" on="0"/>
        <pt x="1199" y="1058" on="0"/>
        <pt x="1001" y="1137" on="0"/>
        <pt x="881" y="1137" on="1"/>
        <pt x="802" y="1137" on="0"/>
        <pt x="656" y="1090" on="0"/>
        <pt x="528" y="1006" on="0"/>
        <pt x="423" y="889" on="0"/>
        <pt x="348" y="752" on="0"/>
        <pt x="307" y="598" on="0"/>
        <pt x="307" y="518" on="1"/>
        <pt x="307" y="399" on="0"/>
        <pt x="371" y="178" on="0"/>
        <pt x="509" y="7" on="0"/>
        <pt x="727" y="-96" on="0"/>
        <pt x="881" y="-96" on="1"/>
        <pt x="906" y="-96" on="0"/>
        <pt x="967" y="-88" on="0"/>
        <pt x="1026" y="-76" on="0"/>
        <pt x="1074" y="-61" on="0"/>
        <pt x="1087" y="-55" on="1"/>
        <pt x="1108" y="-104" on="1"/>
        <pt x="1052" y="-124" on="0"/>
        <pt x="944" y="-147" on="0"/>
        <pt x="881" y="-147" on="1"/>
        <pt x="675" y="-147" on="0"/>
        <pt x="378" y="-54" on="0"/>
        <pt x="186" y="119" on="0"/>
        <pt x="94" y="364" on="0"/>
        <pt x="94" y="516" on="1"/>
        <pt x="94" y="626" on="0"/>
        <pt x="157" y="810" on="0"/>
        <pt x="268" y="957" on="0"/>
        <pt x="419" y="1067" on="0"/>
        <pt x="594" y="1141" on="0"/>
        <pt x="785" y="1178" on="0"/>
        <pt x="881" y="1178" on="1"/>
        <pt x="1036" y="1178" on="0"/>
        <pt x="1307" y="1106" on="0"/>
        <pt x="1509" y="954" on="0"/>
        <pt x="1626" y="715" on="0"/>
        <pt x="1626" y="549" on="1"/>
        <pt x="1626" y="457" on="0"/>
        <pt x="1577" y="303" on="0"/>
        <pt x="1479" y="190" on="0"/>
        <pt x="1331" y="127" on="0"/>
        <pt x="1233" y="127" on="1"/>
        <pt x="1213" y="127" on="0"/>
        <pt x="1152" y="137" on="0"/>
        <pt x="1088" y="167" on="0"/>
        <pt x="1030" y="221" on="0"/>
        <pt x="1014" y="266" on="1"/>
        <pt x="1001" y="245" on="0"/>
        <pt x="962" y="204" on="0"/>
        <pt x="908" y="172" on="0"/>
        <pt x="837" y="152" on="0"/>
        <pt x="791" y="152" on="1"/>
        <pt x="705" y="152" on="0"/>
        <pt x="580" y="209" on="0"/>
        <pt x="499" y="300" on="0"/>
        <pt x="459" y="417" on="0"/>
        <pt x="459" y="477" on="1"/>
        <pt x="459" y="542" on="0"/>
        <pt x="503" y="674" on="0"/>
        <pt x="597" y="780" on="0"/>
        <pt x="744" y="846" on="0"/>
        <pt x="848" y="846" on="1"/>
        <pt x="896" y="846" on="0"/>
        <pt x="973" y="826" on="0"/>
        <pt x="1033" y="798" on="0"/>
        <pt x="1075" y="767" on="0"/>
        <pt x="1087" y="756" on="1"/>
        <pt x="1129" y="788" on="0"/>
        <pt x="1226" y="823" on="0"/>
        <pt x="1268" y="825" on="1"/>
      </contour>
      <contour>
        <pt x="999" y="383" on="1"/>
        <pt x="999" y="406" on="0"/>
        <pt x="1001" y="470" on="0"/>
        <pt x="1003" y="537" on="0"/>
        <pt x="1005" y="598" on="0"/>
        <pt x="1006" y="618" on="1"/>
        <pt x="1006" y="627" on="1"/>
        <pt x="1004" y="644" on="0"/>
        <pt x="991" y="702" on="0"/>
        <pt x="959" y="758" on="0"/>
        <pt x="901" y="799" on="0"/>
        <pt x="854" y="799" on="1"/>
        <pt x="808" y="799" on="0"/>
        <pt x="733" y="755" on="0"/>
        <pt x="680" y="678" on="0"/>
        <pt x="651" y="573" on="0"/>
        <pt x="651" y="512" on="1"/>
        <pt x="651" y="434" on="0"/>
        <pt x="685" y="322" on="0"/>
        <pt x="740" y="250" on="0"/>
        <pt x="811" y="215" on="0"/>
        <pt x="848" y="215" on="1"/>
        <pt x="889" y="215" on="0"/>
        <pt x="944" y="249" on="0"/>
        <pt x="978" y="300" on="0"/>
        <pt x="995" y="359" on="0"/>
      </contour>
    </TTGlyph>
    <TTGlyph name="atilde" xMin="80" yMin="-39" xMax="1380" yMax="1454">
      <component glyphName="a" x="0" y="0" flags="0x204"/>
      <component glyphName="tilde" x="391" y="0" flags="0x4"/>
    </TTGlyph>
    <TTGlyph name="b" xMin="90" yMin="-31" xMax="1331" yMax="1575">
      <contour>
        <pt x="90" y="1575" on="1"/>
        <pt x="528" y="1575" on="1"/>
        <pt x="528" y="1492" on="0"/>
        <pt x="518" y="1352" on="0"/>
        <pt x="502" y="1230" on="0"/>
        <pt x="482" y="1122" on="0"/>
        <pt x="471" y="1071" on="1"/>
        <pt x="524" y="1090" on="0"/>
        <pt x="640" y="1110" on="0"/>
        <pt x="709" y="1110" on="1"/>
        <pt x="820" y="1110" on="0"/>
        <pt x="999" y="1064" on="0"/>
        <pt x="1138" y="983" on="0"/>
        <pt x="1237" y="873" on="0"/>
        <pt x="1301" y="745" on="0"/>
        <pt x="1331" y="606" on="0"/>
        <pt x="1331" y="537" on="1"/>
        <pt x="1331" y="471" on="0"/>
        <pt x="1301" y="336" on="0"/>
        <pt x="1236" y="210" on="0"/>
        <pt x="1137" y="99" on="0"/>
        <pt x="998" y="17" on="0"/>
        <pt x="820" y="-31" on="0"/>
        <pt x="709" y="-31" on="1"/>
        <pt x="602" y="-31" on="0"/>
        <pt x="428" y="16" on="0"/>
        <pt x="290" y="98" on="0"/>
        <pt x="189" y="209" on="0"/>
        <pt x="123" y="335" on="0"/>
        <pt x="90" y="471" on="0"/>
        <pt x="90" y="537" on="1"/>
        <pt x="90" y="555" on="1"/>
        <pt x="91" y="643" on="0"/>
        <pt x="114" y="777" on="0"/>
        <pt x="146" y="896" on="0"/>
        <pt x="183" y="1012" on="0"/>
        <pt x="211" y="1150" on="0"/>
        <pt x="227" y="1324" on="0"/>
        <pt x="223" y="1442" on="1"/>
        <pt x="222" y="1457" on="0"/>
        <pt x="211" y="1490" on="0"/>
        <pt x="181" y="1519" on="0"/>
        <pt x="130" y="1538" on="0"/>
        <pt x="90" y="1538" on="1"/>
      </contour>
      <contour>
        <pt x="395" y="541" on="1"/>
        <pt x="395" y="446" on="0"/>
        <pt x="422" y="266" on="0"/>
        <pt x="491" y="126" on="0"/>
        <pt x="610" y="39" on="0"/>
        <pt x="702" y="37" on="1"/>
        <pt x="763" y="37" on="0"/>
        <pt x="859" y="78" on="0"/>
        <pt x="931" y="150" on="0"/>
        <pt x="981" y="246" on="0"/>
        <pt x="1013" y="356" on="0"/>
        <pt x="1028" y="474" on="0"/>
        <pt x="1030" y="532" on="1"/>
        <pt x="1030" y="591" on="0"/>
        <pt x="1018" y="713" on="0"/>
        <pt x="990" y="826" on="0"/>
        <pt x="944" y="925" on="0"/>
        <pt x="874" y="998" on="0"/>
        <pt x="778" y="1040" on="0"/>
        <pt x="715" y="1040" on="1"/>
        <pt x="626" y="1040" on="0"/>
        <pt x="505" y="961" on="0"/>
        <pt x="430" y="828" on="0"/>
        <pt x="396" y="654" on="0"/>
        <pt x="395" y="559" on="1"/>
      </contour>
    </TTGlyph>
    <TTGlyph name="backslash" xMin="61" yMin="0" xMax="938" yMax="1434">
      <contour>
        <pt x="317" y="1434" on="1"/>
        <pt x="938" y="0" on="1"/>
        <pt x="682" y="0" on="1"/>
        <pt x="61" y="1434" on="1"/>
      </contour>
    </TTGlyph>
    <TTGlyph name="bar" xMin="180" yMin="-205" xMax="451" yMax="1640">
      <contour>
        <pt x="180" y="1640" on="1"/>
        <pt x="451" y="1640" on="1"/>
        <pt x="451" y="-205" on="1"/>
        <pt x="180" y="-205" on="1"/>
      </contour>
    </TTGlyph>
    <TTGlyph name="braceleft" xMin="-2" yMin="-207" xMax="750" yMax="1634">
      <contour>
        <pt x="750" y="-207" on="1"/>
        <pt x="641" y="-207" on="1"/>
        <pt x="598" y="-207" on="0"/>
        <pt x="507" y="-192" on="0"/>
        <pt x="421" y="-157" on="0"/>
        <pt x="345" y="-98" on="0"/>
        <pt x="287" y="-10" on="0"/>
        <pt x="254" y="111" on="0"/>
        <pt x="254" y="190" on="1"/>
        <pt x="254" y="418" on="1"/>
        <pt x="254" y="469" on="0"/>
        <pt x="221" y="566" on="0"/>
        <pt x="156" y="643" on="0"/>
        <pt x="60" y="690" on="0"/>
        <pt x="-2" y="690" on="1"/>
        <pt x="-2" y="727" on="1"/>
        <pt x="57" y="727" on="0"/>
        <pt x="152" y="773" on="0"/>
        <pt x="218" y="849" on="0"/>
        <pt x="254" y="946" on="0"/>
        <pt x="254" y="997" on="1"/>
        <pt x="254" y="1239" on="1"/>
        <pt x="254" y="1357" on="0"/>
        <pt x="317" y="1510" on="0"/>
        <pt x="423" y="1599" on="0"/>
        <pt x="563" y="1634" on="0"/>
        <pt x="641" y="1634" on="1"/>
        <pt x="750" y="1634" on="1"/>
        <pt x="750" y="1585" on="1"/>
        <pt x="693" y="1573" on="0"/>
        <pt x="612" y="1533" on="0"/>
        <pt x="561" y="1468" on="0"/>
        <pt x="537" y="1375" on="0"/>
        <pt x="537" y="1309" on="1"/>
        <pt x="537" y="1102" on="1"/>
        <pt x="537" y="1023" on="0"/>
        <pt x="502" y="877" on="0"/>
        <pt x="424" y="767" on="0"/>
        <pt x="298" y="705" on="0"/>
        <pt x="207" y="709" on="1"/>
        <pt x="302" y="707" on="0"/>
        <pt x="429" y="648" on="0"/>
        <pt x="505" y="543" on="0"/>
        <pt x="537" y="400" on="0"/>
        <pt x="537" y="315" on="1"/>
        <pt x="537" y="119" on="1"/>
        <pt x="537" y="43" on="0"/>
        <pt x="555" y="-58" on="0"/>
        <pt x="603" y="-122" on="0"/>
        <pt x="685" y="-157" on="0"/>
        <pt x="750" y="-166" on="1"/>
      </contour>
    </TTGlyph>
    <TTGlyph name="braceright" xMin="35" yMin="-207" xMax="786" yMax="1634">
      <contour>
        <pt x="35" y="-166" on="1"/>
        <pt x="99" y="-157" on="0"/>
        <pt x="182" y="-122" on="0"/>
        <pt x="230" y="-58" on="0"/>
        <pt x="248" y="43" on="0"/>
        <pt x="248" y="119" on="1"/>
        <pt x="248" y="315" on="1"/>
        <pt x="248" y="400" on="0"/>
        <pt x="280" y="543" on="0"/>
        <pt x="356" y="648" on="0"/>
        <pt x="483" y="707" on="0"/>
        <pt x="578" y="709" on="1"/>
        <pt x="487" y="705" on="0"/>
        <pt x="361" y="767" on="0"/>
        <pt x="283" y="877" on="0"/>
        <pt x="248" y="1023" on="0"/>
        <pt x="248" y="1102" on="1"/>
        <pt x="248" y="1309" on="1"/>
        <pt x="248" y="1375" on="0"/>
        <pt x="224" y="1468" on="0"/>
        <pt x="172" y="1533" on="0"/>
        <pt x="92" y="1573" on="0"/>
        <pt x="35" y="1585" on="1"/>
        <pt x="35" y="1634" on="1"/>
        <pt x="143" y="1634" on="1"/>
        <pt x="221" y="1634" on="0"/>
        <pt x="361" y="1599" on="0"/>
        <pt x="467" y="1510" on="0"/>
        <pt x="530" y="1357" on="0"/>
        <pt x="530" y="1239" on="1"/>
        <pt x="530" y="997" on="1"/>
        <pt x="530" y="946" on="0"/>
        <pt x="566" y="849" on="0"/>
        <pt x="632" y="773" on="0"/>
        <pt x="727" y="727" on="0"/>
        <pt x="786" y="727" on="1"/>
        <pt x="786" y="690" on="1"/>
        <pt x="724" y="690" on="0"/>
        <pt x="629" y="643" on="0"/>
        <pt x="564" y="566" on="0"/>
        <pt x="530" y="469" on="0"/>
        <pt x="530" y="418" on="1"/>
        <pt x="530" y="190" on="1"/>
        <pt x="530" y="111" on="0"/>
        <pt x="497" y="-10" on="0"/>
        <pt x="439" y="-98" on="0"/>
        <pt x="363" y="-157" on="0"/>
        <pt x="277" y="-192" on="0"/>
        <pt x="186" y="-207" on="0"/>
        <pt x="143" y="-207" on="1"/>
        <pt x="35" y="-207" on="1"/>
      </contour>
    </TTGlyph>
    <TTGlyph name="bracketleft" xMin="180" yMin="-205" xMax="694" yMax="1638">
      <contour>
        <pt x="694" y="-205" on="1"/>
        <pt x="180" y="-205" on="1"/>
        <pt x="180" y="1638" on="1"/>
        <pt x="694" y="1638" on="1"/>
        <pt x="694" y="1565" on="1"/>
        <pt x="465" y="1565" on="1"/>
        <pt x="465" y="-131" on="1"/>
        <pt x="694" y="-131" on="1"/>
      </contour>
    </TTGlyph>
    <TTGlyph name="bracketright" xMin="43" yMin="-205" xMax="557" yMax="1638">
      <contour>
        <pt x="43" y="-131" on="1"/>
        <pt x="272" y="-131" on="1"/>
        <pt x="272" y="1565" on="1"/>
        <pt x="43" y="1565" on="1"/>
        <pt x="43" y="1638" on="1"/>
        <pt x="557" y="1638" on="1"/>
        <pt x="557" y="-205" on="1"/>
        <pt x="43" y="-205" on="1"/>
      </contour>
    </TTGlyph>
    <TTGlyph name="breve" xMin="0" yMin="1204" xMax="502" yMax="1475">
      <contour>
        <pt x="502" y="1475" on="1"/>
        <pt x="498" y="1422" on="0"/>
        <pt x="458" y="1325" on="0"/>
        <pt x="392" y="1249" on="0"/>
        <pt x="302" y="1204" on="0"/>
        <pt x="248" y="1204" on="1"/>
        <pt x="194" y="1204" on="0"/>
        <pt x="106" y="1250" on="0"/>
        <pt x="42" y="1327" on="0"/>
        <pt x="4" y="1424" on="0"/>
        <pt x="0" y="1475" on="1"/>
        <pt x="53" y="1475" on="1"/>
        <pt x="68" y="1437" on="0"/>
        <pt x="94" y="1408" on="1"/>
        <pt x="117" y="1382" on="0"/>
        <pt x="191" y="1341" on="0"/>
        <pt x="248" y="1341" on="1"/>
        <pt x="311" y="1341" on="0"/>
        <pt x="389" y="1382" on="0"/>
        <pt x="412" y="1408" on="1"/>
        <pt x="438" y="1437" on="0"/>
        <pt x="451" y="1475" on="1"/>
      </contour>
    </TTGlyph>
    <TTGlyph name="brokenbar" xMin="180" yMin="-205" xMax="451" yMax="1640">
      <contour>
        <pt x="180" y="1640" on="1"/>
        <pt x="451" y="1640" on="1"/>
        <pt x="451" y="-205" on="1"/>
        <pt x="180" y="-205" on="1"/>
      </contour>
    </TTGlyph>
    <TTGlyph name="bullet" xMin="164" yMin="430" xMax="674" yMax="940">
      <contour>
        <pt x="674" y="686" on="1"/>
        <pt x="674" y="633" on="0"/>
        <pt x="634" y="540" on="0"/>
        <pt x="564" y="470" on="0"/>
        <pt x="471" y="430" on="0"/>
        <pt x="418" y="430" on="1"/>
        <pt x="365" y="430" on="0"/>
        <pt x="272" y="470" on="0"/>
        <pt x="203" y="540" on="0"/>
        <pt x="164" y="633" on="0"/>
        <pt x="164" y="686" on="1"/>
        <pt x="164" y="739" on="0"/>
        <pt x="203" y="831" on="0"/>
        <pt x="272" y="900" on="0"/>
        <pt x="365" y="940" on="0"/>
        <pt x="418" y="940" on="1"/>
        <pt x="471" y="940" on="0"/>
        <pt x="564" y="900" on="0"/>
        <pt x="634" y="831" on="0"/>
        <pt x="674" y="739" on="0"/>
      </contour>
    </TTGlyph>
    <TTGlyph name="c" xMin="86" yMin="-39" xMax="1135" yMax="1079">
      <contour>
        <pt x="1135" y="807" on="1"/>
        <pt x="1102" y="805" on="1"/>
        <pt x="1079" y="852" on="0"/>
        <pt x="1007" y="926" on="0"/>
        <pt x="920" y="977" on="0"/>
        <pt x="825" y="1004" on="0"/>
        <pt x="780" y="1004" on="1"/>
        <pt x="691" y="1004" on="0"/>
        <pt x="547" y="914" on="0"/>
        <pt x="445" y="771" on="0"/>
        <pt x="389" y="593" on="0"/>
        <pt x="389" y="506" on="1"/>
        <pt x="389" y="414" on="0"/>
        <pt x="451" y="245" on="0"/>
        <pt x="565" y="116" on="0"/>
        <pt x="729" y="39" on="0"/>
        <pt x="831" y="39" on="1"/>
        <pt x="915" y="39" on="0"/>
        <pt x="1026" y="86" on="0"/>
        <pt x="1093" y="145" on="0"/>
        <pt x="1124" y="197" on="0"/>
        <pt x="1128" y="203" on="1"/>
        <pt x="1114" y="86" on="1"/>
        <pt x="1096" y="60" on="0"/>
        <pt x="1027" y="14" on="0"/>
        <pt x="934" y="-20" on="0"/>
        <pt x="819" y="-39" on="0"/>
        <pt x="754" y="-39" on="1"/>
        <pt x="605" y="-39" on="0"/>
        <pt x="360" y="24" on="0"/>
        <pt x="183" y="153" on="0"/>
        <pt x="86" y="348" on="0"/>
        <pt x="86" y="479" on="1"/>
        <pt x="89" y="597" on="0"/>
        <pt x="149" y="777" on="0"/>
        <pt x="255" y="911" on="0"/>
        <pt x="402" y="1001" on="0"/>
        <pt x="580" y="1056" on="0"/>
        <pt x="787" y="1079" on="0"/>
        <pt x="899" y="1079" on="1"/>
        <pt x="973" y="1079" on="0"/>
        <pt x="1084" y="1075" on="0"/>
        <pt x="1130" y="1075" on="1"/>
        <pt x="1121" y="1040" on="0"/>
        <pt x="1114" y="962" on="0"/>
        <pt x="1114" y="936" on="1"/>
        <pt x="1114" y="901" on="0"/>
        <pt x="1125" y="839" on="0"/>
      </contour>
    </TTGlyph>
    <TTGlyph name="cacute" xMin="86" yMin="-39" xMax="1135" yMax="1475">
      <component glyphName="c" x="0" y="0" flags="0x204"/>
      <component glyphName="acute" x="653" y="0" flags="0x4"/>
    </TTGlyph>
    <TTGlyph name="caron" xMin="0" yMin="1182" xMax="526" yMax="1475">
      <contour>
        <pt x="0" y="1475" on="1"/>
        <pt x="168" y="1475" on="1"/>
        <pt x="313" y="1276" on="1"/>
        <pt x="442" y="1475" on="1"/>
        <pt x="526" y="1475" on="1"/>
        <pt x="334" y="1182" on="1"/>
        <pt x="199" y="1182" on="1"/>
      </contour>
    </TTGlyph>
    <TTGlyph name="ccaron" xMin="86" yMin="-39" xMax="1135" yMax="1475">
      <component glyphName="c" x="0" y="0" flags="0x204"/>
      <component glyphName="caron" x="471" y="0" flags="0x4"/>
    </TTGlyph>
    <TTGlyph name="ccedilla" xMin="86" yMin="-459" xMax="1135" yMax="1079">
      <contour>
        <pt x="823" y="-268" on="1"/>
        <pt x="823" y="-321" on="0"/>
        <pt x="787" y="-393" on="0"/>
        <pt x="724" y="-439" on="0"/>
        <pt x="639" y="-459" on="0"/>
        <pt x="590" y="-459" on="1"/>
        <pt x="550" y="-459" on="0"/>
        <pt x="480" y="-428" on="0"/>
        <pt x="427" y="-375" on="0"/>
        <pt x="397" y="-304" on="0"/>
        <pt x="397" y="-264" on="1"/>
        <pt x="449" y="-264" on="1"/>
        <pt x="449" y="-297" on="0"/>
        <pt x="476" y="-349" on="0"/>
        <pt x="513" y="-384" on="0"/>
        <pt x="553" y="-403" on="0"/>
        <pt x="565" y="-403" on="1"/>
        <pt x="599" y="-403" on="0"/>
        <pt x="644" y="-377" on="0"/>
        <pt x="672" y="-336" on="0"/>
        <pt x="684" y="-289" on="0"/>
        <pt x="684" y="-268" on="1"/>
        <pt x="684" y="-225" on="0"/>
        <pt x="653" y="-175" on="0"/>
        <pt x="609" y="-151" on="0"/>
        <pt x="562" y="-145" on="0"/>
        <pt x="547" y="-145" on="1"/>
        <pt x="606" y="-29" on="1"/>
        <pt x="488" y="-15" on="0"/>
        <pt x="296" y="61" on="0"/>
        <pt x="160" y="188" on="0"/>
        <pt x="86" y="365" on="0"/>
        <pt x="86" y="479" on="1"/>
        <pt x="89" y="597" on="0"/>
        <pt x="149" y="777" on="0"/>
        <pt x="255" y="911" on="0"/>
        <pt x="402" y="1001" on="0"/>
        <pt x="580" y="1056" on="0"/>
        <pt x="787" y="1079" on="0"/>
        <pt x="899" y="1079" on="1"/>
        <pt x="973" y="1079" on="0"/>
        <pt x="1084" y="1075" on="0"/>
        <pt x="1130" y="1075" on="1"/>
        <pt x="1121" y="1040" on="0"/>
        <pt x="1114" y="962" on="0"/>
        <pt x="1114" y="936" on="1"/>
        <pt x="1114" y="901" on="0"/>
        <pt x="1125" y="839" on="0"/>
        <pt x="1135" y="807" on="1"/>
        <pt x="1102" y="805" on="1"/>
        <pt x="1079" y="852" on="0"/>
        <pt x="1007" y="926" on="0"/>
        <pt x="920" y="977" on="0"/>
        <pt x="825" y="1004" on="0"/>
        <pt x="780" y="1004" on="1"/>
        <pt x="691" y="1004" on="0"/>
        <pt x="547" y="914" on="0"/>
        <pt x="445" y="771" on="0"/>
        <pt x="389" y="593" on="0"/>
        <pt x="389" y="506" on="1"/>
        <pt x="389" y="414" on="0"/>
        <pt x="451" y="245" on="0"/>
        <pt x="565" y="116" on="0"/>
        <pt x="729" y="39" on="0"/>
        <pt x="831" y="39" on="1"/>
        <pt x="915" y="39" on="0"/>
        <pt x="1026" y="86" on="0"/>
        <pt x="1093" y="145" on="0"/>
        <pt x="1124" y="197" on="0"/>
        <pt x="1128" y="203" on="1"/>
        <pt x="1114" y="86" on="1"/>
        <pt x="1096" y="60" on="0"/>
        <pt x="1027" y="14" on="0"/>
        <pt x="934" y="-20" on="0"/>
        <pt x="819" y="-39" on="0"/>
        <pt x="754" y="-39" on="1"/>
        <pt x="729" y="-39" on="0"/>
        <pt x="683" y="-37" on="0"/>
        <pt x="662" y="-35" on="1"/>
        <pt x="633" y="-102" on="1"/>
        <pt x="665" y="-102" on="0"/>
        <pt x="733" y="-124" on="0"/>
        <pt x="788" y="-166" on="0"/>
        <pt x="823" y="-228" on="0"/>
      </contour>
    </TTGlyph>
    <TTGlyph name="ccircumflex" xMin="86" yMin="-39" xMax="1135" yMax="1475">
      <component glyphName="c" x="0" y="0" flags="0x204"/>
      <component glyphName="circumflex" x="428" y="0" flags="0x4"/>
    </TTGlyph>
    <TTGlyph name="cdotaccent" xMin="86" yMin="-39" xMax="1135" yMax="1434">
      <component glyphName="c" x="0" y="0" flags="0x204"/>
      <component glyphName="dotaccent" x="606" y="0" flags="0x4"/>
    </TTGlyph>
    <TTGlyph name="cedilla" xMin="0" yMin="-418" xMax="426" yMax="72">
      <contour>
        <pt x="426" y="-227" on="1"/>
        <pt x="426" y="-280" on="0"/>
        <pt x="390" y="-352" on="0"/>
        <pt x="327" y="-398" on="0"/>
        <pt x="242" y="-418" on="0"/>
        <pt x="193" y="-418" on="1"/>
        <pt x="153" y="-418" on="0"/>
        <pt x="83" y="-387" on="0"/>
        <pt x="30" y="-334" on="0"/>
        <pt x="0" y="-263" on="0"/>
        <pt x="0" y="-223" on="1"/>
        <pt x="51" y="-223" on="1"/>
        <pt x="51" y="-256" on="0"/>
        <pt x="78" y="-308" on="0"/>
        <pt x="116" y="-343" on="0"/>
        <pt x="156" y="-362" on="0"/>
        <pt x="168" y="-362" on="1"/>
        <pt x="202" y="-362" on="0"/>
        <pt x="247" y="-336" on="0"/>
        <pt x="275" y="-295" on="0"/>
        <pt x="287" y="-248" on="0"/>
        <pt x="287" y="-227" on="1"/>
        <pt x="287" y="-184" on="0"/>
        <pt x="255" y="-134" on="0"/>
        <pt x="212" y="-110" on="0"/>
        <pt x="165" y="-104" on="0"/>
        <pt x="150" y="-104" on="1"/>
        <pt x="240" y="72" on="1"/>
        <pt x="293" y="72" on="1"/>
        <pt x="236" y="-61" on="1"/>
        <pt x="268" y="-61" on="0"/>
        <pt x="336" y="-83" on="0"/>
        <pt x="391" y="-125" on="0"/>
        <pt x="426" y="-187" on="0"/>
      </contour>
    </TTGlyph>
    <TTGlyph name="cent" xMin="88" yMin="0" xMax="821" yMax="1436">
      <contour>
        <pt x="670" y="1096" on="1"/>
        <pt x="716" y="1096" on="0"/>
        <pt x="788" y="1094" on="0"/>
        <pt x="819" y="1094" on="1"/>
        <pt x="813" y="1069" on="0"/>
        <pt x="807" y="1014" on="0"/>
        <pt x="807" y="995" on="1"/>
        <pt x="807" y="971" on="0"/>
        <pt x="815" y="928" on="0"/>
        <pt x="821" y="905" on="1"/>
        <pt x="799" y="903" on="1"/>
        <pt x="777" y="950" on="0"/>
        <pt x="696" y="1013" on="0"/>
        <pt x="651" y="1028" on="1"/>
        <pt x="471" y="397" on="1"/>
        <pt x="532" y="367" on="0"/>
        <pt x="610" y="367" on="1"/>
        <pt x="668" y="367" on="0"/>
        <pt x="746" y="400" on="0"/>
        <pt x="793" y="442" on="0"/>
        <pt x="815" y="478" on="0"/>
        <pt x="817" y="481" on="1"/>
        <pt x="807" y="401" on="1"/>
        <pt x="794" y="383" on="0"/>
        <pt x="746" y="351" on="0"/>
        <pt x="681" y="327" on="0"/>
        <pt x="600" y="313" on="0"/>
        <pt x="555" y="313" on="1"/>
        <pt x="499" y="313" on="0"/>
        <pt x="451" y="319" on="1"/>
        <pt x="360" y="0" on="1"/>
        <pt x="297" y="0" on="1"/>
        <pt x="389" y="330" on="1"/>
        <pt x="320" y="345" on="0"/>
        <pt x="209" y="402" on="0"/>
        <pt x="130" y="488" on="0"/>
        <pt x="88" y="604" on="0"/>
        <pt x="88" y="676" on="1"/>
        <pt x="91" y="793" on="0"/>
        <pt x="172" y="950" on="0"/>
        <pt x="310" y="1047" on="0"/>
        <pt x="497" y="1091" on="0"/>
        <pt x="606" y="1094" on="1"/>
        <pt x="702" y="1436" on="1"/>
        <pt x="766" y="1436" on="1"/>
      </contour>
      <contour>
        <pt x="299" y="694" on="1"/>
        <pt x="299" y="616" on="0"/>
        <pt x="361" y="477" on="0"/>
        <pt x="418" y="430" on="1"/>
        <pt x="590" y="1042" on="1"/>
        <pt x="573" y="1042" on="1"/>
        <pt x="511" y="1042" on="0"/>
        <pt x="410" y="979" on="0"/>
        <pt x="338" y="880" on="0"/>
        <pt x="299" y="755" on="0"/>
      </contour>
    </TTGlyph>
    <TTGlyph name="circumflex" xMin="0" yMin="1182" xMax="526" yMax="1475">
      <contour>
        <pt x="526" y="1182" on="1"/>
        <pt x="358" y="1182" on="1"/>
        <pt x="213" y="1380" on="1"/>
        <pt x="84" y="1182" on="1"/>
        <pt x="0" y="1182" on="1"/>
        <pt x="193" y="1475" on="1"/>
        <pt x="328" y="1475" on="1"/>
      </contour>
    </TTGlyph>
    <TTGlyph name="colon" xMin="133" yMin="-31" xMax="444" yMax="889">
      <contour>
        <pt x="133" y="125" on="1"/>
        <pt x="133" y="157" on="0"/>
        <pt x="158" y="214" on="0"/>
        <pt x="200" y="256" on="0"/>
        <pt x="257" y="281" on="0"/>
        <pt x="289" y="281" on="1"/>
        <pt x="321" y="281" on="0"/>
        <pt x="378" y="256" on="0"/>
        <pt x="420" y="214" on="0"/>
        <pt x="444" y="157" on="0"/>
        <pt x="444" y="125" on="1"/>
        <pt x="444" y="93" on="0"/>
        <pt x="420" y="36" on="0"/>
        <pt x="378" y="-6" on="0"/>
        <pt x="321" y="-31" on="0"/>
        <pt x="289" y="-31" on="1"/>
        <pt x="257" y="-31" on="0"/>
        <pt x="200" y="-6" on="0"/>
        <pt x="158" y="36" on="0"/>
        <pt x="133" y="93" on="0"/>
      </contour>
      <contour>
        <pt x="133" y="733" on="1"/>
        <pt x="133" y="765" on="0"/>
        <pt x="158" y="822" on="0"/>
        <pt x="200" y="864" on="0"/>
        <pt x="257" y="889" on="0"/>
        <pt x="289" y="889" on="1"/>
        <pt x="321" y="889" on="0"/>
        <pt x="378" y="864" on="0"/>
        <pt x="420" y="822" on="0"/>
        <pt x="444" y="765" on="0"/>
        <pt x="444" y="733" on="1"/>
        <pt x="444" y="701" on="0"/>
        <pt x="420" y="644" on="0"/>
        <pt x="378" y="602" on="0"/>
        <pt x="321" y="578" on="0"/>
        <pt x="289" y="578" on="1"/>
        <pt x="257" y="578" on="0"/>
        <pt x="200" y="602" on="0"/>
        <pt x="158" y="644" on="0"/>
        <pt x="133" y="701" on="0"/>
      </contour>
    </TTGlyph>
    <TTGlyph name="comma" xMin="86" yMin="-225" xMax="401" yMax="262">
      <contour>
        <pt x="133" y="-197" on="1"/>
        <pt x="158" y="-164" on="0"/>
        <pt x="172" y="-90" on="0"/>
        <pt x="158" y="-12" on="0"/>
        <pt x="117" y="66" on="0"/>
        <pt x="86" y="104" on="1"/>
        <pt x="244" y="262" on="1"/>
        <pt x="401" y="104" on="1"/>
        <pt x="388" y="66" on="0"/>
        <pt x="344" y="-16" on="0"/>
        <pt x="283" y="-102" on="0"/>
        <pt x="205" y="-186" on="0"/>
        <pt x="158" y="-225" on="1"/>
      </contour>
    </TTGlyph>
    <TTGlyph name="copyright" xMin="109" yMin="373" xMax="821" yMax="1030">
      <contour>
        <pt x="109" y="700" on="1"/>
        <pt x="109" y="755" on="0"/>
        <pt x="150" y="872" on="0"/>
        <pt x="237" y="968" on="0"/>
        <pt x="371" y="1030" on="0"/>
        <pt x="463" y="1030" on="1"/>
        <pt x="560" y="1030" on="0"/>
        <pt x="696" y="972" on="0"/>
        <pt x="782" y="878" on="0"/>
        <pt x="821" y="760" on="0"/>
        <pt x="821" y="700" on="1"/>
        <pt x="821" y="643" on="0"/>
        <pt x="782" y="526" on="0"/>
        <pt x="696" y="432" on="0"/>
        <pt x="560" y="373" on="0"/>
        <pt x="463" y="373" on="1"/>
        <pt x="371" y="373" on="0"/>
        <pt x="238" y="432" on="0"/>
        <pt x="151" y="526" on="0"/>
        <pt x="109" y="643" on="0"/>
      </contour>
      <contour>
        <pt x="143" y="700" on="1"/>
        <pt x="143" y="649" on="0"/>
        <pt x="181" y="544" on="0"/>
        <pt x="260" y="459" on="0"/>
        <pt x="381" y="406" on="0"/>
        <pt x="463" y="406" on="1"/>
        <pt x="550" y="406" on="0"/>
        <pt x="672" y="459" on="0"/>
        <pt x="750" y="544" on="0"/>
        <pt x="786" y="649" on="0"/>
        <pt x="786" y="700" on="1"/>
        <pt x="786" y="755" on="0"/>
        <pt x="751" y="861" on="0"/>
        <pt x="673" y="945" on="0"/>
        <pt x="550" y="997" on="0"/>
        <pt x="463" y="997" on="1"/>
        <pt x="380" y="997" on="0"/>
        <pt x="259" y="940" on="0"/>
        <pt x="181" y="853" on="0"/>
        <pt x="143" y="748" on="0"/>
      </contour>
      <contour>
        <pt x="608" y="811" on="1"/>
        <pt x="591" y="846" on="0"/>
        <pt x="524" y="885" on="0"/>
        <pt x="489" y="885" on="1"/>
        <pt x="457" y="885" on="0"/>
        <pt x="405" y="848" on="0"/>
        <pt x="369" y="790" on="0"/>
        <pt x="350" y="720" on="0"/>
        <pt x="350" y="686" on="1"/>
        <pt x="350" y="652" on="0"/>
        <pt x="373" y="589" on="0"/>
        <pt x="415" y="540" on="0"/>
        <pt x="472" y="510" on="0"/>
        <pt x="506" y="510" on="1"/>
        <pt x="533" y="510" on="0"/>
        <pt x="572" y="523" on="0"/>
        <pt x="598" y="542" on="0"/>
        <pt x="612" y="561" on="0"/>
        <pt x="614" y="567" on="1"/>
        <pt x="627" y="567" on="1"/>
        <pt x="623" y="526" on="1"/>
        <pt x="607" y="503" on="0"/>
        <pt x="532" y="473" on="0"/>
        <pt x="481" y="473" on="1"/>
        <pt x="433" y="473" on="0"/>
        <pt x="346" y="502" on="0"/>
        <pt x="280" y="555" on="0"/>
        <pt x="241" y="631" on="0"/>
        <pt x="240" y="678" on="1"/>
        <pt x="241" y="725" on="0"/>
        <pt x="273" y="800" on="0"/>
        <pt x="326" y="857" on="0"/>
        <pt x="394" y="896" on="0"/>
        <pt x="432" y="907" on="1"/>
        <pt x="455" y="912" on="0"/>
        <pt x="509" y="913" on="0"/>
        <pt x="537" y="913" on="1"/>
        <pt x="629" y="913" on="1"/>
        <pt x="623" y="880" on="0"/>
        <pt x="623" y="862" on="1"/>
        <pt x="623" y="851" on="0"/>
        <pt x="628" y="825" on="0"/>
        <pt x="633" y="811" on="1"/>
      </contour>
    </TTGlyph>
    <TTGlyph name="currency" xMin="72" yMin="604" xMax="543" yMax="1174">
      <contour>
        <pt x="420" y="885" on="1"/>
        <pt x="420" y="936" on="0"/>
        <pt x="400" y="1000" on="0"/>
        <pt x="369" y="1037" on="0"/>
        <pt x="332" y="1051" on="0"/>
        <pt x="315" y="1051" on="1"/>
        <pt x="298" y="1051" on="0"/>
        <pt x="262" y="1032" on="0"/>
        <pt x="232" y="991" on="0"/>
        <pt x="213" y="928" on="0"/>
        <pt x="213" y="885" on="1"/>
        <pt x="213" y="843" on="0"/>
        <pt x="232" y="781" on="0"/>
        <pt x="262" y="740" on="0"/>
        <pt x="298" y="719" on="0"/>
        <pt x="315" y="719" on="1"/>
        <pt x="333" y="719" on="0"/>
        <pt x="370" y="739" on="0"/>
        <pt x="400" y="779" on="0"/>
        <pt x="420" y="842" on="0"/>
      </contour>
      <contour>
        <pt x="207" y="1083" on="1"/>
        <pt x="257" y="1112" on="0"/>
        <pt x="315" y="1112" on="1"/>
        <pt x="341" y="1112" on="0"/>
        <pt x="389" y="1101" on="0"/>
        <pt x="412" y="1090" on="1"/>
        <pt x="475" y="1174" on="1"/>
        <pt x="543" y="1133" on="1"/>
        <pt x="475" y="1044" on="1"/>
        <pt x="506" y="1014" on="0"/>
        <pt x="543" y="931" on="0"/>
        <pt x="543" y="885" on="1"/>
        <pt x="543" y="838" on="0"/>
        <pt x="508" y="758" on="0"/>
        <pt x="479" y="727" on="1"/>
        <pt x="543" y="645" on="1"/>
        <pt x="477" y="604" on="1"/>
        <pt x="418" y="680" on="1"/>
        <pt x="395" y="669" on="0"/>
        <pt x="343" y="657" on="0"/>
        <pt x="315" y="657" on="1"/>
        <pt x="255" y="657" on="0"/>
        <pt x="201" y="688" on="1"/>
        <pt x="137" y="604" on="1"/>
        <pt x="72" y="645" on="1"/>
        <pt x="141" y="737" on="1"/>
        <pt x="117" y="768" on="0"/>
        <pt x="90" y="843" on="0"/>
        <pt x="90" y="885" on="1"/>
        <pt x="90" y="928" on="0"/>
        <pt x="119" y="1005" on="0"/>
        <pt x="145" y="1034" on="1"/>
        <pt x="72" y="1133" on="1"/>
        <pt x="139" y="1174" on="1"/>
      </contour>
    </TTGlyph>
    <TTGlyph name="d" xMin="82" yMin="-31" xMax="1423" yMax="1577">
      <contour>
        <pt x="997" y="162" on="1"/>
        <pt x="973" y="126" on="0"/>
        <pt x="903" y="57" on="0"/>
        <pt x="807" y="2" on="0"/>
        <pt x="685" y="-31" on="0"/>
        <pt x="608" y="-31" on="1"/>
        <pt x="478" y="-31" on="0"/>
        <pt x="281" y="62" on="0"/>
        <pt x="149" y="213" on="0"/>
        <pt x="82" y="403" on="0"/>
        <pt x="82" y="500" on="1"/>
        <pt x="82" y="573" on="0"/>
        <pt x="111" y="721" on="0"/>
        <pt x="171" y="858" on="0"/>
        <pt x="263" y="978" on="0"/>
        <pt x="391" y="1067" on="0"/>
        <pt x="555" y="1118" on="0"/>
        <pt x="657" y="1118" on="1"/>
        <pt x="715" y="1118" on="0"/>
        <pt x="817" y="1099" on="0"/>
        <pt x="902" y="1068" on="0"/>
        <pt x="971" y="1029" on="0"/>
        <pt x="997" y="1010" on="1"/>
        <pt x="997" y="1440" on="1"/>
        <pt x="997" y="1455" on="0"/>
        <pt x="986" y="1490" on="0"/>
        <pt x="956" y="1519" on="0"/>
        <pt x="904" y="1538" on="0"/>
        <pt x="862" y="1538" on="1"/>
        <pt x="862" y="1577" on="1"/>
        <pt x="1288" y="1577" on="1"/>
        <pt x="1288" y="135" on="1"/>
        <pt x="1288" y="120" on="0"/>
        <pt x="1299" y="86" on="0"/>
        <pt x="1329" y="57" on="0"/>
        <pt x="1382" y="37" on="0"/>
        <pt x="1423" y="37" on="1"/>
        <pt x="1423" y="0" on="1"/>
        <pt x="997" y="0" on="1"/>
      </contour>
      <contour>
        <pt x="682" y="74" on="1"/>
        <pt x="747" y="74" on="0"/>
        <pt x="845" y="122" on="0"/>
        <pt x="915" y="194" on="0"/>
        <pt x="960" y="281" on="0"/>
        <pt x="987" y="360" on="0"/>
        <pt x="997" y="419" on="0"/>
        <pt x="997" y="428" on="1"/>
        <pt x="997" y="819" on="1"/>
        <pt x="920" y="715" on="1"/>
        <pt x="915" y="806" on="0"/>
        <pt x="888" y="878" on="1"/>
        <pt x="876" y="909" on="0"/>
        <pt x="840" y="968" on="0"/>
        <pt x="787" y="1014" on="0"/>
        <pt x="715" y="1042" on="0"/>
        <pt x="668" y="1042" on="1"/>
        <pt x="593" y="1042" on="0"/>
        <pt x="483" y="966" on="0"/>
        <pt x="413" y="835" on="0"/>
        <pt x="379" y="661" on="0"/>
        <pt x="379" y="563" on="1"/>
        <pt x="379" y="435" on="0"/>
        <pt x="428" y="251" on="0"/>
        <pt x="510" y="131" on="0"/>
        <pt x="620" y="74" on="0"/>
      </contour>
    </TTGlyph>
    <TTGlyph name="dagger" xMin="76" yMin="-205" xMax="823" yMax="1640">
      <contour>
        <pt x="313" y="1231" on="1"/>
        <pt x="313" y="1640" on="1"/>
        <pt x="584" y="1640" on="1"/>
        <pt x="584" y="1231" on="1"/>
        <pt x="823" y="1231" on="1"/>
        <pt x="823" y="1096" on="1"/>
        <pt x="584" y="1096" on="1"/>
        <pt x="584" y="-205" on="1"/>
        <pt x="313" y="-205" on="1"/>
        <pt x="313" y="1096" on="1"/>
        <pt x="76" y="1096" on="1"/>
        <pt x="76" y="1231" on="1"/>
      </contour>
    </TTGlyph>
    <TTGlyph name="daggerdbl" xMin="92" yMin="-205" xMax="840" yMax="1640">
      <contour>
        <pt x="330" y="1231" on="1"/>
        <pt x="330" y="1640" on="1"/>
        <pt x="600" y="1640" on="1"/>
        <pt x="600" y="1231" on="1"/>
        <pt x="840" y="1231" on="1"/>
        <pt x="840" y="1096" on="1"/>
        <pt x="600" y="1096" on="1"/>
        <pt x="600" y="340" on="1"/>
        <pt x="840" y="340" on="1"/>
        <pt x="840" y="205" on="1"/>
        <pt x="600" y="205" on="1"/>
        <pt x="600" y="-205" on="1"/>
        <pt x="330" y="-205" on="1"/>
        <pt x="330" y="205" on="1"/>
        <pt x="92" y="205" on="1"/>
        <pt x="92" y="340" on="1"/>
        <pt x="330" y="340" on="1"/>
        <pt x="330" y="1096" on="1"/>
        <pt x="92" y="1096" on="1"/>
        <pt x="92" y="1231" on="1"/>
      </contour>
    </TTGlyph>
    <TTGlyph name="dcaron" xMin="82" yMin="-31" xMax="1657" yMax="1577">
      <component glyphName="d" x="0" y="0" flags="0x4"/>
      <component glyphName="uni0315" x="1331" y="0" flags="0x4"/>
    </TTGlyph>
    <TTGlyph name="dcroat" xMin="82" yMin="-31" xMax="1475" yMax="1577">
      <contour>
        <pt x="997" y="1399" on="1"/>
        <pt x="997" y="1440" on="1"/>
        <pt x="997" y="1455" on="0"/>
        <pt x="986" y="1490" on="0"/>
        <pt x="956" y="1519" on="0"/>
        <pt x="904" y="1538" on="0"/>
        <pt x="862" y="1538" on="1"/>
        <pt x="862" y="1577" on="1"/>
        <pt x="1288" y="1577" on="1"/>
        <pt x="1288" y="1399" on="1"/>
        <pt x="1475" y="1399" on="1"/>
        <pt x="1475" y="1264" on="1"/>
        <pt x="1288" y="1264" on="1"/>
        <pt x="1288" y="135" on="1"/>
        <pt x="1288" y="120" on="0"/>
        <pt x="1299" y="86" on="0"/>
        <pt x="1329" y="57" on="0"/>
        <pt x="1382" y="37" on="0"/>
        <pt x="1423" y="37" on="1"/>
        <pt x="1423" y="0" on="1"/>
        <pt x="997" y="0" on="1"/>
        <pt x="997" y="162" on="1"/>
        <pt x="973" y="126" on="0"/>
        <pt x="903" y="57" on="0"/>
        <pt x="807" y="2" on="0"/>
        <pt x="685" y="-31" on="0"/>
        <pt x="608" y="-31" on="1"/>
        <pt x="478" y="-31" on="0"/>
        <pt x="281" y="62" on="0"/>
        <pt x="149" y="213" on="0"/>
        <pt x="82" y="403" on="0"/>
        <pt x="82" y="500" on="1"/>
        <pt x="82" y="573" on="0"/>
        <pt x="111" y="721" on="0"/>
        <pt x="171" y="858" on="0"/>
        <pt x="263" y="978" on="0"/>
        <pt x="391" y="1067" on="0"/>
        <pt x="555" y="1118" on="0"/>
        <pt x="657" y="1118" on="1"/>
        <pt x="715" y="1118" on="0"/>
        <pt x="817" y="1099" on="0"/>
        <pt x="902" y="1068" on="0"/>
        <pt x="971" y="1029" on="0"/>
        <pt x="997" y="1010" on="1"/>
        <pt x="997" y="1264" on="1"/>
        <pt x="551" y="1264" on="1"/>
        <pt x="551" y="1399" on="1"/>
      </contour>
      <contour>
        <pt x="682" y="74" on="1"/>
        <pt x="747" y="74" on="0"/>
        <pt x="845" y="122" on="0"/>
        <pt x="915" y="194" on="0"/>
        <pt x="960" y="281" on="0"/>
        <pt x="987" y="360" on="0"/>
        <pt x="997" y="419" on="0"/>
        <pt x="997" y="428" on="1"/>
        <pt x="997" y="819" on="1"/>
        <pt x="920" y="715" on="1"/>
        <pt x="915" y="806" on="0"/>
        <pt x="888" y="878" on="1"/>
        <pt x="876" y="909" on="0"/>
        <pt x="840" y="968" on="0"/>
        <pt x="787" y="1014" on="0"/>
        <pt x="715" y="1042" on="0"/>
        <pt x="668" y="1042" on="1"/>
        <pt x="593" y="1042" on="0"/>
        <pt x="483" y="966" on="0"/>
        <pt x="413" y="835" on="0"/>
        <pt x="379" y="661" on="0"/>
        <pt x="379" y="563" on="1"/>
        <pt x="379" y="435" on="0"/>
        <pt x="428" y="251" on="0"/>
        <pt x="510" y="131" on="0"/>
        <pt x="620" y="74" on="0"/>
      </contour>
    </TTGlyph>
    <TTGlyph name="degree" xMin="90" yMin="1012" xMax="543" yMax="1466">
      <contour>
        <pt x="543" y="1239" on="1"/>
        <pt x="543" y="1192" on="0"/>
        <pt x="507" y="1109" on="0"/>
        <pt x="446" y="1048" on="0"/>
        <pt x="363" y="1012" on="0"/>
        <pt x="315" y="1012" on="1"/>
        <pt x="268" y="1012" on="0"/>
        <pt x="186" y="1048" on="0"/>
        <pt x="125" y="1109" on="0"/>
        <pt x="90" y="1192" on="0"/>
        <pt x="90" y="1239" on="1"/>
        <pt x="90" y="1286" on="0"/>
        <pt x="125" y="1369" on="0"/>
        <pt x="186" y="1430" on="0"/>
        <pt x="268" y="1466" on="0"/>
        <pt x="315" y="1466" on="1"/>
        <pt x="362" y="1466" on="0"/>
        <pt x="445" y="1430" on="0"/>
        <pt x="507" y="1369" on="0"/>
        <pt x="543" y="1286" on="0"/>
      </contour>
      <contour>
        <pt x="420" y="1239" on="1"/>
        <pt x="420" y="1290" on="0"/>
        <pt x="400" y="1354" on="0"/>
        <pt x="369" y="1391" on="0"/>
        <pt x="332" y="1405" on="0"/>
        <pt x="315" y="1405" on="1"/>
        <pt x="298" y="1405" on="0"/>
        <pt x="262" y="1386" on="0"/>
        <pt x="232" y="1346" on="0"/>
        <pt x="213" y="1283" on="0"/>
        <pt x="213" y="1239" on="1"/>
        <pt x="213" y="1197" on="0"/>
        <pt x="232" y="1135" on="0"/>
        <pt x="262" y="1094" on="0"/>
        <pt x="298" y="1073" on="0"/>
        <pt x="315" y="1073" on="1"/>
        <pt x="333" y="1073" on="0"/>
        <pt x="370" y="1093" on="0"/>
        <pt x="400" y="1133" on="0"/>
        <pt x="420" y="1196" on="0"/>
      </contour>
    </TTGlyph>
    <TTGlyph name="dieresis" xMin="0" yMin="1204" xMax="571" yMax="1434">
      <contour>
        <pt x="227" y="1319" on="1"/>
        <pt x="227" y="1295" on="0"/>
        <pt x="210" y="1253" on="0"/>
        <pt x="180" y="1222" on="0"/>
        <pt x="139" y="1204" on="0"/>
        <pt x="115" y="1204" on="1"/>
        <pt x="91" y="1204" on="0"/>
        <pt x="49" y="1222" on="0"/>
        <pt x="18" y="1253" on="0"/>
        <pt x="0" y="1295" on="0"/>
        <pt x="0" y="1319" on="1"/>
        <pt x="0" y="1342" on="0"/>
        <pt x="18" y="1384" on="0"/>
        <pt x="49" y="1415" on="0"/>
        <pt x="91" y="1434" on="0"/>
        <pt x="115" y="1434" on="1"/>
        <pt x="139" y="1434" on="0"/>
        <pt x="180" y="1415" on="0"/>
        <pt x="210" y="1384" on="0"/>
        <pt x="227" y="1342" on="0"/>
      </contour>
      <contour>
        <pt x="571" y="1319" on="1"/>
        <pt x="571" y="1295" on="0"/>
        <pt x="554" y="1253" on="0"/>
        <pt x="524" y="1222" on="0"/>
        <pt x="483" y="1204" on="0"/>
        <pt x="459" y="1204" on="1"/>
        <pt x="435" y="1204" on="0"/>
        <pt x="393" y="1222" on="0"/>
        <pt x="362" y="1253" on="0"/>
        <pt x="344" y="1295" on="0"/>
        <pt x="344" y="1319" on="1"/>
        <pt x="344" y="1342" on="0"/>
        <pt x="362" y="1384" on="0"/>
        <pt x="393" y="1415" on="0"/>
        <pt x="435" y="1434" on="0"/>
        <pt x="459" y="1434" on="1"/>
        <pt x="483" y="1434" on="0"/>
        <pt x="524" y="1415" on="0"/>
        <pt x="554" y="1384" on="0"/>
        <pt x="571" y="1342" on="0"/>
      </contour>
    </TTGlyph>
    <TTGlyph name="divide" xMin="113" yMin="264" xMax="1036" yMax="1124">
      <contour>
        <pt x="725" y="410" on="1"/>
        <pt x="725" y="380" on="0"/>
        <pt x="703" y="327" on="0"/>
        <pt x="664" y="287" on="0"/>
        <pt x="612" y="264" on="0"/>
        <pt x="582" y="264" on="1"/>
        <pt x="551" y="264" on="0"/>
        <pt x="497" y="287" on="0"/>
        <pt x="457" y="327" on="0"/>
        <pt x="434" y="380" on="0"/>
        <pt x="434" y="410" on="1"/>
        <pt x="434" y="440" on="0"/>
        <pt x="457" y="492" on="0"/>
        <pt x="497" y="532" on="0"/>
        <pt x="551" y="555" on="0"/>
        <pt x="582" y="555" on="1"/>
        <pt x="612" y="555" on="0"/>
        <pt x="664" y="532" on="0"/>
        <pt x="703" y="492" on="0"/>
        <pt x="725" y="440" on="0"/>
      </contour>
      <contour>
        <pt x="725" y="979" on="1"/>
        <pt x="725" y="948" on="0"/>
        <pt x="703" y="895" on="0"/>
        <pt x="664" y="856" on="0"/>
        <pt x="612" y="834" on="0"/>
        <pt x="582" y="834" on="1"/>
        <pt x="551" y="834" on="0"/>
        <pt x="497" y="856" on="0"/>
        <pt x="457" y="895" on="0"/>
        <pt x="434" y="948" on="0"/>
        <pt x="434" y="979" on="1"/>
        <pt x="434" y="1009" on="0"/>
        <pt x="457" y="1062" on="0"/>
        <pt x="497" y="1101" on="0"/>
        <pt x="551" y="1124" on="0"/>
        <pt x="582" y="1124" on="1"/>
        <pt x="612" y="1124" on="0"/>
        <pt x="664" y="1101" on="0"/>
        <pt x="703" y="1062" on="0"/>
        <pt x="725" y="1009" on="0"/>
      </contour>
      <contour>
        <pt x="1036" y="758" on="1"/>
        <pt x="1036" y="623" on="1"/>
        <pt x="113" y="623" on="1"/>
        <pt x="113" y="758" on="1"/>
      </contour>
    </TTGlyph>
</ttFont>
